SplineFontDB: 3.0
FontName: IndictionUnicode
FullName: Indiction Unicode
FamilyName: Indiction Unicode
Weight: Normal
Copyright: Copyright (c) Vladislav V. Dorosh, Calmius Software, 1996-98, 2002\nDistributed as Indyction UCS as part of CSLTeX, licensed under the LaTeX Project Public License.\nReencoded for Unicode and edited by Aleksandr Andreev, Slavonic Computing Initiative, 2016.\nDistributed as Indiction Unicode under the SIL Open Font License.\n
Version: 001.003
ItalicAngle: 0
UnderlinePosition: -56
UnderlineWidth: 12
Ascent: 800
Descent: 200
LayerCount: 3
Layer: 0 0 "Back"  1
Layer: 1 0 "Fore"  0
Layer: 2 1 "TTF"  0
UniqueID: 4777009
FSType: 0
OS2Version: 0
OS2_WeightWidthSlopeOnly: 0
OS2_UseTypoMetrics: 0
CreationTime: 1291760394
ModificationTime: 1468358654
PfmFamily: 17
TTFWeight: 500
TTFWidth: 5
LineGap: 60
VLineGap: 0
OS2TypoAscent: 0
OS2TypoAOffset: 1
OS2TypoDescent: 0
OS2TypoDOffset: 1
OS2TypoLinegap: 60
OS2WinAscent: 0
OS2WinAOffset: 1
OS2WinDescent: 0
OS2WinDOffset: 1
HheadAscent: 0
HheadAOffset: 1
HheadDescent: 0
HheadDOffset: 1
OS2Vendor: 'PfEd'
Lookup: 4 0 0 "'ccmp' Canonical Composition and Decomposition"  {"'ccmp' Canonical Composition and Decomposition-1"  } ['ccmp' ('DFLT' <'dflt' > 'cyrl' <'dflt' > 'latn' <'dflt' > ) ]
Lookup: 4 0 0 "'ccmp' Precomposed Forms"  {"'ccmp' Precomposed Forms-1"  } ['ccmp' ('DFLT' <'dflt' > 'cyrl' <'dflt' > 'latn' <'dflt' > ) ]
Lookup: 260 0 0 "'mark' Mark Positioning lookup 1"  {"'mark' Mark Positioning lookup 1-1"  } ['mark' ('DFLT' <'dflt' > 'cyrl' <'dflt' > 'latn' <'dflt' > ) ]
Lookup: 262 0 0 "'mkmk' Mark to Mark lookup 0"  {"'mkmk' Mark to Mark lookup 0-1"  } ['mkmk' ('DFLT' <'dflt' > 'cyrl' <'dflt' > 'latn' <'dflt' > ) ]
MarkAttachClasses: 1
DEI: 91125
TtTable: prep
PUSHW_1
 511
SCANCTRL
PUSHB_1
 1
SCANTYPE
SVTCA[y-axis]
MPPEM
PUSHB_1
 8
LT
IF
PUSHB_2
 1
 1
INSTCTRL
EIF
PUSHB_2
 70
 6
CALL
IF
POP
PUSHB_1
 16
EIF
MPPEM
PUSHB_1
 20
GT
IF
POP
PUSHB_1
 128
EIF
SCVTCI
PUSHB_1
 6
CALL
NOT
IF
SVTCA[y-axis]
PUSHB_1

StartChar: .notdef
Encoding: 1114112 -1 0
Width: 983
VWidth: 800
Flags: W
HStem: 48 50<374 609> 886 47<377 608>
VStem: 49 50<372 608> 887 47<376 608>
DStem2: 196 233 230 198 0.706089 0.708123<0 785.667>
LayerCount: 3
Fore
SplineSet
934.4 490.4 m 0
 934.4 247.2 736 48 491.2 48 c 0
 248 48 48.7998 246.4 48.7998 491.2 c 0
 48.7998 734.4 248 932.8 490.4 932.8 c 1
 493.6 932.8 l 2
 736 932.8 934.4 733.6 934.4 490.4 c 0
751.2 788.8 m 1
 682.4 848.8 591.2 885.6 492.8 885.6 c 0
 275.2 885.6 98.4004 708.8 98.4004 492 c 0
 98.4004 392 134.4 301.6 196 232.8 c 1
 751.2 788.8 l 1
887.2 492 m 0
 887.2 592.8 848.8 684 785.6 754.4 c 1
 771.2 739.2 494.4 469.6 230.4 197.6 c 1
 299.2 134.4 392 97.5996 492.8 97.5996 c 0
 709.6 97.5996 887.2 274.4 887.2 492 c 0
EndSplineSet
Validated: 1
Layer: 2
SplineSet
875 712 m 132,-1,1
 934 610 934 610 934 490 c 132,-1,2
 934 370 934 370 875 268.5 c 132,-1,3
 816 167 816 167 713.5 107.5 c 132,-1,4
 611 48 611 48 491 48 c 132,-1,5
 371 48 371 48 269.5 107 c 132,-1,6
 168 166 168 166 108.5 268.5 c 132,-1,7
 49 371 49 371 49 490.5 c 132,-1,8
 49 610 49 610 108.5 712 c 132,-1,9
 168 814 168 814 269.5 873.5 c 132,-1,10
 371 933 371 933 490 933 c 6,11,-1
 494 933 l 6,12,13
 613 933 613 933 714.5 873.5 c 132,-1,0
 816 814 816 814 875 712 c 132,-1,1
751 789 m 5,14,15
 640 886 640 886 493 886 c 4,16,17
 386 886 386 886 295 833 c 132,-1,18
 204 780 204 780 151 689 c 132,-1,19
 98 598 98 598 98 492 c 4,20,21
 98 342 98 342 196 233 c 5,22,-1
 751 789 l 5,14,15
887 492 m 4,23,24
 887 642 887 642 786 754 c 5,25,26
 784 752 784 752 701 670 c 4,27,28
 459 432 459 432 230 198 c 5,29,30
 339 98 339 98 493 98 c 4,31,32
 599 98 599 98 690 150.5 c 132,-1,33
 781 203 781 203 834 294 c 132,-1,34
 887 385 887 385 887 492 c 4,23,24
EndSplineSet
Validated: 19457
EndChar

StartChar: C
Encoding: 67 67 3
Width: 508
VWidth: 800
Flags: W
HStem: -8 33<218 372> 497 30<217 355>
VStem: 30 73<164 353> 453 26<361 394>
LayerCount: 3
Fore
SplineSet
29.5996 248 m 0
 29.5996 400 134.4 526.4 286.4 526.4 c 0
 384.8 526.4 420.8 490.4 461.6 490.4 c 1
 469.6 446.4 475.2 408 479.2 366.4 c 1
 472.8 363.2 467.2 360.8 461.6 360.8 c 0
 458.4 360.8 456 361.6 452.8 362.4 c 1
 432 431.2 388 496.8 277.6 496.8 c 0
 236 496.8 189.6 474.4 149.6 425.6 c 0
 120.8 389.6 102.4 332 102.4 263.2 c 0
 102.4 146.4 176.8 24.7998 284.8 24.7998 c 0
 359.2 24.7998 413.6 49.5996 470.4 112 c 1
 479.2 112 484.8 107.2 488.8 100 c 1
 434.4 28.7998 363.2 -8 285.6 -8 c 0
 113.6 -8 29.5996 108.8 29.5996 248 c 0
EndSplineSet
Validated: 1
Layer: 2
SplineSet
30 248 m 0,0,1
 30 364 30 364 102 445 c 128,-1,2
 174 526 174 526 286 526 c 0,3,4
 342 526 342 526 395 508 c 128,-1,5
 448 490 448 490 462 490 c 1,6,7
 474 424 474 424 479 366 c 1,8,9
 468 360 468 360 462 361 c 0,10,11
 460 361 460 361 453 362 c 1,12,13
 412 496 412 496 278 497 c 0,14,15
 208 497 208 497 150 426 c 1,16,17
 103 367 103 367 102 263 c 0,18,19
 102 171 102 171 154.5 98 c 128,-1,20
 207 25 207 25 285 25 c 0,21,22
 341 25 341 25 384.5 45.5 c 128,-1,23
 428 66 428 66 470 112 c 1,24,25
 482 112 482 112 489 100 c 1,26,27
 407 -8 407 -8 286 -8 c 0,28,29
 163 -8 163 -8 96.5 65 c 128,-1,30
 30 138 30 138 30 248 c 0,0,1
EndSplineSet
Validated: 19457
EndChar

StartChar: D
Encoding: 68 68 4
Width: 540
VWidth: 800
Flags: W
HStem: 0 26<11 72 170 332> 490 27<11 72 165 302>
VStem: 85 68<38 478> 450 77<144 338>
LayerCount: 3
Fore
SplineSet
152.8 67.2002 m 2
 152.8 41.5996 161.6 25.5996 240 25.5996 c 0
 352.8 25.5996 449.6 65.5996 449.6 227.2 c 0
 449.6 350.4 392.8 490.4 220 490.4 c 0
 180.8 490.4 152.8 479.2 152.8 451.2 c 2
 152.8 67.2002 l 2
118.4 516 m 0
 149.6 516 193.6 517.6 250.4 517.6 c 0
 404 517.6 526.4 395.2 526.4 246.4 c 0
 526.4 49.5996 377.6 0 264.8 0 c 0
 182.4 0 148.8 0 119.2 0 c 0
 88.7998 0 46.4004 -0.799805 15.2002 -1.59961 c 1
 12.7998 0.799805 11.2002 6.40039 11.2002 11.2002 c 0
 11.2002 16.7998 12.7998 22.4004 15.2002 24.7998 c 1
 71.2002 27.2002 84.7998 31.2002 84.7998 97.5996 c 2
 84.7998 418.4 l 2
 84.7998 484.8 71.2002 488.8 15.2002 491.2 c 1
 12.7998 493.6 11.2002 499.2 11.2002 504 c 0
 11.2002 509.6 12.7998 515.2 15.2002 517.6 c 1
 47.2002 516.8 89.5996 516 118.4 516 c 0
EndSplineSet
Validated: 1
Layer: 2
SplineSet
153 67 m 2,0,1
 153 45 153 45 169.5 35.5 c 128,-1,2
 186 26 186 26 240 26 c 0,3,4
 286 26 286 26 321 35 c 128,-1,5
 356 44 356 44 386.5 65.5 c 128,-1,6
 417 87 417 87 433.5 128 c 128,-1,7
 450 169 450 169 450 227 c 0,8,9
 450 276 450 276 438 321 c 128,-1,10
 426 366 426 366 400 405 c 128,-1,11
 374 444 374 444 328 467 c 128,-1,12
 282 490 282 490 220 490 c 0,13,14
 153 490 153 490 153 451 c 2,15,-1
 153 67 l 2,0,1
118 516 m 0,16,17
 131 516 131 516 174.5 517 c 128,-1,18
 218 518 218 518 250 518 c 0,19,20
 365 518 365 518 445.5 438 c 128,-1,21
 526 358 526 358 526 246 c 0,22,23
 526 189 526 189 509.5 145 c 128,-1,24
 493 101 493 101 467 74.5 c 128,-1,25
 441 48 441 48 405.5 30.5 c 128,-1,26
 370 13 370 13 336 6.5 c 128,-1,27
 302 0 302 0 265 0 c 2,28,-1
 119 0 l 2,29,30
 77 0 77 0 15 -2 c 1,31,32
 11 2 11 2 11 11 c 0,33,34
 11 21 11 21 15 25 c 1,35,36
 60 27 60 27 72.5 38.5 c 128,-1,37
 85 50 85 50 85 98 c 2,38,-1
 85 418 l 2,39,40
 85 466 85 466 72.5 478 c 128,-1,41
 60 490 60 490 15 491 c 1,42,43
 11 495 11 495 11 504 c 0,44,45
 11 514 11 514 15 518 c 1,46,47
 79 516 79 516 118 516 c 0,16,17
EndSplineSet
Validated: 19457
EndChar

StartChar: E
Encoding: 69 69 5
Width: 433
VWidth: 800
Flags: W
HStem: 0 31<162 340> 0 25<11 70> 258 30<152 286> 484 32<163 319> 491 26<11 71>
VStem: 84 68<43 258 289 472> 298 26<200 235 298 334 334 347> 355 26<397 432> 394 28<98 137>
LayerCount: 3
Fore
SplineSet
249.6 288.8 m 2x3780
 292 288.8 296 312.8 296 326.4 c 0
 296 328.8 295.2 331.2 295.2 332 c 0
 295.2 333.6 295.2 334.4 296 334.4 c 0
 296.8 334.4 297.6 336.8 297.6 343.2 c 1
 300 345.6 305.6 347.2 310.4 347.2 c 0
 316 347.2 321.6 345.6 324 343.2 c 1
 323.2 324 322.4 296.8 322.4 274.4 c 0
 322.4 247.2 323.2 224.8 324 204 c 1
 321.6 201.6 316 200 310.4 200 c 0
 305.6 200 300 201.6 297.6 204 c 1
 295.2 240 292.8 258.4 224.8 258.4 c 2
 152 258.4 l 1
 152 81.5996 l 2
 152 44 163.2 31.2002 196.8 31.2002 c 2
 289.6 31.2002 l 2xb780
 350.4 31.2002 378.4 78.4004 394.4 136 c 1
 397.6 136.8 400.8 136.8 404 136.8 c 0
 410.4 136.8 416.8 135.2 422.4 132 c 1
 416 91.2002 404 40 392.8 0 c 1
 14.4004 0 l 1
 12 2.40039 11.2002 6.40039 11.2002 11.2002 c 0
 11.2002 16.7998 12 22.4004 14.4004 24.7998 c 1
 70.4004 27.2002 84 31.2002 84 97.5996 c 2
 84 418.4 l 2
 84 484.8 70.4004 488.8 14.4004 491.2 c 1
 12 493.6 11.2002 499.2 11.2002 504 c 0
 11.2002 509.6 12 515.2 14.4004 517.6 c 1x6f80
 46.4004 516.8 92.7998 516 117.6 516 c 2
 321.6 516 l 2
 340.8 516 347.2 516.8 360.8 519.2 c 0
 363.2 519.2 364 518.4 364 516.8 c 0
 365.6 510.4 377.6 433.6 381.6 400.8 c 1
 376 397.6 369.6 396 362.4 396 c 0
 360 396 357.6 396.8 355.2 396.8 c 1
 337.6 452 324.8 484 264.8 484 c 2
 204.8 484 l 2
 161.6 484 152 468 152 432.8 c 2
 152 288.8 l 1
 249.6 288.8 l 2x3780
EndSplineSet
Validated: 1
Layer: 2
SplineSet
362 396 m 1,0,-1
 355 397 l 1,1,2
 340 445 340 445 323 464.5 c 128,-1,3
 306 484 306 484 265 484 c 2,4,-1
 205 484 l 2,5,6
 174 484 174 484 163 472.5 c 128,-1,7
 152 461 152 461 152 433 c 2,8,-1
 152 289 l 1,9,-1
 250 289 l 2,10,11
 296 289 296 289 296 326 c 0,12,13
 296 328 296 328 295.5 331 c 128,-1,14
 295 334 295 334 296.5 334 c 128,-1,15
 298 334 298 334 298 343 c 1,16,17
 302 347 302 347 311 347 c 128,-1,18
 320 347 320 347 324 343 c 1,19,20
 322 305 322 305 322 275.5 c 128,-1,21
 322 246 322 246 324 204 c 1,22,23
 320 200 320 200 311 200 c 128,-1,24
 302 200 302 200 298 204 c 1,25,26
 296 226 296 226 293 235 c 128,-1,27
 290 244 290 244 274 251 c 128,-1,28
 258 258 258 258 225 258 c 2,29,-1
 152 258 l 1,30,-1
 152 82 l 2,31,32
 152 54 152 54 162 42.5 c 128,-1,33
 172 31 172 31 197 31 c 2,34,-1
 290 31 l 2,35,36
 366 31 366 31 394 136 c 1,37,38
 397 137 397 137 405.5 137 c 128,-1,39
 414 137 414 137 422 132 c 1,40,41
 412 72 412 72 393 0 c 1,42,-1
 14 0 l 1,43,44
 11 3 11 3 11 12.5 c 128,-1,45
 11 22 11 22 14 25 c 1,46,47
 59 27 59 27 71.5 38.5 c 128,-1,48
 84 50 84 50 84 98 c 2,49,-1
 84 418 l 2,50,51
 84 466 84 466 71.5 478 c 128,-1,52
 59 490 59 490 14 491 c 1,53,54
 11 494 11 494 11 504 c 128,-1,55
 11 514 11 514 14 518 c 1,56,57
 78 516 78 516 118 516 c 2,58,-1
 322 516 l 2,59,60
 343 516 343 516 361 519 c 0,61,62
 364 519 364 519 364 517 c 0,63,64
 370 490 370 490 382 401 c 1,65,66
 372 396 372 396 362 396 c 1,0,-1
EndSplineSet
Validated: 19457
EndChar

StartChar: G
Encoding: 71 71 6
Width: 552
VWidth: 800
Flags: W
HStem: -8 29<234 397> 212 29<355 410 501 533> 498 29<228 371>
VStem: 30 77<163 347> 424 68<59 202> 460 26<363 400>
LayerCount: 3
Fore
SplineSet
301.6 526.4 m 0xfc
 390.4 526.4 420 498.4 468 490.4 c 1
 480.8 432.8 486.4 400.8 486.4 367.2 c 1
 478.4 364 471.2 362.4 463.2 362.4 c 0
 462.4 362.4 460.8 362.4 460 362.4 c 1xfa
 439.2 431.2 406.4 497.6 290.4 497.6 c 0
 196.8 497.6 106.4 401.6 106.4 261.6 c 0
 106.4 156 173.6 20.7998 300 20.7998 c 0
 343.2 20.7998 396.8 25.5996 424 51.2002 c 1
 424 173.6 l 2
 424 205.6 402.4 208.8 358.4 212 c 1
 356 214.4 355.2 220.8 355.2 226.4 c 0
 355.2 232 356 238.4 358.4 240.8 c 1
 393.6 240 430.4 239.2 457.6 239.2 c 0
 489.6 239.2 509.6 240 528.8 240.8 c 1
 531.2 238.4 532.8 232 532.8 226.4 c 0
 532.8 220.8 531.2 214.4 528.8 212 c 1
 505.6 209.6 492 201.6 492 173.6 c 2
 492 80.7998 l 2
 492 72 496 65.5996 504.8 58.4004 c 1
 450.4 12 376 -8 281.6 -8 c 0
 128.8 -8 29.5996 101.6 29.5996 245.6 c 0
 29.5996 421.6 168 526.4 301.6 526.4 c 0xfc
EndSplineSet
Validated: 1
Layer: 2
SplineSet
302 526 m 0,0,1
 341 526 341 526 371 519 c 128,-1,2
 401 512 401 512 426 502.5 c 128,-1,3
 451 493 451 493 468 490 c 1,4,5
 486 408 486 408 486 367 c 1,6,7
 474 362 474 362 463 362 c 2,8,-1
 460 362 l 1,9,10
 451 392 451 392 440.5 413 c 128,-1,11
 430 434 430 434 411.5 455 c 128,-1,12
 393 476 393 476 362.5 487 c 128,-1,13
 332 498 332 498 290 498 c 0,14,15
 217 498 217 498 161.5 430.5 c 128,-1,16
 106 363 106 363 106 262 c 0,17,18
 106 207 106 207 127.5 152.5 c 128,-1,19
 149 98 149 98 194.5 59.5 c 128,-1,20
 240 21 240 21 300 21 c 0,21,22
 392 21 392 21 424 51 c 1,23,-1
 424 174 l 2,24,25
 424 196 424 196 410 203 c 128,-1,26
 396 210 396 210 358 212 c 1,27,28
 355 215 355 215 355 226.5 c 128,-1,29
 355 238 355 238 358 241 c 1,30,31
 428 239 428 239 458 239 c 0,32,33
 491 239 491 239 529 241 c 1,34,35
 533 237 533 237 533 226.5 c 128,-1,36
 533 216 533 216 529 212 c 1,37,38
 511 210 511 210 501.5 202 c 128,-1,39
 492 194 492 194 492 174 c 2,40,-1
 492 81 l 2,41,42
 492 69 492 69 505 58 c 1,43,44
 427 -8 427 -8 282 -8 c 0,45,46
 169 -8 169 -8 99.5 64 c 128,-1,47
 30 136 30 136 30 246 c 0,48,49
 30 330 30 330 70 395.5 c 128,-1,50
 110 461 110 461 172 493.5 c 128,-1,51
 234 526 234 526 302 526 c 0,0,1
EndSplineSet
Validated: 19457
EndChar

StartChar: H
Encoding: 72 72 7
Width: 582
VWidth: 800
Flags: W
HStem: -2 26<11 72 166 226 354 414 507 568> 257 34<153 426> 491 26<11 72 166 226 354 414 507 568>
VStem: 85 68<38 257 290 478> 426 68<38 257 290 478>
LayerCount: 3
Fore
SplineSet
494.4 97.5996 m 2
 494.4 31.2002 508 27.2002 564 24.7998 c 1
 566.4 22.4004 568 16.7998 568 11.2002 c 0
 568 6.40039 566.4 0.799805 564 -1.59961 c 1
 528.8 -0.799805 490.4 0 460.8 0 c 0
 431.2 0 392.8 -0.799805 356.8 -1.59961 c 1
 354.4 0.799805 353.6 6.40039 353.6 11.2002 c 0
 353.6 16.7998 354.4 22.4004 356.8 24.7998 c 1
 412.8 27.2002 426.4 31.2002 426.4 97.5996 c 6
 426.4 256.8 l 5
 152.8 256.8 l 1
 152.8 97.5996 l 2
 152.8 31.2002 166.4 27.2002 222.4 24.7998 c 1
 224.8 22.4004 225.6 16.7998 225.6 11.2002 c 0
 225.6 6.40039 224.8 0.799805 222.4 -1.59961 c 1
 187.2 -0.799805 148 0 119.2 0 c 0
 88.7998 0 50.4004 -0.799805 15.2002 -1.59961 c 1
 12.7998 0.799805 11.2002 6.40039 11.2002 11.2002 c 0
 11.2002 16.7998 12.7998 22.4004 15.2002 24.7998 c 1
 71.2002 27.2002 84.7998 31.2002 84.7998 97.5996 c 2
 84.7998 418.4 l 2
 84.7998 484.8 71.2002 488.8 15.2002 491.2 c 1
 12.7998 493.6 11.2002 499.2 11.2002 504 c 0
 11.2002 509.6 12.7998 515.2 15.2002 517.6 c 1
 45.5996 516.8 78.4004 516 118.4 516 c 0
 159.2 516 192 516.8 222.4 517.6 c 1
 224.8 515.2 225.6 509.6 225.6 504 c 0
 225.6 499.2 224.8 493.6 222.4 491.2 c 1
 166.4 488.8 152.8 484.8 152.8 418.4 c 2
 152.8 290.4 l 1
 426.4 290.4 l 1
 426.4 418.4 l 2
 426.4 484.8 412.8 488.8 356.8 491.2 c 1
 354.4 493.6 353.6 499.2 353.6 504 c 0
 353.6 509.6 354.4 515.2 356.8 517.6 c 1
 392 516.8 430.4 516 460 516 c 0
 490.4 516 531.2 516.8 564 517.6 c 1
 566.4 515.2 568 509.6 568 504 c 0
 568 499.2 566.4 493.6 564 491.2 c 1
 508 488.8 494.4 484.8 494.4 418.4 c 2
 494.4 97.5996 l 2
EndSplineSet
Validated: 1
Layer: 2
SplineSet
494 98 m 2,0,1
 494 50 494 50 506.5 38 c 128,-1,2
 519 26 519 26 564 25 c 1,3,4
 568 21 568 21 568 11 c 0,5,6
 568 2 568 2 564 -2 c 1,7,8
 494 0 494 0 461 0 c 0,9,10
 429 0 429 0 357 -2 c 1,11,12
 354 1 354 1 354 11 c 128,-1,13
 354 21 354 21 357 25 c 1,14,15
 402 27 402 27 414 38.5 c 128,-1,16
 426 50 426 50 426 98 c 2,17,-1
 426 257 l 1,18,-1
 153 257 l 1,19,-1
 153 98 l 2,20,21
 153 50 153 50 165.5 38 c 128,-1,22
 178 26 178 26 222 25 c 1,23,24
 225 22 225 22 226 11 c 0,25,26
 226 1 226 1 222 -2 c 1,27,28
 152 0 152 0 119 0 c 0,29,30
 85 0 85 0 15 -2 c 1,31,32
 11 2 11 2 11 11 c 0,33,34
 11 21 11 21 15 25 c 1,35,36
 60 27 60 27 72.5 38.5 c 128,-1,37
 85 50 85 50 85 98 c 2,38,-1
 85 418 l 2,39,40
 85 466 85 466 72.5 478 c 128,-1,41
 60 490 60 490 15 491 c 1,42,43
 11 495 11 495 11 504 c 0,44,45
 11 514 11 514 15 518 c 1,46,47
 76 516 76 516 118 516 c 0,48,49
 161 516 161 516 222 518 c 1,50,51
 225 515 225 515 226 504 c 0,52,53
 226 494 226 494 222 491 c 1,54,55
 177 489 177 489 165 477.5 c 128,-1,56
 153 466 153 466 153 418 c 2,57,-1
 153 290 l 1,58,-1
 426 290 l 1,59,-1
 426 418 l 2,60,61
 426 466 426 466 414 478 c 128,-1,62
 402 490 402 490 357 491 c 1,63,64
 354 494 354 494 354 504 c 128,-1,65
 354 514 354 514 357 518 c 1,66,67
 427 516 427 516 460 516 c 0,68,69
 498 516 498 516 564 518 c 1,70,71
 568 514 568 514 568 504 c 0,72,73
 568 495 568 495 564 491 c 1,74,75
 519 489 519 489 506.5 477.5 c 128,-1,76
 494 466 494 466 494 418 c 2,77,-1
 494 98 l 2,0,1
EndSplineSet
Validated: 19457
EndChar

StartChar: I
Encoding: 73 73 8
Width: 236
VWidth: 800
Flags: W
HStem: -2 26<11 72 166 226> 491 26<11 72 166 226>
VStem: 85 68<38 478>
LayerCount: 3
Fore
SplineSet
152.8 97.5996 m 2
 152.8 31.2002 166.4 27.2002 222.4 24.7998 c 1
 224.8 22.4004 225.6 16.7998 225.6 11.2002 c 0
 225.6 6.40039 224.8 0.799805 222.4 -1.59961 c 1
 186.4 -0.799805 148 0 119.2 0 c 0
 90.4004 0 51.2002 -0.799805 15.2002 -1.59961 c 1
 12.7998 0.799805 11.2002 6.40039 11.2002 11.2002 c 0
 11.2002 16.7998 12.7998 22.4004 15.2002 24.7998 c 1
 71.2002 27.2002 84.7998 31.2002 84.7998 97.5996 c 2
 84.7998 418.4 l 2
 84.7998 484.8 71.2002 488.8 15.2002 491.2 c 1
 12.7998 493.6 11.2002 499.2 11.2002 504 c 0
 11.2002 509.6 12.7998 515.2 15.2002 517.6 c 1
 52.7998 516.8 91.2002 516 118.4 516 c 0
 148.8 516 187.2 516.8 222.4 517.6 c 1
 224.8 515.2 225.6 509.6 225.6 504 c 0
 225.6 499.2 224.8 493.6 222.4 491.2 c 1
 166.4 488.8 152.8 484.8 152.8 418.4 c 2
 152.8 97.5996 l 2
EndSplineSet
Validated: 1
Layer: 2
SplineSet
153 98 m 2,0,1
 153 50 153 50 165.5 38 c 128,-1,2
 178 26 178 26 222 25 c 1,3,4
 225 22 225 22 226 11 c 0,5,6
 226 1 226 1 222 -2 c 1,7,8
 150 0 150 0 119 0 c 0,9,10
 87 0 87 0 15 -2 c 1,11,12
 11 2 11 2 11 11 c 0,13,14
 11 21 11 21 15 25 c 1,15,16
 60 27 60 27 72.5 38.5 c 128,-1,17
 85 50 85 50 85 98 c 2,18,-1
 85 418 l 2,19,20
 85 466 85 466 72.5 478 c 128,-1,21
 60 490 60 490 15 491 c 1,22,23
 11 495 11 495 11 504 c 0,24,25
 11 514 11 514 15 518 c 1,26,27
 90 516 90 516 118 516 c 0,28,29
 152 516 152 516 222 518 c 1,30,31
 225 515 225 515 226 504 c 0,32,33
 226 494 226 494 222 491 c 1,34,35
 177 489 177 489 165 477.5 c 128,-1,36
 153 466 153 466 153 418 c 2,37,-1
 153 98 l 2,0,1
EndSplineSet
Validated: 19457
EndChar

StartChar: J
Encoding: 74 74 9
Width: 265
VWidth: 800
Flags: W
HStem: -138 36<-3 74> 491 26<32 99 193 246>
VStem: 113 68<-22 477>
LayerCount: 3
Fore
SplineSet
180.8 418.4 m 2
 180.8 82.4004 l 2
 180.8 -32 134.4 -73.5996 99.2002 -103.2 c 0
 66.4004 -131.2 41.5996 -137.6 5.59961 -137.6 c 0
 -12 -137.6 -54.4004 -123.2 -54.4004 -94.4004 c 0
 -54.4004 -76.7998 -30.4004 -60 -19.2002 -60 c 0
 0.799805 -60 8 -70.4004 12.7998 -80 c 0
 18.4004 -92 29.5996 -101.6 44.7998 -101.6 c 0
 71.2002 -101.6 112.8 -79.2002 112.8 64.7998 c 2
 112.8 418.4 l 2
 112.8 484.8 99.2002 488.8 35.2002 491.2 c 1
 32.7998 493.6 32 499.2 32 504 c 0
 32 509.6 32.7998 515.2 35.2002 517.6 c 1
 75.2002 516.8 117.6 516 146.4 516 c 0
 177.6 516 212 516.8 242.4 517.6 c 1
 244.8 515.2 246.4 509.6 246.4 504 c 0
 246.4 499.2 244.8 493.6 242.4 491.2 c 1
 194.4 488.8 180.8 484.8 180.8 418.4 c 2
EndSplineSet
Validated: 1
Layer: 2
SplineSet
181 418 m 2,0,-1
 181 82 l 2,1,2
 181 41 181 41 173.5 9.5 c 128,-1,3
 166 -22 166 -22 152 -43.5 c 128,-1,4
 138 -65 138 -65 127.5 -77 c 128,-1,5
 117 -89 117 -89 99 -103 c 0,6,7
 59 -137 59 -137 6 -138 c 0,8,9
 -12 -138 -12 -138 -33 -126 c 128,-1,10
 -54 -114 -54 -114 -54 -94 c 0,11,12
 -54 -82 -54 -82 -41.5 -71 c 128,-1,13
 -29 -60 -29 -60 -19 -60 c 0,14,15
 3 -60 3 -60 13 -80 c 0,16,17
 23 -102 23 -102 45 -102 c 0,18,19
 61 -102 61 -102 74.5 -91.5 c 128,-1,20
 88 -81 88 -81 100.5 -41.5 c 128,-1,21
 113 -2 113 -2 113 65 c 2,22,-1
 113 418 l 2,23,24
 113 466 113 466 99.5 478 c 128,-1,25
 86 490 86 490 35 491 c 1,26,27
 32 494 32 494 32 504 c 128,-1,28
 32 514 32 514 35 518 c 1,29,30
 115 516 115 516 146 516 c 0,31,32
 181 516 181 516 242 518 c 1,33,34
 246 514 246 514 246 504 c 0,35,36
 246 495 246 495 242 491 c 1,37,38
 204 489 204 489 192.5 477 c 128,-1,39
 181 465 181 465 181 418 c 2,0,-1
EndSplineSet
Validated: 19457
EndChar

StartChar: K
Encoding: 75 75 10
Width: 516
VWidth: 800
Flags: W
HStem: 0 25<11 71 166 226 456 506> 491 26<11 72 166 226 322 363 434 496>
VStem: 85 68<38 247 278 478>
DStem2: 216 309 274 326 0.683941 0.729537<4.14808 221.849> 256 266 219 217 0.644226 -0.764835<-21.803 273.462>
LayerCount: 3
Fore
SplineSet
152.8 97.5996 m 2
 152.8 31.2002 166.4 27.2002 222.4 24.7998 c 1
 224.8 22.4004 225.6 16.7998 225.6 11.2002 c 0
 225.6 6.40039 224.8 2.40039 222.4 0 c 1
 210.4 0 198.4 0 186.4 0 c 0
 162.4 0 139.2 0 119.2 0 c 0
 88 0 51.2002 -0.799805 15.2002 -1.59961 c 1
 12.7998 0.799805 11.2002 6.40039 11.2002 11.2002 c 0
 11.2002 16.7998 12.7998 22.4004 15.2002 24.7998 c 1
 71.2002 27.2002 84.7998 31.2002 84.7998 97.5996 c 2
 84.7998 418.4 l 2
 84.7998 484.8 71.2002 488.8 15.2002 491.2 c 1
 12.7998 493.6 11.2002 499.2 11.2002 504 c 0
 11.2002 509.6 12.7998 515.2 15.2002 517.6 c 1
 51.2002 516.8 88 516 118.4 516 c 0
 147.2 516 185.6 516.8 222.4 517.6 c 1
 224.8 515.2 225.6 509.6 225.6 504 c 0
 225.6 499.2 224.8 493.6 222.4 491.2 c 1
 166.4 488.8 152.8 484.8 152.8 418.4 c 2
 152.8 277.6 l 1
 180.8 280 199.2 290.4 216 308.8 c 2
 348 449.6 l 2
 359.2 461.6 363.2 469.6 363.2 475.2 c 0
 363.2 487.2 344.8 489.6 325.6 491.2 c 1
 323.2 493.6 321.6 499.2 321.6 504 c 0
 321.6 509.6 323.2 515.2 325.6 517.6 c 1
 355.2 516.8 386.4 516 416 516 c 0
 441.6 516 467.2 516.8 492 517.6 c 1
 494.4 515.2 496 509.6 496 504 c 0
 496 499.2 494.4 493.6 492 491.2 c 1
 460 488.8 428 485.6 391.2 446.4 c 1
 273.6 325.6 l 2
 246.4 297.6 245.6 292 245.6 286.4 c 0
 245.6 280 249.6 273.6 256 266.4 c 2
 431.2 58.4004 l 2
 456 29.5996 478.4 27.2002 501.6 24.7998 c 1
 504 22.4004 505.6 16.7998 505.6 11.2002 c 0
 505.6 6.40039 504 0.799805 501.6 -1.59961 c 1
 475.2 -0.799805 448 0 420.8 0 c 0
 404 0 393.6 -0.799805 377.6 -1.59961 c 0
 374.4 -1.59961 373.6 0.799805 373.6 3.2002 c 0
 372 16 360.8 37.5996 344.8 58.4004 c 2
 219.2 216.8 l 2
 203.2 237.6 180 246.4 152.8 247.2 c 1
 152.8 97.5996 l 2
EndSplineSet
Validated: 1
Layer: 2
SplineSet
153 98 m 2,0,1
 153 50 153 50 165.5 38 c 128,-1,2
 178 26 178 26 222 25 c 1,3,4
 225 22 225 22 226 11 c 0,5,6
 226 3 226 3 222 0 c 1,7,-1
 186 0 l 1,8,9
 119 0 l 2,10,11
 87 0 87 0 15 -2 c 1,12,13
 11 2 11 2 11 11 c 0,14,15
 11 21 11 21 15 25 c 1,16,17
 60 27 60 27 72.5 38.5 c 128,-1,18
 85 50 85 50 85 98 c 2,19,-1
 85 418 l 2,20,21
 85 466 85 466 72.5 478 c 128,-1,22
 60 490 60 490 15 491 c 1,23,24
 11 495 11 495 11 504 c 0,25,26
 11 514 11 514 15 518 c 1,27,28
 87 516 87 516 118 516 c 0,29,30
 148 516 148 516 222 518 c 1,31,32
 225 515 225 515 226 504 c 0,33,34
 226 494 226 494 222 491 c 1,35,36
 177 489 177 489 165 477.5 c 128,-1,37
 153 466 153 466 153 418 c 2,38,-1
 153 278 l 1,39,40
 191 281 191 281 216 309 c 2,41,-1
 348 450 l 2,42,43
 363 466 363 466 363 475 c 0,44,45
 363 488 363 488 326 491 c 1,46,47
 322 495 322 495 322 504 c 0,48,49
 322 514 322 514 326 518 c 1,50,51
 385 516 385 516 416 516 c 0,52,53
 442 516 442 516 492 518 c 1,54,55
 496 514 496 514 496 504 c 0,56,57
 496 495 496 495 492 491 c 1,58,59
 471 489 471 489 458.5 487 c 128,-1,60
 446 485 446 485 427.5 475 c 128,-1,61
 409 465 409 465 391 446 c 2,62,-1
 274 326 l 2,63,64
 246 297 246 297 246 286 c 0,65,66
 246 278 246 278 256 266 c 2,67,-1
 431 58 l 2,68,69
 442 44 442 44 456 37 c 128,-1,70
 470 30 470 30 478 28 c 128,-1,71
 486 26 486 26 502 25 c 1,72,73
 506 21 506 21 506 11 c 0,74,75
 506 2 506 2 502 -2 c 1,76,77
 449 0 449 0 421 0 c 0,78,79
 410 0 410 0 378 -2 c 0,80,81
 374 -2 374 -2 374 3 c 0,82,83
 372 25 372 25 345 58 c 2,84,-1
 219 217 l 2,85,86
 197 246 197 246 153 247 c 1,87,-1
 153 98 l 2,0,1
EndSplineSet
Validated: 19457
EndChar

StartChar: L
Encoding: 76 76 11
Width: 416
VWidth: 800
Flags: W
HStem: 0 31<164 320> 0 25<11 71> 491 26<11 72 166 226>
VStem: 85 68<44 478> 379 26<101 136>
LayerCount: 3
Fore
SplineSet
119.2 0 m 2x78
 92 0 46.4004 -0.799805 15.2002 -1.59961 c 1
 12.7998 0.799805 11.2002 6.40039 11.2002 11.2002 c 0
 11.2002 16.7998 12.7998 22.4004 15.2002 24.7998 c 1xb8
 71.2002 27.2002 84.7998 31.2002 84.7998 97.5996 c 2
 84.7998 418.4 l 2
 84.7998 484.8 71.2002 488.8 15.2002 491.2 c 1
 12.7998 493.6 11.2002 499.2 11.2002 504 c 0
 11.2002 509.6 12.7998 515.2 15.2002 517.6 c 1
 52 516.8 89.5996 516 118.4 516 c 0
 148.8 516 186.4 516.8 222.4 517.6 c 1
 224.8 515.2 225.6 509.6 225.6 504 c 0
 225.6 499.2 224.8 493.6 222.4 491.2 c 1
 166.4 488.8 152.8 484.8 152.8 418.4 c 2
 152.8 87.2002 l 2
 152.8 46.4004 167.2 31.2002 198.4 31.2002 c 2
 248.8 31.2002 l 2x78
 333.6 31.2002 363.2 78.4004 379.2 136 c 1
 381.6 136 384 136.8 386.4 136.8 c 0
 393.6 136.8 400 135.2 405.6 132 c 1
 400.8 90.4004 392.8 38.4004 384.8 -1.59961 c 1xb8
 384.8 -1.59961 311.2 0 289.6 0 c 2
 119.2 0 l 2x78
EndSplineSet
Validated: 1
Layer: 2
SplineSet
379 136 m 1,0,-1
 386 137 l 1,1,2
 396 137 396 137 406 132 c 1,3,4
 398 64 398 64 385 0 c 1,5,6
 348 1 348 1 324 1 c 0,7,8
 301 1 301 1 290 0 c 2,9,-1
 119 0 l 2,10,11
 98 1 98 1 72 1 c 128,-1,12
 46 1 46 1 15 0 c 1,13,14
 11 4 11 4 11 12.5 c 128,-1,15
 11 21 11 21 15 25 c 1,16,17
 60 27 60 27 72.5 38.5 c 128,-1,18
 85 50 85 50 85 98 c 2,19,-1
 85 418 l 2,20,21
 85 466 85 466 72.5 478 c 128,-1,22
 60 490 60 490 15 491 c 1,23,24
 11 495 11 495 11 504.5 c 128,-1,25
 11 514 11 514 15 518 c 1,26,27
 89 516 89 516 119.5 516 c 128,-1,28
 150 516 150 516 222 518 c 1,29,30
 225 515 225 515 225.5 504.5 c 128,-1,31
 226 494 226 494 222 491 c 1,32,33
 177 489 177 489 165 477.5 c 128,-1,34
 153 466 153 466 153 418 c 2,35,-1
 153 87 l 2,36,37
 153 57 153 57 163.5 44 c 128,-1,38
 174 31 174 31 198 31 c 2,39,-1
 249 31 l 2,40,41
 307 31 307 31 336 58.5 c 128,-1,42
 365 86 365 86 379 136 c 1,0,-1
EndSplineSet
Validated: 19457
EndChar

StartChar: N
Encoding: 78 78 12
Width: 566
VWidth: 800
Flags: W
HStem: -8 17G<457 475> 0 25<8 62 139 194> 491 26<14 54 371 419 502 557>
VStem: 82 39<43 390> 445 39<124 473>
DStem2: 126 516 154 364 0.620566 -0.784154<99.1328 501.411>
LayerCount: 3
Fore
SplineSet
443.2 411.2 m 2x78
 443.2 484.8 431.2 485.6 375.2 491.2 c 1
 372.8 493.6 371.2 499.2 371.2 504 c 0
 371.2 509.6 372.8 515.2 375.2 517.6 c 1
 410.4 516.8 447.2 516 464 516 c 0
 483.2 516 520.8 516.8 553.6 517.6 c 1
 556 515.2 556.8 509.6 556.8 504 c 0
 556.8 499.2 556 493.6 553.6 491.2 c 1
 497.6 485.6 484 480.8 484 409.6 c 2
 484 16.7998 l 2
 484 1.59961 476.8 -8 465.6 -8 c 0xb8
 452.8 -8 442.4 -0.799805 433.6 11.2002 c 2
 154.4 364 l 2
 140.8 381.6 132 390.4 127.2 390.4 c 0
 120.8 390.4 120.8 378.4 120.8 351.2 c 2
 120.8 106.4 l 2
 120.8 33.5996 134.4 30.4004 190.4 24.7998 c 1
 192.8 22.4004 193.6 16.7998 193.6 11.2002 c 0
 193.6 6.40039 192.8 2.40039 190.4 0 c 1
 179.2 0 168 0 156.8 0 c 0
 134.4 0 113.6 0 101.6 0 c 0
 88.7998 0 68.7998 0 46.4004 0 c 0
 35.2002 0 23.2002 0 12 0 c 1
 9.59961 2.40039 8 6.40039 8 11.2002 c 0
 8 16.7998 9.59961 22.4004 12 24.7998 c 1
 68 30.4004 81.5996 35.2002 81.5996 106.4 c 2
 81.5996 440 l 1
 76.7998 460.8 52.7998 488.8 18.4004 491.2 c 1
 16 493.6 14.4004 499.2 14.4004 504 c 0
 14.4004 509.6 16 515.2 18.4004 517.6 c 1
 126.4 516 l 1
 400.8 168 l 2
 424 138.4 436 124 439.2 124 c 0
 444.8 124 444.8 132.8 444.8 148 c 2
 443.2 411.2 l 2x78
EndSplineSet
Validated: 1
Layer: 2
SplineSet
443 411 m 2,0,1
 443 448 443 448 436.5 464 c 128,-1,2
 430 480 430 480 419 484 c 128,-1,3
 408 488 408 488 375 491 c 1,4,5
 371 495 371 495 371 504 c 0,6,7
 371 514 371 514 375 518 c 1,8,9
 445 516 445 516 464 516 c 0,10,11
 488 516 488 516 554 518 c 1,12,13
 557 515 557 515 557 504 c 0,14,15
 557 494 557 494 554 491 c 1,16,17
 509 486 509 486 496.5 473.5 c 128,-1,18
 484 461 484 461 484 410 c 2,19,-1
 484 17 l 2,20,21
 484 -8 484 -8 466 -8 c 128,-1,22
 448 -8 448 -8 434 11 c 2,23,-1
 154 364 l 2,24,25
 134 390 134 390 127 390 c 0,26,27
 121 390 121 390 121 351 c 2,28,-1
 121 106 l 2,29,30
 121 78 121 78 123.5 63.5 c 128,-1,31
 126 49 126 49 135.5 40.5 c 128,-1,32
 145 32 145 32 155.5 29.5 c 128,-1,33
 166 27 166 27 190 25 c 1,34,35
 193 22 193 22 194 11 c 0,36,37
 194 3 194 3 190 0 c 1,38,-1
 157 0 l 1,39,-1
 102 0 l 1,40,-1
 46 0 l 1,41,-1
 12 0 l 1,42,43
 8 4 8 4 8 11 c 0,44,45
 8 21 8 21 12 25 c 1,46,47
 57 30 57 30 69.5 42.5 c 128,-1,48
 82 55 82 55 82 106 c 2,49,-1
 82 440 l 1,50,51
 78 458 78 458 60 474 c 128,-1,52
 42 490 42 490 18 491 c 1,53,54
 14 495 14 495 14 504 c 0,55,56
 14 514 14 514 18 518 c 1,57,-1
 126 516 l 1,58,-1
 401 168 l 2,59,60
 435 124 435 124 439 124 c 0,61,62
 445 124 445 124 445 148 c 2,63,-1
 443 411 l 2,0,1
EndSplineSet
Validated: 19457
EndChar

StartChar: R
Encoding: 82 82 13
Width: 485
VWidth: 800
Flags: W
HStem: -8 25<432 469> -2 26<10 70 164 224> 233 27<151 227> 494 27<10 67 168 278>
VStem: 83 68<38 233 260 478> 324 74<316 451>
DStem2: 291 246 245 202 0.514496 -0.857493<0.258322 251.381>
LayerCount: 3
Fore
SplineSet
217.6 494.4 m 0x3c
 160.8 494.4 151.2 466.4 151.2 443.2 c 2
 151.2 260 l 1
 189.6 260 l 2
 267.2 260 324 282.4 324 382.4 c 0
 324 476.8 266.4 494.4 217.6 494.4 c 0x3c
151.2 97.5996 m 2
 151.2 31.2002 164.8 27.2002 220.8 24.7998 c 1
 223.2 22.4004 224 16.7998 224 11.2002 c 0
 224 6.40039 223.2 0.799805 220.8 -1.59961 c 1
 185.6 -0.799805 148 0 117.6 0 c 0
 86.4004 0 49.5996 -0.799805 13.5996 -1.59961 c 1
 11.2002 0.799805 9.59961 6.40039 9.59961 11.2002 c 0
 9.59961 16.7998 11.2002 22.4004 13.5996 24.7998 c 1x7c
 69.5996 27.2002 83.2002 31.2002 83.2002 97.5996 c 2
 83.2002 418.4 l 2
 83.2002 484.8 69.5996 488.8 13.5996 491.2 c 1
 11.2002 493.6 9.59961 499.2 9.59961 504 c 0
 9.59961 509.6 11.2002 515.2 13.5996 517.6 c 1
 51.2002 516.8 88.7998 516 116.8 516 c 0
 145.6 516 179.2 521.6 216.8 521.6 c 0
 267.2 521.6 316.8 519.2 355.2 483.2 c 0
 384 456 397.6 423.2 397.6 383.2 c 0
 397.6 299.2 325.6 257.6 291.2 246.4 c 1
 392 78.4004 l 2
 412.8 44 432.8 16.7998 468.8 16.7998 c 1
 470.4 13.5996 471.2 9.59961 471.2 5.59961 c 0
 471.2 3.2002 471.2 0 469.6 -2.40039 c 1
 461.6 -6.40039 448 -8 436 -8 c 0xbc
 388 -8 353.6 25.5996 330.4 63.2002 c 2
 244.8 202.4 l 2
 233.6 220.8 218.4 232.8 151.2 232.8 c 1
 151.2 97.5996 l 2
EndSplineSet
Validated: 1
Layer: 2
SplineSet
218 494 m 0,0,1
 152 494 152 494 151 443 c 2,2,-1
 151 260 l 1,3,-1
 190 260 l 2,4,5
 255 260 255 260 289.5 286.5 c 128,-1,6
 324 313 324 313 324 382 c 0,7,8
 324 494 324 494 218 494 c 0,0,1
151 98 m 2,9,10
 151 50 151 50 163.5 38 c 128,-1,11
 176 26 176 26 221 25 c 1,12,13
 224 22 224 22 224 11 c 0,14,15
 224 1 224 1 221 -2 c 1,16,17
 151 0 151 0 118 0 c 0,18,19
 86 0 86 0 14 -2 c 1,20,21
 10 2 10 2 10 11 c 0,22,23
 10 21 10 21 14 25 c 1,24,25
 59 27 59 27 71 38.5 c 128,-1,26
 83 50 83 50 83 98 c 2,27,-1
 83 418 l 2,28,29
 83 466 83 466 70.5 478 c 128,-1,30
 58 490 58 490 14 491 c 1,31,32
 10 495 10 495 10 504 c 0,33,34
 10 514 10 514 14 518 c 1,35,36
 89 516 89 516 117 516 c 0,37,38
 131 516 131 516 164 519 c 128,-1,39
 197 522 197 522 217 522 c 0,40,41
 264 522 264 522 297 514.5 c 128,-1,42
 330 507 330 507 355 483 c 0,43,44
 397 443 397 443 398 383 c 0,45,46
 398 328 398 328 363 293 c 128,-1,47
 328 258 328 258 291 246 c 1,48,-1
 392 78 l 2,49,50
 410 48 410 48 427 32.5 c 128,-1,51
 444 17 444 17 469 17 c 1,52,53
 471 12 471 12 471 6 c 128,-1,54
 471 0 471 0 470 -2 c 1,55,56
 459 -8 459 -8 436 -8 c 0,57,58
 374 -8 374 -8 330 63 c 2,59,-1
 245 202 l 2,60,61
 235 218 235 218 216.5 225.5 c 128,-1,62
 198 233 198 233 151 233 c 1,63,-1
 151 98 l 2,9,10
EndSplineSet
Validated: 19457
EndChar

StartChar: S
Encoding: 83 83 14
Width: 376
VWidth: 800
Flags: W
HStem: -8 29<119 247> 499 27<141 246>
VStem: 22 26<96 136> 41 57<360 456> 288 67<79 182> 304 26<396 430>
DStem2: 193 307 181 238 0.908576 -0.41772<-95.7144 128.734>
LayerCount: 3
Fore
SplineSet
313.6 506.4 m 1xd8
 321.6 464 327.2 440 329.6 401.6 c 1
 324.8 397.6 318.4 396 312 396 c 0
 308.8 396 306.4 396 304 396.8 c 1
 288 449.6 263.2 499.2 185.6 499.2 c 0
 138.4 499.2 97.5996 454.4 97.5996 409.6 c 0xd4
 97.5996 342.4 177.6 312 225.6 294.4 c 0
 291.2 269.6 355.2 232 355.2 147.2 c 0
 355.2 96 326.4 47.2002 280 18.4004 c 0
 252 0.799805 217.6 -8 181.6 -8 c 0
 110.4 -8 88 10.4004 37.5996 10.4004 c 1
 28 49.5996 24.7998 70.4004 21.5996 132 c 1
 26.4004 134.4 31.2002 136 36.7998 136 c 0
 40.7998 136 44 135.2 48 134.4 c 1xe8
 65.5996 54.4004 113.6 20.7998 188 20.7998 c 0
 252 20.7998 288 54.4004 288 119.2 c 0
 288 197.6 228.8 220 180.8 238.4 c 0
 110.4 265.6 40.7998 304 40.7998 388 c 0
 40.7998 472.8 112 526.4 192.8 526.4 c 0
 271.2 526.4 267.2 512.8 313.6 506.4 c 1xd8
EndSplineSet
Validated: 1
Layer: 2
SplineSet
314 506 m 1,0,1
 328 431 328 431 330 402 c 1,2,3
 324 396 324 396 312 396 c 0,4,5
 306 396 306 396 304 397 c 1,6,7
 290 445 290 445 264 472 c 128,-1,8
 238 499 238 499 186 499 c 0,9,10
 151 499 151 499 124.5 471.5 c 128,-1,11
 98 444 98 444 98 410 c 0,12,13
 98 391 98 391 107 373.5 c 128,-1,14
 116 356 116 356 128 345 c 128,-1,15
 140 334 140 334 160.5 323 c 128,-1,16
 181 312 181 312 193.5 307 c 128,-1,17
 206 302 206 302 226 294 c 0,18,19
 285 272 285 272 320 238.5 c 128,-1,20
 355 205 355 205 355 147 c 0,21,22
 355 109 355 109 335 74.5 c 128,-1,23
 315 40 315 40 280 18 c 0,24,25
 238 -8 238 -8 182 -8 c 0,26,27
 144 -8 144 -8 102 1 c 128,-1,28
 60 10 60 10 38 10 c 1,29,30
 26 60 26 60 22 132 c 1,31,32
 30 136 30 136 37 136 c 0,33,34
 40 136 40 136 48 134 c 1,35,36
 73 21 73 21 186 21 c 0,37,38
 187 21 187 21 188 21 c 0,39,40
 236 21 236 21 262 46 c 128,-1,41
 288 71 288 71 288 119 c 0,42,43
 288 147 288 147 279 167.5 c 128,-1,44
 270 188 270 188 251 202 c 128,-1,45
 232 216 232 216 219 222.5 c 128,-1,46
 206 229 206 229 181 238 c 0,47,48
 116 263 116 263 78.5 297 c 128,-1,49
 41 331 41 331 41 388 c 0,50,51
 41 450 41 450 85.5 488 c 128,-1,52
 130 526 130 526 193 526 c 0,53,54
 239 526 239 526 271.5 517 c 128,-1,55
 304 508 304 508 314 506 c 1,0,1
EndSplineSet
Validated: 3073
EndChar

StartChar: uniA64A
Encoding: 42570 42570 15
Width: 603
VWidth: 800
GlyphClass: 2
Flags: W
HStem: -8 5<285 301> -6 8<166 232 366 437> 9 50<323 443> 10 40<180 274> 58 6<207 246> 66 5<367 410> 87 64<83 166 465 549> 101 54<128 179 451 505> 101 6<347 384> 105 4<301 315> 117 15<346 370> 121 17<254 280 378 380> 140 10<254 273> 159 6<204 233> 213 5<377 416> 221 6<230 269> 227 33<371 445> 234 33<197 277> 268 6<402 462> 276 7<183 249> 370 4<281 295> 377 8<199 251> 391 7<304 312> 392 122<195 242> 398 71<313 404> 398 43<286 388> 531 6<147 164> 543 39<134 176> 586 56<130 207> 642 11<442 465> 668 34<432 476> 682 5<233 243> 699 3<563 571> 730 4<565 574> 756 22<48 66> 785 6<60 124> 800 6<203 251 446 471> 809 4<141 156> 834 6<509 533>
VStem: 54 7<112 149> 69 111<101 151> 85 78<161 203> 100 6<601 628> 116 6<559 586> 131 5<788 805> 162 5<792 804> 171 6<160 177> 175 40<683 747> 180 6<414 471> 186 6<111 145> 194 46<432 500> 198 6<144 160> 226 6<687 731> 262 2<555 558> 270 5<379 388> 275 6<-0 13> 284 6<587 622> 300 5<378 393> 306 6<1 14> 318 4<112 117> 322 29<160 183> 361 5<187 208> 407 6<130 150> 428 6<428 467> 437 6<115 144> 449 116<104 147> 470 6<583 631> 484 25<580 648> 494 24<542 573> 520 36<593 690> 526 6<508 543> 542 10<713 722> 565 6<635 683 742 800> 572 6<118 149> 578 5<709 725>
DStem2: 290 263 294 257 0.177042 0.984203<0 129.944 225.039 472.598> 305 270 357 270 0.179418 0.983773<-46.0503 10.1167 218.607 405.682> 363 257 370 262 0.177153 0.984183<5.85785 135.224 240.923 383.177> 561 158 566 160 0.0995037 0.995037<1.60318 20.5623>
AnchorPoint: "Diacritic" 339 891 basechar 0
LayerCount: 3
Fore
SplineSet
159.2 788.8 m 1
 160.8 791.2 161.6 793.6 161.6 796.8 c 0
 161.6 803.2 156 808.8 148.8 808.8 c 0
 140.8 808.8 136 802.4 136 796 c 0
 136 791.2 138.4 787.2 141.6 784.8 c 1
 144.8 784 147.2 783.2 149.6 782.4 c 1
 152 784.8 155.2 786.4 159.2 788.8 c 1
554.4 728.8 m 1
 563.2 740.8 567.2 756 567.2 771.2 c 0
 567.2 802.4 548.8 833.6 517.6 833.6 c 0
 515.2 833.6 512 833.6 509.6 832.8 c 1
 498.4 792.8 452.8 808.8 416 785.6 c 0
 380.8 764 368.8 668 367.2 660.8 c 2
 332.8 480 l 1
 304 480 282.4 516.8 268 568 c 0
 268 570.4 268 571.2 268.8 572 c 0
 279.2 579.2 284 592 284 604 c 0
 284 617.6 278.4 630.4 268 635.2 c 0
 265.6 636 265.6 636.8 265.6 639.2 c 0
 265.6 640.8 265.6 643.2 265.6 644.8 c 0
 265.6 664.8 250.4 682.4 231.2 682.4 c 0
 230.4 682.4 230.4 682.4 229.6 682.4 c 0
 226.4 692.8 225.6 702.4 225.6 711.2 c 0
 225.6 744.8 244 769.6 274.4 780 c 1
 267.2 794.4 248.8 800 228.8 800 c 0
 200 800 165.6 788 150.4 776 c 1
 134.4 780.8 111.2 784.8 88.7998 784.8 c 0
 57.5996 784.8 28 776.8 26.4004 750.4 c 1
 81.5996 740 104.8 692 122.4 649.6 c 0
 123.2 648 123.2 647.2 120.8 645.6 c 0
 110.4 640 105.6 628 105.6 616.8 c 0
 105.6 604 111.2 592 123.2 589.6 c 0
 126.4 589.6 126.4 588 124.8 584.8 c 0
 123.2 581.6 122.4 577.6 122.4 573.6 c 0
 122.4 556 141.6 536.8 160 536.8 c 0
 161.6 536.8 163.2 537.6 164.8 537.6 c 0
 166.4 537.6 167.2 537.6 168 536 c 0
 179.2 497.6 185.6 464 185.6 438.4 c 0
 185.6 421.6 183.2 408 176.8 400 c 1
 189.6 389.6 206.4 384.8 224 384.8 c 0
 246.4 384.8 268.8 392.8 284.8 406.4 c 0
 285.6 407.2 287.2 407.2 288 406.4 c 0
 294.4 402.4 309.6 398.4 316 398.4 c 0
 318.4 398.4 318.4 396.8 318.4 394.4 c 2
 294.4 256.8 l 2
 293.6 253.6 291.2 252.8 289.6 254.4 c 0
 269.6 269.6 244 276 217.6 276 c 0
 155.2 276 87.2002 235.2 76 161.6 c 1
 67.2002 156 61.5996 143.2 61.5996 129.6 c 0
 61.5996 117.6 66.4004 105.6 76 100 c 1
 92 34.4004 141.6 2.40039 199.2 2.40039 c 0
 229.6 2.40039 261.6 11.2002 292 28.7998 c 0
 293.6 29.5996 295.2 29.5996 296 28.7998 c 0
 333.6 10.4004 369.6 2.40039 402.4 2.40039 c 0
 470.4 2.40039 524.8 37.5996 548 96 c 1
 563.2 102.4 572 119.2 572 134.4 c 0
 572 144 568 152.8 560.8 157.6 c 1
 560.8 160 561.6 162.4 561.6 164.8 c 0
 561.6 217.6 500 268 431.2 268 c 0
 410.4 268 388.8 263.2 368 252.8 c 0
 364.8 250.4 362.4 252.8 363.2 256.8 c 2
 388.8 393.6 l 1
 414.4 397.6 428 423.2 428 447.2 c 0
 428 464 421.6 480.8 406.4 488.8 c 0
 405.6 489.6 405.6 490.4 405.6 492.8 c 2
 428 616.8 l 2
 432 642.4 443.2 653.6 453.6 653.6 c 0
 464.8 653.6 476 640 476 615.2 c 0
 476 553.6 496 514.4 527.2 508 c 1
 527.2 512 526.4 516 526.4 520 c 0
 526.4 578.4 564.8 600 564.8 656.8 c 0
 564.8 680.8 556 704.8 544 712.8 c 0
 537.6 717.6 548 722.4 550.4 724.8 c 0
 551.2 726.4 552.8 728 554.4 728.8 c 1
518.4 520 m 1
 498.4 528.8 484 576 484 615.2 c 0
 484 652 469.6 668 456 668 c 0
 440.8 668 424.8 648.8 419.2 616.8 c 2
 396.8 488.8 l 1
 391.2 481.6 371.2 476.8 356 476.8 c 0
 350.4 476.8 345.6 477.6 342.4 479.2 c 1
 376 660 l 2
 384.8 708 395.2 755.2 420.8 779.2 c 0
 440 796.8 496 784 516.8 824.8 c 0
 517.6 824.8 518.4 824.8 519.2 824.8 c 0
 543.2 824.8 558.4 801.6 558.4 775.2 c 0
 558.4 752 546.4 727.2 518.4 716 c 1
 544 707.2 556 685.6 556 659.2 c 0
 556 602.4 518.4 576 518.4 520 c 1
260 782.4 m 1
 228 768 215.2 736.8 215.2 707.2 c 0
 215.2 698.4 216 690.4 218.4 682.4 c 1
 196.8 663.2 173.6 652.8 145.6 652.8 c 0
 140 652.8 134.4 652.8 128.8 653.6 c 1
 117.6 691.2 84 749.6 36.7998 756 c 1
 36.7998 771.2 53.5996 777.6 76 777.6 c 0
 103.2 777.6 136.8 768 156.8 752.8 c 1
 165.6 777.6 205.6 792.8 233.6 792.8 c 0
 246.4 792.8 256.8 789.6 260 782.4 c 1
227.2 674.4 m 0
 241.6 674.4 257.6 663.2 257.6 648.8 c 0
 257.6 627.2 225.6 604.8 204.8 596.8 c 0
 188 590.4 171.2 586.4 156 586.4 c 0
 137.6 586.4 115.2 595.2 115.2 617.6 c 0
 115.2 630.4 123.2 641.6 132 644.8 c 1
 136.8 643.2 142.4 642.4 148.8 642.4 c 0
 175.2 642.4 211.2 656.8 224.8 674.4 c 0
 225.6 674.4 226.4 674.4 227.2 674.4 c 0
260.8 629.6 m 1
 271.2 624 275.2 616 275.2 608 c 0
 275.2 595.2 267.2 581.6 257.6 572 c 1
 257.6 538.4 240 522.4 218.4 522.4 c 0
 204 522.4 188.8 529.6 176 544 c 1
 173.6 544 171.2 543.2 168.8 543.2 c 0
 149.6 543.2 131.2 556 131.2 572 c 0
 131.2 575.2 132 579.2 133.6 582.4 c 1
 142.4 580.8 150.4 580 159.2 580 c 0
 203.2 580 242.4 601.6 260.8 629.6 c 1
418.4 446.4 m 0
 418.4 410.4 389.6 398.4 356.8 398.4 c 0
 330.4 398.4 301.6 406.4 284.8 416.8 c 1
 268.8 401.6 247.2 392 225.6 392 c 0
 212.8 392 200 395.2 188 402.4 c 1
 192.8 413.6 194.4 428 194.4 442.4 c 0
 194.4 470.4 187.2 502.4 176.8 529.6 c 1
 178.4 529.6 179.2 531.2 180 531.2 c 0
 188 520.8 203.2 514.4 217.6 514.4 c 0
 238.4 514.4 259.2 527.2 262.4 558.4 c 1
 264 558.4 264 558.4 264.8 558.4 c 0
 284 486.4 312.8 469.6 348.8 469.6 c 0
 368.8 469.6 387.2 473.6 400.8 480.8 c 1
 414.4 476.8 418.4 461.6 418.4 446.4 c 0
552 161.6 m 0
 544.8 156.8 528.8 154.4 513.6 154.4 c 0
 496 154.4 477.6 157.6 469.6 163.2 c 1
 466.4 194.4 441.6 227.2 397.6 227.2 c 0
 386.4 227.2 373.6 224.8 359.2 220 c 1
 359.2 227.2 360 233.6 360 236.8 c 1
 381.6 252.8 407.2 260 432 260 c 0
 492.8 260 552 219.2 552 164 c 0
 552 163.2 552 162.4 552 161.6 c 0
502.4 90.4004 m 0
 480 90.4004 448.8 104.8 448.8 127.2 c 0
 448.8 140.8 458.4 150.4 468 155.2 c 1
 480 150.4 496.8 147.2 513.6 147.2 c 0
 528 147.2 542.4 149.6 552.8 153.6 c 1
 560.8 147.2 564.8 142.4 564.8 134.4 c 0
 564.8 105.6 531.2 90.4004 502.4 90.4004 c 0
395.2 140 m 1
 387.2 124 375.2 116.8 361.6 116.8 c 0
 344 116.8 324.8 129.6 311.2 150.4 c 1
 294.4 132.8 272 120.8 253.6 120.8 c 0
 236.8 120.8 223.2 129.6 217.6 150.4 c 1
 220.8 149.6 223.2 149.6 226.4 149.6 c 0
 278.4 149.6 296.8 224.8 304.8 269.6 c 2
 328 393.6 l 1
 333.6 392 344 391.2 354.4 391.2 c 0
 362.4 391.2 371.2 392 378.4 393.6 c 1
 356.8 270.4 l 2
 354.4 256 351.2 234.4 351.2 213.6 c 0
 351.2 179.2 360 145.6 395.2 140 c 1
461.6 159.2 m 1
 448.8 153.6 442.4 140.8 442.4 128.8 c 0
 442.4 119.2 446.4 109.6 453.6 104 c 1
 441.6 77.5996 416 66.4004 388 66.4004 c 0
 360.8 66.4004 331.2 76.7998 308.8 96 c 0
 308 97.5996 304 98.4004 302.4 96 c 0
 289.6 76.7998 256 58.4004 224.8 58.4004 c 0
 202.4 58.4004 181.6 68 171.2 95.2002 c 0
 170.4 97.5996 173.6 99.2002 175.2 100 c 0
 182.4 106.4 186.4 117.6 186.4 128.8 c 0
 186.4 140.8 181.6 152 171.2 159.2 c 0
 171.2 160 171.2 160.8 171.2 161.6 c 0
 171.2 196.8 214.4 227.2 252 227.2 c 0
 258.4 227.2 281.6 224.8 281.6 217.6 c 0
 281.6 180.8 239.2 159.2 212.8 159.2 c 0
 210.4 159.2 207.2 160 204 160 c 1
 204.8 134.4 225.6 111.2 255.2 111.2 c 0
 268 111.2 281.6 115.2 296 124 c 1
 299.2 128.8 308 136 312.8 131.2 c 1
 315.2 130.4 316.8 128 318.4 126.4 c 0
 334.4 113.6 352 107.2 367.2 107.2 c 0
 389.6 107.2 407.2 120.8 407.2 146.4 c 0
 407.2 147.2 407.2 148.8 407.2 149.6 c 0
 375.2 153.6 360.8 174.4 360.8 206.4 c 0
 360.8 208 360.8 209.6 360.8 211.2 c 1
 372.8 216 384.8 217.6 395.2 217.6 c 0
 432 217.6 459.2 194.4 461.6 159.2 c 1
290.4 243.2 m 1
 290.4 239.2 287.2 230.4 285.6 227.2 c 1
 274.4 232 262.4 234.4 250.4 234.4 c 0
 209.6 234.4 168.8 207.2 163.2 166.4 c 1
 156 161.6 141.6 158.4 126.4 158.4 c 0
 110.4 158.4 93.5996 161.6 84.7998 168 c 1
 101.6 235.2 155.2 267.2 210.4 267.2 c 0
 237.6 267.2 266.4 259.2 290.4 243.2 c 1
534.4 87.2002 m 1
 502.4 33.5996 455.2 8.7998 402.4 8.7998 c 0
 368 8.7998 331.2 20 295.2 40 c 1
 267.2 20 232.8 9.59961 200 9.59961 c 0
 148 9.59961 100 36 88 90.4004 c 1
 100.8 82.4004 113.6 79.2002 126.4 79.2002 c 0
 140 79.2002 153.6 83.2002 164.8 89.5996 c 1
 177.6 60.7998 200.8 49.5996 225.6 49.5996 c 0
 254.4 49.5996 285.6 65.5996 304.8 85.5996 c 1
 331.2 68 361.6 58.4004 388.8 58.4004 c 0
 419.2 58.4004 445.6 69.5996 459.2 96 c 1
 473.6 87.2002 487.2 81.5996 504 81.5996 c 0
 512.8 81.5996 523.2 83.2002 534.4 87.2002 c 1
180 129.6 m 0
 180 99.2002 147.2 87.2002 126.4 87.2002 c 0
 107.2 87.2002 68.7998 102.4 68.7998 129.6 c 0
 68.7998 142.4 76 154.4 84.7998 158.4 c 1
 96 153.6 110.4 151.2 125.6 151.2 c 0
 139.2 151.2 152.8 153.6 162.4 157.6 c 1
 172 152.8 180 141.6 180 129.6 c 0
510.4 583.2 m 0
 513.6 609.6 520 626.4 520 652 c 0
 520 684 488 708.8 457.6 708.8 c 0
 442.4 708.8 424.8 704 412.8 689.6 c 1
 419.2 716 428 743.2 448 755.2 c 0
 470.4 768 490.4 760 515.2 772.8 c 0
 519.2 775.2 519.2 776 515.2 775.2 c 0
 492 765.6 467.2 773.6 444.8 760.8 c 1
 416.8 746.4 408 699.2 403.2 668.8 c 0
 402.4 664.8 408 662.4 409.6 666.4 c 0
 418.4 695.2 441.6 702.4 459.2 702.4 c 0
 484.8 702.4 513.6 684.8 514.4 648 c 0
 514.4 627.2 508.8 610.4 508.8 587.2 c 0
 508.8 586.4 508.8 584.8 508.8 583.2 c 0
 508.8 579.2 510.4 579.2 510.4 583.2 c 0
214.4 768 m 0
 218.4 769.6 217.6 772 213.6 769.6 c 0
 188.8 759.2 170.4 730.4 169.6 695.2 c 1
 153.6 722.4 124.8 746.4 89.5996 756 c 0
 85.5996 756.8 84.7998 755.2 88.7998 754.4 c 0
 126.4 741.6 154.4 711.2 167.2 680.8 c 0
 169.6 676.8 175.2 677.6 175.2 681.6 c 0
 175.2 682.4 175.2 683.2 175.2 684.8 c 0
 175.2 722.4 190.4 755.2 214.4 768 c 0
311.2 443.2 m 0
 286.4 448 256.8 464 239.2 499.2 c 0
 236.8 503.2 230.4 499.2 232 495.2 c 0
 236.8 481.6 240 468 240 455.2 c 0
 240 439.2 236 424.8 226.4 416.8 c 0
 222.4 413.6 222.4 412 226.4 415.2 c 0
 240 424 246.4 441.6 246.4 461.6 c 0
 246.4 466.4 245.6 471.2 244.8 476.8 c 1
 264 453.6 286.4 443.2 309.6 441.6 c 0
 313.6 441.6 314.4 442.4 311.2 443.2 c 0
367.2 132 m 0
 371.2 132 372 132.8 368 133.6 c 0
 340.8 138.4 324.8 176.8 322.4 207.2 c 0
 322.4 211.2 317.6 212 316.8 208.8 c 0
 308 180.8 280.8 141.6 256.8 140 c 0
 252.8 140 252.8 137.6 256.8 137.6 c 0
 257.6 137.6 257.6 137.6 258.4 137.6 c 0
 280.8 137.6 305.6 167.2 317.6 193.6 c 1
 322.4 162.4 339.2 134.4 367.2 132 c 0
456.8 162.4 m 1
 453.6 192.8 428.8 212.8 396 212.8 c 0
 386.4 212.8 376 211.2 365.6 207.2 c 0
 365.6 206.4 365.6 205.6 365.6 204.8 c 0
 365.6 176 380.8 158.4 410.4 155.2 c 0
 412 155.2 412.8 154.4 412.8 152 c 0
 412.8 150.4 412.8 148.8 412.8 147.2 c 0
 412.8 116.8 392.8 100.8 368 100.8 c 0
 353.6 100.8 336.8 106.4 321.6 116.8 c 1
 321.6 110.4 314.4 104.8 308 104.8 c 0
 301.6 104.8 296 110.4 294.4 116.8 c 1
 280.8 108.8 267.2 104.8 255.2 104.8 c 0
 221.6 104.8 197.6 132.8 197.6 161.6 c 0
 197.6 164 197.6 166.4 200.8 166.4 c 0
 204.8 165.6 208.8 165.6 212.8 165.6 c 0
 244 165.6 264.8 184 274.4 215.2 c 1
 267.2 219.2 258.4 220.8 249.6 220.8 c 0
 216.8 220.8 176.8 194.4 176.8 163.2 c 2
 176.8 163.2 176.8 162.4 176.8 161.6 c 0
 187.2 153.6 192.8 140.8 192.8 128 c 0
 192.8 116 188 104 178.4 97.5996 c 1
 185.6 73.5996 204 64 224.8 64 c 0
 252.8 64 285.6 81.5996 298.4 100 c 1
 300 104 309.6 103.2 312.8 100 c 0
 334.4 82.4004 364 71.2002 390.4 71.2002 c 0
 415.2 71.2002 436.8 80 448 102.4 c 1
 440.8 108.8 436.8 119.2 436.8 128.8 c 0
 436.8 141.6 443.2 155.2 456.8 162.4 c 1
280.8 8 m 0
 280.8 0 286.4 -3.2002 292 -3.2002 c 0
 298.4 -3.2002 305.6 0.799805 305.6 9.59961 c 0
 305.6 12 304.8 14.4004 304 16 c 1
 300 17.5996 296 20 292 21.5996 c 1
 289.6 20 287.2 18.4004 284 17.5996 c 1
 282.4 14.4004 280.8 11.2002 280.8 8 c 0
560.8 704 m 1
 562.4 703.2 564 702.4 565.6 702.4 c 0
 572.8 702.4 578.4 710.4 578.4 716.8 c 0
 578.4 724 572.8 729.6 565.6 729.6 c 0
 564.8 729.6 564 729.6 562.4 728.8 c 1
 560 724.8 556.8 720 552.8 716.8 c 0
 552.8 716 552.8 716 552.8 715.2 c 0
 556 712 558.4 708 560.8 704 c 1
583.2 716 m 0
 583.2 707.2 575.2 699.2 564.8 699.2 c 0
 564 699.2 564 699.2 563.2 699.2 c 1
 568 687.2 571.2 672 571.2 656.8 c 0
 571.2 599.2 532 578.4 532 519.2 c 0
 532 514.4 532 510.4 532.8 505.6 c 0
 532.8 503.2 532 502.4 530.4 502.4 c 0
 492.8 505.6 472 548 470.4 615.2 c 0
 469.6 632.8 462.4 642.4 453.6 642.4 c 0
 445.6 642.4 436.8 634.4 433.6 614.4 c 2
 412 493.6 l 1
 428 484.8 434.4 467.2 434.4 448.8 c 0
 434.4 421.6 420 393.6 393.6 388 c 1
 369.6 261.6 l 1
 389.6 270.4 410.4 274.4 430.4 274.4 c 0
 503.2 274.4 567.2 222.4 567.2 168 c 0
 567.2 164.8 566.4 162.4 566.4 160 c 1
 574.4 154.4 578.4 144.8 578.4 134.4 c 0
 578.4 117.6 568 98.4004 552 91.2002 c 1
 528.8 32 472 -4.7998 400.8 -4.7998 c 0
 372.8 -4.7998 342.4 0.799805 310.4 13.5996 c 1
 311.2 12 311.2 10.4004 311.2 8.7998 c 0
 311.2 -0.799805 304 -8 294.4 -8 c 0
 284.8 -8 275.2 -0.799805 275.2 8.7998 c 0
 275.2 10.4004 275.2 12 276 12.7998 c 1
 249.6 0.799805 222.4 -5.59961 197.6 -5.59961 c 0
 138.4 -5.59961 88 28 71.2002 95.2002 c 1
 60 102.4 54.4004 116 54.4004 130.4 c 0
 54.4004 144.8 60.7998 160 71.2002 166.4 c 1
 83.2002 241.6 152.8 283.2 218.4 283.2 c 0
 244 283.2 268.8 276.8 289.6 263.2 c 1
 312 391.2 l 1
 309.6 391.2 306.4 392 303.2 392.8 c 1
 304 390.4 304.8 388 304.8 385.6 c 0
 304.8 375.2 296 369.6 287.2 369.6 c 0
 278.4 369.6 269.6 374.4 269.6 385.6 c 0
 269.6 386.4 269.6 387.2 269.6 388 c 1
 256 380.8 240 376.8 224 376.8 c 0
 204 376.8 184.8 383.2 170.4 396 c 0
 168 398.4 168 399.2 170.4 400.8 c 0
 176.8 407.2 180 420 180 436 c 0
 180 460.8 173.6 494.4 163.2 531.2 c 1
 161.6 531.2 160.8 531.2 159.2 531.2 c 0
 138.4 531.2 116 552 116 574.4 c 0
 116 577.6 116 581.6 117.6 584.8 c 1
 106.4 588.8 100 603.2 100 617.6 c 0
 100 631.2 104.8 644 115.2 651.2 c 1
 97.5996 691.2 76 736.8 24 744 c 0
 20.7998 744 20.7998 746.4 20.7998 748.8 c 0
 20.7998 780 55.2002 790.4 91.2002 790.4 c 0
 106.4 790.4 120.8 788.8 134.4 786.4 c 1
 132 788.8 131.2 792 131.2 795.2 c 0
 131.2 805.6 138.4 812.8 148.8 812.8 c 0
 158.4 812.8 166.4 805.6 166.4 795.2 c 0
 166.4 794.4 166.4 792.8 166.4 792 c 1
 183.2 800 207.2 805.6 228 805.6 c 0
 252.8 805.6 274.4 798.4 281.6 779.2 c 0
 282.4 776.8 281.6 776 279.2 775.2 c 0
 250.4 765.6 231.2 741.6 231.2 708.8 c 0
 231.2 702.4 232 695.2 233.6 687.2 c 0
 234.4 687.2 234.4 687.2 235.2 687.2 c 0
 256 687.2 272 668.8 272 645.6 c 0
 272 644 272 642.4 272 640 c 1
 284 632.8 290.4 617.6 290.4 602.4 c 0
 290.4 588.8 285.6 576 274.4 567.2 c 1
 289.6 524 304 488 328.8 484.8 c 1
 360.8 662.4 l 1
 363.2 669.6 376.8 769.6 412 791.2 c 0
 448 812.8 494.4 797.6 504.8 837.6 c 1
 508.8 838.4 512.8 839.2 516.8 839.2 c 0
 551.2 839.2 573.6 805.6 573.6 769.6 c 0
 573.6 757.6 571.2 744.8 564.8 733.6 c 1
 565.6 733.6 l 2
 575.2 733.6 583.2 725.6 583.2 716 c 0
276 391.2 m 1
 274.4 388.8 274.4 387.2 274.4 384.8 c 0
 274.4 378.4 281.6 373.6 288 373.6 c 0
 294.4 373.6 300 376.8 300 386.4 c 0
 300 389.6 299.2 392.8 296.8 395.2 c 1
 293.6 396 290.4 397.6 287.2 399.2 c 1
 284 396 280 393.6 276 391.2 c 1
308 108.8 m 0
 312.8 108.8 317.6 112.8 317.6 119.2 c 0
 317.6 120.8 310.4 125.6 308.8 127.2 c 1
 305.6 124 302.4 121.6 298.4 119.2 c 1
 298.4 112.8 303.2 108.8 308 108.8 c 0
EndSplineSet
Validated: 1
Layer: 2
SplineSet
159 789 m 1,0,1
 161 793 161 793 161.5 797.5 c 128,-1,2
 162 802 162 802 158 805.5 c 128,-1,3
 154 809 154 809 149 809 c 0,4,5
 136 809 136 809 136 796 c 0,6,7
 136 789 136 789 142 785 c 1,8,9
 145 784 145 784 150 782 c 1,10,11
 151 784 151 784 159 789 c 1,0,1
527 508 m 1,12,-1
 526 520 l 1,13,14
 526 550 526 550 545.5 589.5 c 128,-1,15
 565 629 565 629 565 664 c 128,-1,16
 565 699 565 699 544 713 c 1,17,18
 542 717 542 717 542 717.5 c 128,-1,19
 542 718 542 718 550 725 c 1,20,21
 552 727 552 727 554 729 c 1,22,23
 567 747 567 747 567 771.5 c 128,-1,24
 567 796 567 796 553.5 815 c 128,-1,25
 540 834 540 834 518 834 c 0,26,27
 512 834 512 834 510 833 c 1,28,29
 505 815 505 815 490 808.5 c 128,-1,30
 475 802 475 802 452.5 798 c 128,-1,31
 430 794 430 794 419 787 c 0,32,33
 383 765 383 765 369 670 c 1,34,-1
 333 480 l 1,35,36
 293 480 293 480 268 568 c 1,37,38
 268 571 268 571 269 572 c 0,39,40
 284 582 284 582 284 605 c 128,-1,41
 284 628 284 628 268 635 c 0,42,43
 266 636 266 636 266 639 c 2,44,-1
 266 645 l 2,45,46
 266 660 266 660 256 671 c 128,-1,47
 246 682 246 682 231 682 c 2,48,-1
 230 682 l 1,49,50
 226 695 226 695 226 711 c 0,51,52
 226 763 226 763 274 780 c 1,53,54
 264 800 264 800 229 800 c 0,55,56
 208 800 208 800 185 793 c 128,-1,57
 162 786 162 786 150 776 c 1,58,59
 120 785 120 785 89 785 c 0,60,61
 29 785 29 785 26 750 c 1,62,63
 76 741 76 741 107 684 c 0,64,65
 121 658 121 658 121.5 652 c 128,-1,66
 122 646 122 646 121 646 c 0,67,68
 106 631 106 631 106 615 c 0,69,70
 106 593 106 593 123 590 c 0,71,72
 127 590 127 590 124.5 585 c 128,-1,73
 122 580 122 580 122 570 c 128,-1,74
 122 560 122 560 134 548.5 c 128,-1,75
 146 537 146 537 160 537 c 1,76,-1
 165 538 l 2,77,78
 167 538 167 538 168 536 c 0,79,80
 186 476 186 476 186 443.5 c 128,-1,81
 186 411 186 411 177 400 c 1,82,83
 195 385 195 385 227 385 c 128,-1,84
 259 385 259 385 285 406 c 0,85,86
 287 408 287 408 294 403 c 128,-1,87
 301 398 301 398 316 398 c 0,88,89
 318 398 318 398 318 394 c 2,90,-1
 294 257 l 2,91,92
 292 251 292 251 290 254 c 0,93,94
 261 276 261 276 214 276 c 128,-1,95
 167 276 167 276 125.5 245 c 128,-1,96
 84 214 84 214 76 162 c 1,97,98
 62 153 62 153 62 131 c 128,-1,99
 62 109 62 109 76 100 c 1,100,101
 88 52 88 52 121 27 c 128,-1,102
 154 2 154 2 200 2 c 128,-1,103
 246 2 246 2 292 29 c 0,104,105
 293 30 293 30 296 29 c 0,106,107
 352 2 352 2 402 2 c 0,108,109
 403 2 403 2 404 2 c 0,110,111
 455 2 455 2 492 27 c 0,112,113
 530 53 530 53 548 96 c 1,114,115
 572 106 572 106 572 134 c 0,116,117
 572 150 572 150 561 158 c 1,118,-1
 562 165 l 1,119,120
 562 205 562 205 522 236.5 c 128,-1,121
 482 268 482 268 431 268 c 0,122,123
 398 268 398 268 368 253 c 0,124,125
 366 251 366 251 364 252.5 c 128,-1,126
 362 254 362 254 363 257 c 2,127,-1
 389 394 l 1,128,129
 407 397 407 397 417.5 412.5 c 128,-1,130
 428 428 428 428 428 447 c 0,131,132
 428 477 428 477 406 489 c 0,133,134
 405 490 405 490 406 493 c 2,135,-1
 428 617 l 1,136,137
 434 654 434 654 454 654 c 0,138,139
 463 654 463 654 469.5 643.5 c 128,-1,140
 476 633 476 633 476 615 c 0,141,142
 476 569 476 569 489.5 541 c 128,-1,143
 503 513 503 513 527 508 c 1,12,-1
518 520 m 1,144,145
 504 526 504 526 494 555.5 c 128,-1,146
 484 585 484 585 484 613 c 128,-1,147
 484 641 484 641 475.5 654.5 c 128,-1,148
 467 668 467 668 455.5 668 c 128,-1,149
 444 668 444 668 433.5 654 c 128,-1,150
 423 640 423 640 419 617 c 2,151,-1
 397 489 l 1,152,153
 387 477 387 477 356 477 c 0,154,155
 347 477 347 477 342 479 c 1,156,-1
 376 660 l 2,157,158
 393 754 393 754 421 779 c 0,159,160
 428 785 428 785 448 789 c 0,161,162
 503 798 503 798 517 825 c 1,163,-1
 519 825 l 2,164,165
 537 825 537 825 547.5 810.5 c 128,-1,166
 558 796 558 796 558 775 c 0,167,168
 558 732 558 732 518 716 c 1,169,170
 556 703 556 703 556 659 c 0,171,172
 556 630 556 630 537 589 c 128,-1,173
 518 548 518 548 518 520 c 1,144,145
260 782 m 1,174,175
 215 762 215 762 215 707 c 0,176,177
 215 693 215 693 218 682 c 1,178,179
 185 653 185 653 148 653 c 0,180,181
 147 653 147 653 146 653 c 0,182,183
 135 653 135 653 129 654 c 1,184,185
 119 688 119 688 94 720 c 128,-1,186
 69 752 69 752 37 756 c 1,187,188
 37 778 37 778 80.5 778 c 128,-1,189
 124 778 124 778 157 753 c 1,190,191
 163 771 163 771 186 782 c 128,-1,192
 209 793 209 793 231 793 c 0,193,194
 232 793 232 793 232 792 c 0,195,196
 255 792 255 792 260 782 c 1,174,175
227 674 m 2,197,198
 238 674 238 674 248 666.5 c 128,-1,199
 258 659 258 659 258 646.5 c 128,-1,200
 258 634 258 634 240 619 c 0,201,202
 203 586 203 586 156 586 c 0,203,204
 140 586 140 586 127.5 594 c 128,-1,205
 115 602 115 602 115 620 c 128,-1,206
 115 638 115 638 132 645 c 1,207,208
 142 642 142 642 154 642 c 0,209,210
 154 642 154 642 155 642 c 0,211,212
 170 642 170 642 192 652 c 0,213,214
 215 663 215 663 225 674 c 1,215,-1
 227 674 l 2,197,198
176 544 m 1,216,-1
 169 543 l 1,217,218
 155 543 155 543 143 551.5 c 128,-1,219
 131 560 131 560 131 569 c 128,-1,220
 131 578 131 578 134 582 c 1,221,222
 148 580 148 580 169.5 580 c 128,-1,223
 191 580 191 580 218.5 594 c 128,-1,224
 246 608 246 608 261 630 c 1,225,226
 275 622 275 622 275 606 c 128,-1,227
 275 590 275 590 258 572 c 1,228,229
 258 548 258 548 246.5 535 c 128,-1,230
 235 522 235 522 215 522 c 128,-1,231
 195 522 195 522 176 544 c 1,216,-1
177 530 m 1,232,233
 178 530 178 530 180 531 c 1,234,235
 193 514 193 514 214 514 c 0,236,237
 258 514 258 514 262 558 c 1,238,-1
 265 558 l 1,239,240
 279 508 279 508 299 489 c 128,-1,241
 319 470 319 470 349.5 470 c 128,-1,242
 380 470 380 470 401 481 c 1,243,244
 418 476 418 476 418 449 c 0,245,246
 418 448 418 448 418 446 c 0,247,248
 418 398 418 398 357 398 c 0,249,250
 315 398 315 398 285 417 c 1,251,252
 259 392 259 392 226 392 c 0,253,254
 206 392 206 392 188 402 c 1,255,256
 194 417 194 417 194 450 c 0,257,258
 195 451 195 451 195 452 c 0,259,260
 195 485 195 485 177 530 c 1,232,233
359 220 m 1,261,-1
 360 237 l 1,262,263
 391 260 391 260 435 260 c 128,-1,264
 479 260 479 260 515.5 232 c 128,-1,265
 552 204 552 204 552 164 c 2,266,-1
 552 162 l 1,267,268
 539 154 539 154 512 154 c 0,269,270
 510 154 510 154 508 154 c 0,271,272
 481 154 481 154 470 163 c 1,273,274
 468 189 468 189 448.5 208 c 128,-1,275
 429 227 429 227 398 227 c 0,276,277
 381 227 381 227 359 220 c 1,261,-1
545.5 102 m 128,-1,279
 526 90 526 90 505 90 c 128,-1,280
 484 90 484 90 466.5 100.5 c 128,-1,281
 449 111 449 111 449 128.5 c 128,-1,282
 449 146 449 146 468 155 c 1,283,284
 488 147 488 147 512 147 c 128,-1,285
 536 147 536 147 553 154 c 1,286,287
 565 144 565 144 565 134 c 0,288,278
 565 114 565 114 545.5 102 c 128,-1,279
395 140 m 1,289,290
 384 117 384 117 358.5 117 c 128,-1,291
 333 117 333 117 311 150 c 1,292,293
 283 120 283 120 255 120 c 0,294,295
 255 120 255 120 254 120 c 0,296,297
 226 121 226 121 218 150 c 1,298,299
 221 149 221 149 226 150 c 0,300,301
 283 150 283 150 305 270 c 1,302,-1
 328 394 l 1,303,304
 337 392 337 392 352.5 391.5 c 128,-1,305
 368 391 368 391 378 394 c 1,306,-1
 357 270 l 2,307,308
 351 236 351 236 351 214 c 0,309,310
 351 147 351 147 395 140 c 1,289,290
213 159 m 1,311,-1
 204 160 l 1,312,313
 205 140 205 140 219.5 125.5 c 128,-1,314
 234 111 234 111 254.5 111 c 128,-1,315
 275 111 275 111 296 124 c 1,316,317
 306 138 306 138 313 131 c 0,318,319
 314 131 314 131 318 126 c 0,320,321
 342 107 342 107 363.5 107 c 128,-1,322
 385 107 385 107 396 117.5 c 128,-1,323
 407 128 407 128 407 146 c 2,324,-1
 407 150 l 1,325,326
 361 156 361 156 361 206 c 2,327,-1
 361 211 l 1,328,329
 380 218 380 218 400 218 c 0,330,331
 400 218 400 218 401 218 c 0,332,333
 424 218 424 218 442 202 c 0,334,335
 460 185 460 185 462 159 c 1,336,337
 443 150 443 150 442.5 131.5 c 128,-1,338
 442 113 442 113 454 104 c 1,339,340
 437 66 437 66 390 66 c 128,-1,341
 343 66 343 66 309 96 c 0,342,343
 308 98 308 98 306 98 c 128,-1,344
 304 98 304 98 302 96 c 0,345,346
 292 81 292 81 269.5 69.5 c 128,-1,347
 247 58 247 58 225 58 c 0,348,349
 186 58 186 58 171 95 c 0,350,351
 170 97 170 97 175 100 c 1,352,353
 186 110 186 110 186 129.5 c 128,-1,354
 186 149 186 149 171 159 c 1,355,-1
 171 162 l 2,356,357
 171 188 171 188 197 207.5 c 128,-1,358
 223 227 223 227 252.5 227 c 128,-1,359
 282 227 282 227 282 218 c 0,360,361
 282 192 282 192 259 175.5 c 128,-1,362
 236 159 236 159 213 159 c 1,311,-1
290 243 m 1,363,364
 290 237 290 237 286 227 c 1,365,366
 269 234 269 234 243.5 234 c 128,-1,367
 218 234 218 234 192.5 215 c 128,-1,368
 167 196 167 196 163 166 c 1,369,370
 151 158 151 158 124.5 158 c 128,-1,371
 98 158 98 158 85 168 c 1,372,373
 97 216 97 216 131.5 241.5 c 128,-1,374
 166 267 166 267 210 267 c 128,-1,375
 254 267 254 267 290 243 c 1,363,364
534 87 m 1,376,377
 487 9 487 9 402 9 c 0,378,379
 351 9 351 9 295 40 c 1,380,381
 253 10 253 10 206 10 c 128,-1,382
 159 10 159 10 128 30.5 c 128,-1,383
 97 51 97 51 88 90 c 1,384,385
 106 79 106 79 126 79 c 128,-1,386
 146 79 146 79 165 90 c 1,387,388
 183 50 183 50 226.5 50 c 128,-1,389
 270 50 270 50 305 86 c 1,390,391
 348 58 348 58 393 58 c 0,392,393
 394 58 394 58 394 58 c 0,394,395
 440 58 440 58 459 96 c 1,396,397
 482 82 482 82 500 82 c 0,398,399
 501 81 501 81 503 81 c 0,400,401
 519 81 519 81 534 87 c 1,376,377
162 158 m 1,402,403
 180 149 180 149 180 129 c 128,-1,404
 180 109 180 109 163 98 c 128,-1,405
 146 87 146 87 127.5 87 c 128,-1,406
 109 87 109 87 89 99 c 128,-1,407
 69 111 69 111 69 131 c 128,-1,408
 69 151 69 151 85 158 c 1,409,410
 101 151 101 151 122 151 c 0,411,412
 123 151 123 151 124 152 c 0,413,414
 147 152 147 152 162 158 c 1,402,403
514 648 m 1,415,-1
 509 587 l 1,416,-1
 509 583 l 2,417,418
 509 580 509 580 509.5 580 c 128,-1,419
 510 580 510 580 510.5 585 c 128,-1,420
 511 590 511 590 515.5 613.5 c 128,-1,421
 520 637 520 637 520 656 c 128,-1,422
 520 675 520 675 501 692 c 128,-1,423
 482 709 482 709 455.5 709 c 128,-1,424
 429 709 429 709 413 690 c 1,425,426
 426 742 426 742 448 755 c 0,427,428
 459 761 459 761 481 763.5 c 128,-1,429
 503 766 503 766 515 773 c 0,430,431
 521 776 521 776 515 775 c 1,432,433
 505 771 505 771 481 769.5 c 128,-1,434
 457 768 457 768 445 761 c 1,435,436
 415 746 415 746 403 669 c 0,437,438
 402 666 402 666 405.5 664.5 c 128,-1,439
 409 663 409 663 410 666 c 0,440,441
 421 702 421 702 459 702 c 0,442,443
 481 702 481 702 497 688 c 128,-1,444
 513 674 513 674 514 648 c 1,415,-1
214 768 m 0,445,-1
 217 770 l 1,446,447
 217 771 217 771 214 770 c 0,448,449
 193 760 193 760 182 741 c 0,450,451
 170 721 170 721 170 695 c 1,452,453
 142 743 142 743 90 756 c 0,454,455
 87 757 87 757 86 756 c 1,456,-1
 89 754 l 1,457,458
 144 735 144 735 167 681 c 0,459,460
 169 676 169 676 172 678 c 128,-1,461
 175 680 175 680 175 682 c 2,462,-1
 175 685 l 2,463,464
 175 713 175 713 185.5 735.5 c 128,-1,465
 196 758 196 758 214 768 c 0,445,-1
311 443 m 1,466,467
 262 453 262 453 239 499 c 0,468,469
 237 502 237 502 233.5 500 c 128,-1,470
 230 498 230 498 232 495 c 0,471,472
 240 473 240 473 240 450 c 128,-1,473
 240 427 240 427 226 417 c 0,474,475
 223 415 223 415 223 414 c 128,-1,476
 223 413 223 413 226 415 c 0,477,478
 246 430 246 430 246 462 c 0,479,480
 246 466 246 466 245 477 c 1,481,482
 274 442 274 442 310 442 c 0,483,-1
 313 442 l 2,484,-1
 311 443 l 1,466,467
367 132 m 0,485,486
 370 132 370 132 370 133 c 2,487,-1
 368 134 l 1,488,489
 349 137 349 137 337 159 c 0,490,491
 323 186 323 186 322 207 c 0,492,493
 322 212 322 212 318 210 c 0,494,495
 316 210 316 210 317 209 c 0,496,497
 317 196 317 196 291 163 c 0,498,499
 273 140 273 140 257 140 c 0,500,501
 255 140 255 140 254 139 c 1,502,503
 255 138 255 138 257 138 c 2,504,-1
 258 138 l 2,505,506
 274 138 274 138 291 155 c 128,-1,507
 308 172 308 172 318 194 c 1,508,509
 322 169 322 169 334 151 c 0,510,511
 348 132 348 132 367 132 c 0,485,486
457 162 m 1,512,513
 455 184 455 184 438 198.5 c 128,-1,514
 421 213 421 213 400.5 213 c 128,-1,515
 380 213 380 213 366 207 c 1,516,-1
 366 205 l 2,517,518
 366 160 366 160 410 155 c 0,519,520
 412 155 412 155 413 152 c 2,521,-1
 413 147 l 2,522,523
 413 125 413 125 400 113 c 128,-1,524
 387 101 387 101 366 101 c 128,-1,525
 345 101 345 101 322 117 c 1,526,527
 322 112 322 112 317.5 108.5 c 128,-1,528
 313 105 313 105 308 105 c 0,529,530
 298 105 298 105 294 117 c 1,531,532
 273 105 273 105 251.5 105 c 128,-1,533
 230 105 230 105 214 122 c 128,-1,534
 198 139 198 139 198 162 c 0,535,536
 198 167 198 167 201 166 c 0,537,538
 205 165 205 165 213 166 c 0,539,540
 259 166 259 166 274 215 c 1,541,542
 264 221 264 221 244 221 c 128,-1,543
 224 221 224 221 200.5 203.5 c 128,-1,544
 177 186 177 186 177 163 c 2,545,-1
 177 162 l 1,546,547
 193 150 193 150 193 128.5 c 128,-1,548
 193 107 193 107 178 98 c 1,549,550
 188 64 188 64 225 64 c 0,551,552
 246 64 246 64 267.5 75 c 128,-1,553
 289 86 289 86 298 100 c 0,554,555
 300 103 300 103 305 102.5 c 128,-1,556
 310 102 310 102 313 100 c 0,557,558
 348 71 348 71 390 71 c 128,-1,559
 432 71 432 71 448 102 c 1,560,561
 437 112 437 112 437 132 c 128,-1,562
 437 152 437 152 457 162 c 1,512,513
281 8 m 0,563,564
 281 -3 281 -3 292 -3 c 0,565,566
 306 -3 306 -3 306 10 c 0,567,568
 306 13 306 13 304 16 c 1,569,570
 294 21 294 21 292 22 c 1,571,572
 287 19 287 19 284 18 c 1,573,574
 281 11 281 11 281 8 c 0,563,564
561 704 m 1,575,576
 564 702 564 702 567 702 c 128,-1,577
 570 702 570 702 574 707 c 128,-1,578
 578 712 578 712 578 717 c 0,579,580
 578 730 578 730 566 730 c 0,581,582
 564 730 564 730 562 729 c 1,583,584
 557 721 557 721 553 717 c 1,585,-1
 553 715 l 1,586,587
 556 712 556 712 561 704 c 1,575,576
567 168 m 1,588,-1
 566 160 l 1,589,590
 578 152 578 152 578 137 c 128,-1,591
 578 122 578 122 571 109.5 c 128,-1,592
 564 97 564 97 552 91 c 1,593,594
 534 46 534 46 494 20.5 c 128,-1,595
 454 -5 454 -5 405.5 -5 c 128,-1,596
 357 -5 357 -5 310 14 c 1,597,598
 311 12 311 12 311 7 c 128,-1,599
 311 2 311 2 306.5 -3 c 128,-1,600
 302 -8 302 -8 294.5 -8 c 128,-1,601
 287 -8 287 -8 281 -3 c 128,-1,602
 275 2 275 2 275 7 c 128,-1,603
 275 12 275 12 276 13 c 1,604,605
 233 -6 233 -6 194 -6 c 0,606,607
 193 -6 193 -6 192 -6 c 0,608,609
 151 -6 151 -6 118 20 c 0,610,611
 83 47 83 47 71 95 c 1,612,613
 54 105 54 105 54 130.5 c 128,-1,614
 54 156 54 156 71 166 c 1,615,616
 80 220 80 220 123 251.5 c 128,-1,617
 166 283 166 283 212.5 283 c 128,-1,618
 259 283 259 283 290 263 c 1,619,-1
 312 391 l 1,620,621
 310 391 310 391 303 393 c 1,622,623
 305 388 305 388 305 386 c 0,624,625
 305 370 305 370 287.5 370 c 128,-1,626
 270 370 270 370 270 386 c 2,627,-1
 270 388 l 1,628,629
 249 377 249 377 220.5 377 c 128,-1,630
 192 377 192 377 170 396 c 0,631,632
 167 399 167 399 173.5 404.5 c 128,-1,633
 180 410 180 410 180 441 c 128,-1,634
 180 472 180 472 163 531 c 1,635,-1
 159 531 l 2,636,637
 143 531 143 531 129.5 544.5 c 128,-1,638
 116 558 116 558 116 570 c 128,-1,639
 116 582 116 582 118 585 c 1,640,641
 100 591 100 591 100 616 c 128,-1,642
 100 641 100 641 115 651 c 1,643,644
 104 677 104 677 95 692.5 c 128,-1,645
 86 708 86 708 67 724 c 0,646,647
 45 744 45 744 24 744 c 0,648,649
 21 744 21 744 21 749 c 0,650,651
 21 790 21 790 88 790 c 0,652,653
 89 790 89 790 91 790 c 0,654,655
 112 790 112 790 134 786 c 1,656,657
 131 789 131 789 131 795 c 0,658,659
 131 813 131 813 149 813 c 0,660,661
 156 813 156 813 161 808 c 128,-1,662
 166 803 166 803 166 795 c 2,663,-1
 166 792 l 1,664,665
 195 806 195 806 233.5 806 c 128,-1,666
 272 806 272 806 282 779 c 0,667,668
 283 776 283 776 279 775 c 0,669,670
 231 759 231 759 231 709 c 0,671,672
 231 699 231 699 234 687 c 1,673,-1
 235 687 l 2,674,675
 250 687 250 687 261 675 c 128,-1,676
 272 663 272 663 272 646 c 2,677,-1
 272 640 l 1,678,679
 290 629 290 629 290 604.5 c 128,-1,680
 290 580 290 580 274 567 c 1,681,682
 288 528 288 528 300 507.5 c 128,-1,683
 312 487 312 487 329 485 c 1,684,-1
 361 662 l 1,685,-1
 365 682 l 2,686,687
 384 775 384 775 412 791 c 0,688,689
 426 799 426 799 448.5 803 c 128,-1,690
 471 807 471 807 485.5 813.5 c 128,-1,691
 500 820 500 820 505 838 c 1,692,693
 513 840 513 840 517 839 c 0,694,695
 542 839 542 839 558 818.5 c 128,-1,696
 574 798 574 798 574 773.5 c 128,-1,697
 574 749 574 749 565 734 c 1,698,-1
 566 734 l 2,699,700
 573 734 573 734 578 728.5 c 128,-1,701
 583 723 583 723 583 716.5 c 128,-1,702
 583 710 583 710 578 704.5 c 128,-1,703
 573 699 573 699 565 699 c 2,704,-1
 563 699 l 1,705,706
 571 679 571 679 571 653.5 c 128,-1,707
 571 628 571 628 551.5 588.5 c 128,-1,708
 532 549 532 549 532 519 c 0,709,710
 532 510 532 510 532.5 506 c 128,-1,711
 533 502 533 502 530 502 c 0,712,713
 502 504 502 504 487 534 c 128,-1,714
 472 564 472 564 470 615 c 0,715,716
 468 642 468 642 453 642 c 128,-1,717
 438 642 438 642 434 614 c 2,718,-1
 412 494 l 1,719,720
 434 482 434 482 434 454.5 c 128,-1,721
 434 427 434 427 423.5 409.5 c 128,-1,722
 413 392 413 392 394 388 c 1,723,-1
 370 262 l 1,724,725
 397 274 397 274 426 274 c 0,726,727
 428 274 428 274 430 274 c 0,728,729
 484 274 484 274 525.5 241.5 c 128,-1,730
 567 209 567 209 567 168 c 1,588,-1
276 391 m 1,731,732
 274 389 274 389 274 384.5 c 128,-1,733
 274 380 274 380 278.5 377 c 128,-1,734
 283 374 283 374 288 374 c 0,735,736
 300 374 300 374 300 386 c 0,737,738
 300 392 300 392 297 395 c 1,739,740
 294 396 294 396 287 399 c 1,741,742
 284 396 284 396 276 391 c 1,731,732
308 109 m 128,-1,744
 318 109 318 109 318 119 c 0,745,746
 318 121 318 121 314 123.5 c 128,-1,747
 310 126 310 126 309 127 c 1,748,749
 304 123 304 123 298 119 c 1,750,743
 298 109 298 109 308 109 c 128,-1,744
EndSplineSet
Validated: 3073
EndChar

StartChar: Y
Encoding: 89 89 16
Width: 461
VWidth: 800
Flags: W
HStem: -2 26<120 188 283 350> 491 26<0 46 137 181 312 353 410 459>
VStem: 202 68<35 261>
DStem2: 241 283 185 261 0.509909 -0.860228<-217.975 13.7879> 258 282 283 267 0.485643 0.874157<-11.4754 212.819>
LayerCount: 3
Fore
SplineSet
269.6 97.5996 m 2
 269.6 31.2002 283.2 27.2002 347.2 24.7998 c 1
 349.6 22.4004 350.4 16.7998 350.4 11.2002 c 0
 350.4 6.40039 349.6 0.799805 347.2 -1.59961 c 1
 307.2 -0.799805 267.2 0 236 0 c 0
 204.8 0 163.2 -0.799805 124 -1.59961 c 1
 121.6 0.799805 120 6.40039 120 11.2002 c 0
 120 16.7998 121.6 22.4004 124 24.7998 c 1
 188 27.2002 201.6 31.2002 201.6 97.5996 c 2
 201.6 199.2 l 2
 201.6 228.8 198.4 236.8 184.8 260.8 c 2
 80 437.6 l 2
 52 484 38.4004 488.8 4.7998 491.2 c 1
 2.40039 493.6 0 500 0 505.6 c 0
 0 510.4 1.59961 515.2 4 517.6 c 1
 28 516.8 54.4004 516 85.5996 516 c 0
 117.6 516 148 516.8 176.8 517.6 c 1
 179.2 515.2 180.8 509.6 180.8 504 c 0
 180.8 499.2 179.2 493.6 176.8 491.2 c 1
 148.8 489.6 136.8 486.4 136.8 475.2 c 0
 136.8 468.8 140.8 460 148 447.2 c 2
 240.8 283.2 l 2
 244.8 276.8 248 272.8 250.4 272.8 c 0
 252.8 272.8 255.2 276 258.4 281.6 c 2
 347.2 448.8 l 2
 352 458.4 354.4 465.6 354.4 472 c 0
 354.4 485.6 340.8 489.6 316 491.2 c 1
 313.6 493.6 312 499.2 312 504 c 0
 312 509.6 313.6 515.2 316 517.6 c 1
 341.6 516.8 370.4 516 388.8 516 c 0
 407.2 516 432.8 516.8 455.2 517.6 c 1
 457.6 515.2 459.2 509.6 459.2 504 c 0
 459.2 499.2 457.6 493.6 455.2 491.2 c 1
 419.2 488 401.6 480.8 379.2 440 c 2
 283.2 267.2 l 2
 270.4 243.2 269.6 230.4 269.6 206.4 c 2
 269.6 97.5996 l 2
EndSplineSet
Validated: 1
Layer: 2
SplineSet
270 98 m 2,0,1
 270 50 270 50 283.5 38 c 128,-1,2
 297 26 297 26 347 25 c 1,3,4
 350 22 350 22 350 11 c 0,5,6
 350 1 350 1 347 -2 c 1,7,8
 267 0 267 0 236 0 c 0,9,10
 202 0 202 0 124 -2 c 1,11,12
 120 2 120 2 120 11 c 0,13,14
 120 21 120 21 124 25 c 1,15,16
 174 27 174 27 188 38.5 c 128,-1,17
 202 50 202 50 202 98 c 2,18,-1
 202 199 l 2,19,20
 202 221 202 221 198.5 231.5 c 128,-1,21
 195 242 195 242 185 261 c 1,22,-1
 80 438 l 2,23,24
 60 471 60 471 46 480.5 c 128,-1,25
 32 490 32 490 5 491 c 1,26,27
 0 496 0 496 0 506 c 0,28,29
 0 514 0 514 4 518 c 1,30,31
 52 516 52 516 85.5 516 c 128,-1,32
 119 516 119 516 177 518 c 1,33,34
 181 514 181 514 181 504 c 0,35,36
 181 495 181 495 177 491 c 1,37,38
 137 489 137 489 137 475 c 0,39,40
 137 467 137 467 148 447 c 2,41,-1
 241 283 l 2,42,43
 247 273 247 273 250.5 273 c 128,-1,44
 254 273 254 273 258 282 c 2,45,-1
 347 449 l 2,46,47
 354 463 354 463 354 472 c 0,48,49
 354 489 354 489 316 491 c 1,50,51
 312 495 312 495 312 504 c 0,52,53
 312 514 312 514 316 518 c 1,54,55
 367 516 367 516 388.5 516 c 128,-1,56
 410 516 410 516 455 518 c 1,57,58
 459 514 459 514 459 504 c 0,59,60
 459 495 459 495 455 491 c 1,61,62
 426 489 426 489 410.5 479 c 128,-1,63
 395 469 395 469 379 440 c 2,64,-1
 283 267 l 2,65,66
 270 243 270 243 270 211 c 0,67,68
 270 208 270 208 270 206 c 2,69,-1
 270 98 l 2,0,1
EndSplineSet
Validated: 3073
EndChar

StartChar: bracketleft
Encoding: 91 91 17
Width: 237
VWidth: 800
Flags: W
HStem: -160 15<96 209> 722 15<96 209>
VStem: 50 46<-145 722>
LayerCount: 3
Fore
SplineSet
50.4004 -160 m 1
 50.4004 737.6 l 1
 208.8 737.6 l 1
 208.8 722.4 l 1
 96 722.4 l 1
 96 -144.8 l 1
 208.8 -144.8 l 1
 208.8 -160 l 1
 50.4004 -160 l 1
EndSplineSet
Validated: 1
Layer: 2
SplineSet
50 -160 m 1,0,-1
 50 738 l 1,1,-1
 209 738 l 1,2,-1
 209 722 l 1,3,-1
 96 722 l 1,4,-1
 96 -145 l 1,5,-1
 209 -145 l 1,6,-1
 209 -160 l 1,7,-1
 50 -160 l 1,0,-1
EndSplineSet
Validated: 19457
EndChar

StartChar: backslash
Encoding: 92 92 18
Width: 444
VWidth: 800
Flags: W
HStem: 794 16G<5 54>
VStem: 5 44<766 810> 317 44<-162 -118>
DStem2: 49 810 5 810 0.305629 -0.952151<0 1007.4>
LayerCount: 3
Fore
SplineSet
360.8 -161.6 m 1
 316.8 -161.6 l 1
 4.7998 810.4 l 1
 48.7998 810.4 l 1
 360.8 -161.6 l 1
EndSplineSet
Validated: 1
Layer: 2
SplineSet
361 -162 m 1,0,-1
 317 -162 l 1,1,-1
 5 810 l 1,2,-1
 49 810 l 1,3,-1
 361 -162 l 1,0,-1
EndSplineSet
Validated: 19457
EndChar

StartChar: bracketright
Encoding: 93 93 19
Width: 237
VWidth: 800
Flags: W
HStem: -160 15<14 127> 722 15<14 127>
VStem: 127 46<-145 722>
LayerCount: 3
Fore
SplineSet
14.4004 -160 m 1
 14.4004 -144.8 l 1
 127.2 -144.8 l 1
 127.2 722.4 l 1
 14.4004 722.4 l 1
 14.4004 737.6 l 1
 172.8 737.6 l 1
 172.8 -160 l 1
 14.4004 -160 l 1
EndSplineSet
Validated: 1
Layer: 2
SplineSet
14 -160 m 1,0,-1
 14 -145 l 1,1,-1
 127 -145 l 1,2,-1
 127 722 l 1,3,-1
 14 722 l 1,4,-1
 14 738 l 1,5,-1
 173 738 l 1,6,-1
 173 -160 l 1,7,-1
 14 -160 l 1,0,-1
EndSplineSet
Validated: 19457
EndChar

StartChar: asciicircum
Encoding: 94 94 20
Width: 360
VWidth: 799
Flags: W
HStem: 277 243
VStem: 62 235
DStem2: 62 277 98 277 0.382889 0.923794<13.4777 227.263> 197 520 179 474 0.382889 -0.923794<35.3862 249.784>
LayerCount: 3
Fore
SplineSet
179.2 474.4 m 1
 97.5996 276.8 l 1
 62.4004 276.8 l 1
 163.2 520 l 1
 196.8 520 l 1
 297.6 276.8 l 1
 262.4 276.8 l 1
 179.2 474.4 l 1
EndSplineSet
Validated: 1
Layer: 2
SplineSet
179 474 m 1,0,-1
 98 277 l 1,1,-1
 62 277 l 1,2,-1
 163 520 l 1,3,-1
 197 520 l 1,4,-1
 298 277 l 1,5,-1
 262 277 l 1,6,-1
 179 474 l 1,0,-1
EndSplineSet
Validated: 19457
EndChar

StartChar: underscore
Encoding: 95 95 21
Width: 300
VWidth: 800
Flags: W
HStem: 0 77<14 286>
VStem: 11 278<1 76>
LayerCount: 3
Fore
SplineSet
263.2 76.7998 m 2
 284.8 76.7998 288.8 59.2002 288.8 37.5996 c 0
 288.8 16 284.8 0 263.2 0 c 2
 36.7998 0 l 2
 15.2002 0 11.2002 16 11.2002 37.5996 c 0
 11.2002 59.2002 15.2002 76.7998 36.7998 76.7998 c 2
 263.2 76.7998 l 2
EndSplineSet
Validated: 1
Layer: 2
SplineSet
263 77 m 2,0,1
 289 77 289 77 289 38 c 0,2,3
 289 0 289 0 263 0 c 2,4,-1
 37 0 l 2,5,6
 11 0 11 0 11 38 c 0,7,8
 11 77 11 77 37 77 c 2,9,-1
 263 77 l 2,0,1
EndSplineSet
Validated: 19457
EndChar

StartChar: grave
Encoding: 96 96 22
Width: 156
VWidth: 800
Flags: W
HStem: 405 169
VStem: 1 146
LayerCount: 3
Fore
SplineSet
117.6 404.8 m 1
 0.799805 572 l 2
 0 572.8 0.799805 572.8 0.799805 573.6 c 0
 0.799805 575.2 1.59961 575.2 3.2002 575.2 c 0
 4 575.2 4.7998 575.2 5.59961 575.2 c 2
 57.5996 575.2 l 1
 146.4 411.2 l 2
 147.2 410.4 147.2 409.6 147.2 408.8 c 0
 147.2 406.4 146.4 404.8 144 404.8 c 2
 117.6 404.8 l 1
EndSplineSet
Validated: 1
Layer: 2
SplineSet
118 405 m 1,0,-1
 1 572 l 1,1,2
 1 574 l 2,3,4
 1 576 1 576 3 575 c 2,5,6
 6 575 l 1,7,-1
 58 575 l 1,8,-1
 146 411 l 2,9,10
 147 410 147 410 147 409 c 0,11,12
 147 405 147 405 144 405 c 2,13,-1
 118 405 l 1,0,-1
EndSplineSet
Validated: 19457
EndChar

StartChar: a
Encoding: 97 97 23
Width: 371
VWidth: 800
Flags: W
HStem: 1 38<265 340> 1 33<104 181> 334 26<105 198>
VStem: 19 67<51 137> 35 59<257 313> 226 62<65 195 220 307>
DStem2: 152 203 162 178 0.971457 0.237216<-50.0014 69.6015>
LayerCount: 3
Fore
SplineSet
225.6 195.2 m 1x74
 161.6 178.4 l 2
 102.4 163.2 86.4004 126.4 86.4004 90.4004 c 0
 86.4004 65.5996 104 33.5996 144 33.5996 c 0
 166.4 33.5996 193.6 52 214.4 68.7998 c 0
 220.8 73.5996 225.6 79.2002 225.6 89.5996 c 2
 225.6 195.2 l 1x74
94.4004 300 m 0x6c
 94.4004 282.4 100.8 284 100.8 269.6 c 0
 100.8 259.2 86.4004 242.4 62.4004 242.4 c 0
 44.7998 242.4 35.2002 252 35.2002 271.2 c 0
 35.2002 316.8 100.8 360 166.4 360 c 0
 225.6 360 288 338.4 288 224.8 c 2
 288 107.2 l 2
 288 70.4004 288 39.2002 312 39.2002 c 0
 321.6 39.2002 335.2 47.2002 340.8 52 c 1
 350.4 46.4004 353.6 40 355.2 30.4004 c 1
 338.4 14.4004 309.6 0.799805 278.4 0.799805 c 0xac
 238.4 0.799805 230.4 22.4004 225.6 47.2002 c 1
 224 47.2002 l 1
 208 34.4004 l 2
 172.8 7.2002 148 0.799805 120 0.799805 c 0
 64 0.799805 19.2002 21.5996 19.2002 87.2002 c 0x74
 19.2002 141.6 75.2002 184 152 203.2 c 2
 220.8 220 l 2
 222.4 220.8 225.6 224 225.6 229.6 c 0
 225.6 320 187.2 333.6 160 333.6 c 0
 129.6 333.6 94.4004 325.6 94.4004 300 c 0x6c
EndSplineSet
Validated: 1
Layer: 2
SplineSet
226 195 m 1,0,-1
 162 178 l 2,1,2
 87 159 87 159 86 90 c 0,3,4
 86 68 86 68 101 51 c 128,-1,5
 116 34 116 34 144 34 c 0,6,7
 171 34 171 34 214 69 c 1,8,9
 225 77 225 77 226 90 c 2,10,-1
 226 195 l 1,0,-1
94 300 m 0,11,12
 94 291 94 291 97.5 284 c 128,-1,13
 101 277 101 277 101 270 c 0,14,15
 101 261 101 261 90 251.5 c 128,-1,16
 79 242 79 242 62 242 c 0,17,18
 35 242 35 242 35 271 c 0,19,20
 35 305 35 305 76 332.5 c 128,-1,21
 117 360 117 360 166 360 c 0,22,23
 288 360 288 360 288 225 c 2,24,-1
 288 107 l 2,25,26
 288 89 288 89 288.5 80 c 128,-1,27
 289 71 289 71 291 60 c 128,-1,28
 293 49 293 49 298 44 c 128,-1,29
 303 39 303 39 312 39 c 0,30,31
 326 39 326 39 341 52 c 1,32,33
 353 45 353 45 355 30 c 1,34,35
 325 1 325 1 281 1 c 0,36,37
 280 1 280 1 278 1 c 0,38,39
 251 1 251 1 240.5 13 c 128,-1,40
 230 25 230 25 226 47 c 1,41,-1
 224 47 l 1,42,-1
 208 34 l 2,43,44
 166 1 166 1 123 1 c 0,45,46
 121 1 121 1 120 1 c 0,47,48
 19 1 19 1 19 87 c 0,49,50
 19 127 19 127 56 157.5 c 128,-1,51
 93 188 93 188 152 203 c 2,52,-1
 221 220 l 1,53,54
 226 222 226 222 226 230 c 0,55,56
 226 334 226 334 160 334 c 0,57,58
 134 334 134 334 114 326 c 128,-1,59
 94 318 94 318 94 300 c 0,11,12
EndSplineSet
Validated: 3073
EndChar

StartChar: b
Encoding: 98 98 24
Width: 376
VWidth: 800
Flags: W
HStem: 0 27<150 235> 324 35<159 250> 521 24<6 54>
VStem: 62 63<47 298 327 516> 296 69<112 269>
LayerCount: 3
Fore
SplineSet
139.2 298.4 m 0
 128.8 289.6 125.6 281.6 125.6 264.8 c 2
 125.6 64.7998 l 1
 141.6 44.7998 158.4 27.2002 183.2 27.2002 c 0
 259.2 27.2002 296 96 296 187.2 c 0
 296 264.8 256 324 207.2 324 c 0
 184 324 160 316.8 139.2 298.4 c 0
133.6 323.2 m 0
 158.4 345.6 188.8 359.2 223.2 359.2 c 0
 292.8 359.2 364.8 299.2 364.8 201.6 c 0
 364.8 74.4004 269.6 0 188 0 c 0
 159.2 0 136 4 117.6 20 c 0
 112.8 23.2002 109.6 24.7998 107.2 24.7998 c 0
 103.2 24.7998 100 22.4004 95.2002 17.5996 c 0
 89.5996 10.4004 81.5996 3.2002 76.7998 -1.59961 c 1
 67.2002 -1.59961 63.2002 1.59961 59.2002 8 c 1
 61.5996 19.2002 62.4004 33.5996 62.4004 64.7998 c 2
 62.4004 455.2 l 2
 62.4004 522.4 52.7998 518.4 11.2002 520.8 c 1
 7.2002 524 5.59961 532.8 5.59961 539.2 c 0
 5.59961 541.6 5.59961 543.2 6.40039 544.8 c 1
 38.4004 547.2 98.4004 558.4 118.4 566.4 c 1
 125.6 566.4 128.8 564 128.8 558.4 c 2
 128.8 558.4 125.6 526.4 125.6 474.4 c 2
 125.6 327.2 l 2
 125.6 320 128 318.4 133.6 323.2 c 0
EndSplineSet
Validated: 1
Layer: 2
SplineSet
139 298 m 0,0,1
 126 288 126 288 126 268 c 0,2,3
 126 267 126 267 126 265 c 2,4,-1
 126 65 l 1,5,6
 156 27 156 27 183 27 c 0,7,8
 238 27 238 27 267 71.5 c 128,-1,9
 296 116 296 116 296 187 c 0,10,11
 296 245 296 245 270 284.5 c 128,-1,12
 244 324 244 324 207 324 c 0,13,14
 173 324 173 324 139 298 c 0,0,1
134 323 m 0,15,16
 174 359 174 359 223 359 c 0,17,18
 278 359 278 359 321.5 315 c 128,-1,19
 365 271 365 271 365 202 c 0,20,21
 365 112 365 112 309.5 56 c 128,-1,22
 254 0 254 0 188 0 c 0,23,24
 141 0 141 0 118 20 c 1,25,26
 111 25 111 25 107 25 c 0,27,28
 102 25 102 25 95 18 c 1,29,30
 93 14 93 14 77 -2 c 1,31,32
 65 -2 65 -2 59 8 c 1,33,34
 62 23 62 23 62 65 c 2,35,-1
 62 455 l 2,36,37
 62 481 62 481 61 493.5 c 128,-1,38
 60 506 60 506 51 512 c 128,-1,39
 42 518 42 518 37.5 518.5 c 128,-1,40
 33 519 33 519 11 521 c 1,41,42
 5 526 5 526 6 539 c 0,43,44
 6 543 6 543 6 545 c 1,45,46
 77 551 77 551 118 566 c 1,47,48
 128 566 128 566 129 558 c 0,49,50
 126 526 126 526 126 474 c 2,51,-1
 126 327 l 2,52,53
 126 316 126 316 134 323 c 0,15,16
EndSplineSet
Validated: 3073
EndChar

StartChar: c
Encoding: 99 99 25
Width: 325
VWidth: 800
Flags: W
HStem: 0 39<150 255> 333 26<144 227>
VStem: 26 69<105 259> 243 69<257 321>
LayerCount: 3
Fore
SplineSet
315.2 80.7998 m 1
 275.2 15.2002 232 0 184 0 c 0
 83.2002 0 25.5996 71.2002 25.5996 174.4 c 0
 25.5996 288 110.4 359.2 190.4 359.2 c 0
 267.2 359.2 312 327.2 312 283.2 c 0
 312 258.4 289.6 248 273.6 248 c 0
 256 248 243.2 255.2 243.2 276.8 c 0
 243.2 304.8 233.6 332.8 185.6 332.8 c 0
 132.8 332.8 94.4004 280 94.4004 192 c 0
 94.4004 98.4004 144 39.2002 201.6 39.2002 c 0
 236.8 39.2002 270.4 56.7998 297.6 92 c 1
 305.6 92 312 88 315.2 80.7998 c 1
EndSplineSet
Validated: 1
Layer: 2
SplineSet
315 81 m 1,0,1
 287 35 287 35 255.5 17.5 c 128,-1,2
 224 0 224 0 184 0 c 0,3,4
 110 0 110 0 68 47.5 c 128,-1,5
 26 95 26 95 26 174 c 0,6,7
 26 256 26 256 76 307.5 c 128,-1,8
 126 359 126 359 190 359 c 0,9,10
 247 359 247 359 279.5 338 c 128,-1,11
 312 317 312 317 312 283 c 0,12,13
 312 266 312 266 300 257 c 128,-1,14
 288 248 288 248 274 248 c 0,15,16
 244 248 244 248 243 277 c 0,17,18
 243 333 243 333 186 333 c 0,19,20
 146 333 146 333 120 295 c 128,-1,21
 94 257 94 257 94 192 c 0,22,23
 94 124 94 124 125.5 81.5 c 128,-1,24
 157 39 157 39 202 39 c 0,25,26
 257 39 257 39 298 92 c 1,27,28
 310 92 310 92 315 81 c 1,0,1
EndSplineSet
Validated: 19457
EndChar

StartChar: d
Encoding: 100 100 26
Width: 405
VWidth: 800
Flags: W
HStem: 0 38<138 215> 32 22<348 395> 331 28<143 239> 521 24<214 261>
VStem: 25 69<92 257> 270 63<72 307 346 510>
LayerCount: 3
Fore
SplineSet
269.6 107.2 m 2xbc
 269.6 259.2 l 2
 269.6 284 267.2 289.6 256 302.4 c 0
 240 320.8 220 331.2 191.2 331.2 c 0
 175.2 331.2 141.6 328.8 116.8 291.2 c 0
 104.8 274.4 93.5996 242.4 93.5996 184.8 c 0
 93.5996 84.7998 138.4 37.5996 181.6 37.5996 c 0
 201.6 37.5996 227.2 50.4004 256.8 76 c 0
 268 85.5996 269.6 92 269.6 107.2 c 2xbc
261.6 49.5996 m 0
 222.4 17.5996 192 0 160.8 0 c 0xbc
 74.4004 0 24.7998 72 24.7998 170.4 c 0
 24.7998 229.6 45.5996 276.8 80 311.2 c 1
 112 341.6 147.2 359.2 200 359.2 c 0
 226.4 359.2 259.2 345.6 262.4 345.6 c 0
 268 345.6 269.6 347.2 269.6 352.8 c 2
 269.6 455.2 l 2
 269.6 519.2 260.8 520.8 224 520.8 c 0
 218.4 520.8 l 1
 215.2 524 212.8 532 212.8 538.4 c 0
 212.8 540.8 213.6 543.2 213.6 544.8 c 1
 245.6 544.8 305.6 558.4 325.6 566.4 c 1
 332.8 566.4 336 564 336 558.4 c 2
 336 558.4 332.8 526.4 332.8 474.4 c 2
 332.8 112 l 2
 332.8 72.7998 340 53.5996 391.2 53.5996 c 1
 393.6 51.2002 395.2 46.4004 395.2 42.4004 c 0
 395.2 38.4004 393.6 34.4004 391.2 32 c 1x7c
 342.4 26.4004 314.4 14.4004 296.8 0 c 1
 294.4 -1.59961 292 -1.59961 289.6 -1.59961 c 0
 287.2 -1.59961 284.8 -1.59961 281.6 0 c 1
 281.6 0 275.2 27.2002 272.8 47.2002 c 0
 272.8 52.7998 265.6 52.7998 261.6 49.5996 c 0
EndSplineSet
Validated: 1
Layer: 2
SplineSet
270 107 m 2,0,-1
 270 259 l 2,1,2
 270 277 270 277 267.5 285 c 128,-1,3
 265 293 265 293 256 302 c 0,4,5
 231 331 231 331 191 331 c 0,6,7
 143 331 143 331 117 291 c 1,8,9
 94 258 94 258 94 185 c 0,10,11
 94 115 94 115 120 76.5 c 128,-1,12
 146 38 146 38 182 38 c 0,13,14
 213 38 213 38 257 76 c 0,15,16
 270 87 270 87 270 107 c 2,0,-1
262 50 m 0,17,18
 201 0 201 0 161 0 c 0,19,20
 98 0 98 0 61.5 47 c 128,-1,21
 25 94 25 94 25 170 c 0,22,23
 25 256 25 256 80 311 c 1,24,25
 130 359 130 359 200 359 c 0,26,27
 212 359 212 359 226.5 355.5 c 128,-1,28
 241 352 241 352 252 349 c 0,29,-1
 262 346 l 0,30,31
 269 346 269 346 270 353 c 2,32,-1
 270 455 l 2,33,34
 270 501 270 501 262 511 c 128,-1,35
 254 521 254 521 224 521 c 2,36,-1
 218 521 l 1,37,38
 212 527 212 527 213 538 c 0,39,40
 213 540 213 540 213.5 542 c 128,-1,41
 214 544 214 544 214 545 c 1,42,43
 236 545 236 545 272.5 552.5 c 128,-1,44
 309 560 309 560 326 566 c 1,45,46
 336 566 336 566 336 558 c 0,47,48
 333 526 333 526 333 474 c 2,49,-1
 333 112 l 2,50,51
 333 80 333 80 344 67 c 128,-1,52
 355 54 355 54 391 54 c 1,53,54
 395 50 395 50 395 42 c 0,55,56
 395 36 395 36 391 32 c 1,57,58
 327 25 327 25 297 0 c 0,59,60
 295 -2 295 -2 290 -2 c 128,-1,61
 285 -2 285 -2 282 0 c 1,62,63
 276 27 276 27 273 47 c 0,64,65
 273 51 273 51 269 51.5 c 128,-1,66
 265 52 265 52 262 50 c 0,17,18
EndSplineSet
Validated: 3073
EndChar

StartChar: e
Encoding: 101 101 27
Width: 350
VWidth: 800
Flags: W
HStem: 0 39<156 263> 206 27<98 254> 331 26<145 227>
VStem: 28 67<112 206> 254 69<212 300>
LayerCount: 3
Fore
SplineSet
97.5996 233.6 m 1
 242.4 236 l 2
 251.2 236 254.4 240 254.4 247.2 c 0
 254.4 314.4 218.4 331.2 188 331.2 c 0
 168.8 331.2 112.8 324 97.5996 233.6 c 1
188 0 m 0
 84 0 28 69.5996 28 169.6 c 0
 28 291.2 118.4 357.6 188 357.6 c 0
 299.2 357.6 323.2 285.6 323.2 218.4 c 0
 323.2 209.6 317.6 204.8 308 204.8 c 2
 95.2002 206.4 l 1
 95.2002 160 104.8 123.2 120.8 96.7998 c 0
 145.6 56 179.2 39.2002 208 39.2002 c 0
 254.4 39.2002 277.6 52 307.2 82.4004 c 1
 316.8 81.5996 321.6 77.5996 324 69.5996 c 1
 292 28 248.8 0 188 0 c 0
EndSplineSet
Validated: 1
Layer: 2
SplineSet
98 234 m 1,0,-1
 242 236 l 2,1,2
 254 236 254 236 254 247 c 0,3,4
 254 293 254 293 234.5 312 c 128,-1,5
 215 331 215 331 188 331 c 0,6,7
 178 331 178 331 167.5 328.5 c 128,-1,8
 157 326 157 326 142 317 c 128,-1,9
 127 308 127 308 115.5 286.5 c 128,-1,10
 104 265 104 265 98 234 c 1,0,-1
188 0 m 0,11,12
 112 0 112 0 70 46.5 c 128,-1,13
 28 93 28 93 28 170 c 0,14,15
 28 255 28 255 79 306.5 c 128,-1,16
 130 358 130 358 188 358 c 0,17,18
 323 358 323 358 323 218 c 0,19,20
 323 204 323 204 308 205 c 2,21,-1
 95 206 l 1,22,23
 95 139 95 139 121 97 c 0,24,25
 156 39 156 39 208 39 c 0,26,27
 242 39 242 39 263 48.5 c 128,-1,28
 284 58 284 58 307 82 c 1,29,30
 321 81 321 81 324 70 c 1,31,32
 270 0 270 0 188 0 c 0,11,12
EndSplineSet
Validated: 19457
EndChar

StartChar: g
Encoding: 103 103 28
Width: 402
VWidth: 800
Flags: W
HStem: -181 30<126 253> 0 49<114 299> 118 25<144 227> 336 25<139 221> 343 36<295 357>
VStem: 26 56<-117 -35> 48 66<179 300> 54 43<62 129> 256 64<177 302> 334 43<-98 -30>
LayerCount: 3
Fore
SplineSet
256 232.8 m 0xf2c0
 256 299.2 228.8 336 177.6 336 c 0
 134.4 336 113.6 307.2 113.6 251.2 c 0
 113.6 200 121.6 143.2 188.8 143.2 c 0
 217.6 143.2 256 158.4 256 232.8 c 0xf2c0
105.6 1.59961 m 1
 83.2002 -26.4004 81.5996 -46.4004 81.5996 -73.5996 c 0xe4c0
 81.5996 -128 148.8 -151.2 177.6 -151.2 c 0
 249.6 -151.2 334.4 -120.8 334.4 -63.2002 c 0
 334.4 -42.4004 324.8 -31.2002 292.8 -13.5996 c 0
 270.4 -0.799805 236.8 0 196.8 0 c 0
 185.6 0 163.2 -2.40039 137.6 -2.40039 c 0
 128 -2.40039 115.2 -0.799805 105.6 1.59961 c 1
150.4 44.7998 m 0
 169.6 44.7998 208 48.7998 225.6 48.7998 c 0
 256 48.7998 312 48 342.4 22.4004 c 0
 366.4 3.2002 377.6 -16.7998 377.6 -42.4004 c 0
 377.6 -128.8 260.8 -180.8 153.6 -180.8 c 0
 91.2002 -180.8 25.5996 -159.2 25.5996 -89.5996 c 0xecc0
 25.5996 -55.2002 48 -18.4004 91.2002 7.2002 c 1
 70.4004 17.5996 54.4004 40 54.4004 68.7998 c 0xe9c0
 54.4004 96 67.2002 130.4 89.5996 149.6 c 1
 67.2002 171.2 48 196 48 239.2 c 0
 48 312.8 113.6 360.8 185.6 360.8 c 0xf2c0
 232 360.8 259.2 344.8 268.8 338.4 c 1
 289.6 365.6 328 379.2 348.8 379.2 c 0
 369.6 379.2 385.6 366.4 385.6 349.6 c 0
 385.6 333.6 371.2 319.2 355.2 319.2 c 0
 347.2 319.2 336 327.2 332.8 333.6 c 1
 328 340.8 323.2 343.2 316.8 343.2 c 0
 307.2 343.2 291.2 332 284.8 324 c 1
 308.8 300 320 278.4 320 240.8 c 0
 320 162.4 254.4 118.4 184 118.4 c 0
 153.6 118.4 131.2 124 112 135.2 c 1
 102.4 121.6 97.5996 104.8 97.5996 88.7998 c 0xe9c0
 97.5996 54.4004 126.4 44.7998 150.4 44.7998 c 0
EndSplineSet
Validated: 1
Layer: 2
SplineSet
256 233 m 128,-1,1
 256 283 256 283 236 309.5 c 128,-1,2
 216 336 216 336 178 336 c 0,3,4
 114 336 114 336 114 251 c 0,5,6
 114 229 114 229 116 212.5 c 128,-1,7
 118 196 118 196 125.5 179 c 128,-1,8
 133 162 133 162 149 152.5 c 128,-1,9
 165 143 165 143 189 143 c 0,10,11
 216 143 216 143 236 163 c 128,-1,0
 256 183 256 183 256 233 c 128,-1,1
106 2 m 1,12,13
 82 -28 82 -28 82 -74 c 0,14,15
 82 -110 82 -110 115.5 -130.5 c 128,-1,16
 149 -151 149 -151 178 -151 c 0,17,18
 216 -151 216 -151 250.5 -141.5 c 128,-1,19
 285 -132 285 -132 309.5 -111 c 128,-1,20
 334 -90 334 -90 334 -63 c 0,21,22
 334 -48 334 -48 325.5 -37.5 c 128,-1,23
 317 -27 317 -27 293 -13.5 c 128,-1,24
 269 0 269 0 197 0 c 0,25,26
 193 0 193 0 172.5 -1 c 128,-1,27
 152 -2 152 -2 138 -2 c 0,28,29
 122 -2 122 -2 106 2 c 1,12,13
150 45 m 0,30,31
 160 45 160 45 188.5 47 c 128,-1,32
 217 49 217 49 226 49 c 0,33,34
 312 49 312 49 342 22 c 1,35,36
 377 -6 377 -6 378 -42 c 0,37,38
 378 -104 378 -104 309 -142.5 c 128,-1,39
 240 -181 240 -181 154 -181 c 0,40,41
 100 -181 100 -181 63 -159.5 c 128,-1,42
 26 -138 26 -138 26 -90 c 0,43,44
 26 -32 26 -32 91 7 c 1,45,46
 54 25 54 25 54 69 c 0,47,48
 54 91 54 91 64 113.5 c 128,-1,49
 74 136 74 136 90 150 c 1,50,51
 48 190 48 190 48 239 c 0,52,53
 48 293 48 293 89 327 c 128,-1,54
 130 361 130 361 186 361 c 0,55,56
 236 361 236 361 269 338 c 1,57,58
 283 357 283 357 307 368 c 128,-1,59
 331 379 331 379 349 379 c 0,60,61
 365 379 365 379 375.5 370.5 c 128,-1,62
 386 362 386 362 386 350 c 128,-1,63
 386 338 386 338 376.5 328.5 c 128,-1,64
 367 319 367 319 355 319 c 0,65,66
 349 319 349 319 342 324 c 128,-1,67
 335 329 335 329 333 334 c 0,68,69
 327 344 327 344 317 343 c 0,70,71
 311 343 311 343 300.5 336.5 c 128,-1,72
 290 330 290 330 285 324 c 1,73,74
 320 289 320 289 320 241 c 0,75,76
 320 185 320 185 280 151.5 c 128,-1,77
 240 118 240 118 184 118 c 0,78,79
 141 118 141 118 112 135 c 1,80,81
 98 115 98 115 98 89 c 0,82,83
 98 66 98 66 113 55.5 c 128,-1,84
 128 45 128 45 150 45 c 0,30,31
EndSplineSet
Validated: 19457
EndChar

StartChar: h
Encoding: 104 104 29
Width: 425
VWidth: 800
Flags: W
HStem: -2 26<12 61 143 186 250 293 376 422> 308 43<202 286> 513 24<15 62>
VStem: 71 63<39 265 286 508> 302 63<40 293>
LayerCount: 3
Fore
SplineSet
134.4 228.8 m 2
 134.4 97.5996 l 2
 134.4 31.2002 141.6 28 182.4 24.7998 c 1
 184.8 22.4004 186.4 16.7998 186.4 11.2002 c 0
 186.4 5.59961 184.8 0.799805 182.4 -1.59961 c 1
 160 -0.799805 133.6 0 103.2 0 c 0
 71.2002 0 41.5996 -0.799805 15.2002 -1.59961 c 1
 12.7998 0.799805 12 5.59961 12 11.2002 c 0
 12 16.7998 12.7998 22.4004 15.2002 24.7998 c 1
 61.5996 28 71.2002 31.2002 71.2002 97.5996 c 2
 71.2002 447.2 l 2
 71.2002 514.4 61.5996 510.4 20 512.8 c 1
 16.7998 516 14.4004 524 14.4004 530.4 c 0
 14.4004 532.8 15.2002 535.2 15.2002 536.8 c 1
 47.2002 539.2 107.2 550.4 127.2 558.4 c 1
 134.4 558.4 137.6 556 137.6 550.4 c 2
 137.6 550.4 134.4 518.4 134.4 466.4 c 2
 134.4 286.4 l 2
 134.4 275.2 139.2 283.2 141.6 286.4 c 0
 190.4 340.8 238.4 351.2 277.6 351.2 c 0
 305.6 351.2 330.4 341.6 344 324 c 0
 363.2 299.2 365.6 260.8 365.6 216.8 c 2
 365.6 97.5996 l 2
 365.6 32 374.4 28.7998 419.2 24.7998 c 1
 421.6 22.4004 422.4 16.7998 422.4 11.2002 c 0
 422.4 5.59961 421.6 0.799805 419.2 -1.59961 c 1
 392.8 -0.799805 366.4 0 334.4 0 c 0
 302.4 0 275.2 -0.799805 252.8 -1.59961 c 1
 251.2 0.799805 249.6 5.59961 249.6 11.2002 c 0
 249.6 16.7998 251.2 22.4004 252.8 24.7998 c 1
 294.4 28.7998 302.4 32 302.4 97.5996 c 2
 302.4 219.2 l 2
 302.4 243.2 300.8 264.8 292.8 280.8 c 0
 284 299.2 267.2 308 250.4 308 c 0
 219.2 308 178.4 292 148 262.4 c 0
 141.6 255.2 134.4 245.6 134.4 228.8 c 2
EndSplineSet
Validated: 1
Layer: 2
SplineSet
134 229 m 2,0,-1
 134 98 l 2,1,2
 134 50 134 50 142 38.5 c 128,-1,3
 150 27 150 27 182 25 c 1,4,5
 186 21 186 21 186 11 c 0,6,7
 186 2 186 2 182 -2 c 1,8,9
 137 0 137 0 103 0 c 0,10,11
 68 0 68 0 15 -2 c 1,12,13
 12 1 12 1 12 11 c 128,-1,14
 12 21 12 21 15 25 c 1,15,16
 52 27 52 27 61.5 38.5 c 128,-1,17
 71 50 71 50 71 98 c 2,18,-1
 71 447 l 2,19,20
 71 473 71 473 70 485.5 c 128,-1,21
 69 498 69 498 60 504 c 128,-1,22
 51 510 51 510 46.5 510.5 c 128,-1,23
 42 511 42 511 20 513 c 1,24,25
 14 519 14 519 14 530 c 0,26,27
 14 532 14 532 14.5 534 c 128,-1,28
 15 536 15 536 15 537 c 0,29,30
 86 543 86 543 127 558 c 1,31,32
 137 558 137 558 138 550 c 0,33,34
 135 518 135 518 134 466 c 2,35,-1
 134 286 l 2,36,37
 134 276 134 276 142 286 c 1,38,39
 200 351 200 351 278 351 c 0,40,41
 324 351 324 351 344 324 c 0,42,43
 366 296 366 296 366 217 c 2,44,-1
 366 98 l 2,45,46
 366 51 366 51 375 39.5 c 128,-1,47
 384 28 384 28 419 25 c 1,48,49
 422 22 422 22 422 11 c 0,50,51
 422 1 422 1 419 -2 c 1,52,53
 366 0 366 0 334 0 c 0,54,55
 297 0 297 0 253 -2 c 1,56,57
 250 3 250 3 250 11 c 0,58,59
 250 20 250 20 253 25 c 1,60,61
 286 28 286 28 294 39 c 128,-1,62
 302 50 302 50 302 98 c 2,63,-1
 302 219 l 2,64,65
 302 261 302 261 293 281 c 0,66,67
 280 308 280 308 250 308 c 0,68,69
 195 308 195 308 148 262 c 1,70,71
 134 247 134 247 134 229 c 2,0,-1
EndSplineSet
Validated: 19457
EndChar

StartChar: i
Encoding: 105 105 30
Width: 226
VWidth: 800
Flags: W
HStem: -2 26<21 71 156 206> 309 22<29 70> 438 80<81 144>
VStem: 72 80<446 509> 82 64<39 296>
LayerCount: 3
Fore
SplineSet
72 479.2 m 0xf0
 72 498.4 94.4004 517.6 113.6 517.6 c 0
 136 517.6 152 495.2 152 476 c 0
 152 459.2 132.8 437.6 110.4 437.6 c 0
 91.2002 437.6 72 458.4 72 479.2 c 0xf0
145.6 97.5996 m 2xe8
 145.6 31.2002 153.6 28 203.2 24.7998 c 1
 204.8 22.4004 206.4 16.7998 206.4 11.2002 c 0
 206.4 5.59961 204.8 0.799805 203.2 -1.59961 c 1
 176 -0.799805 145.6 0 113.6 0 c 0
 81.5996 0 51.2002 -0.799805 24 -1.59961 c 1
 22.4004 0.799805 20.7998 5.59961 20.7998 11.2002 c 0
 20.7998 16.7998 22.4004 22.4004 24 24.7998 c 1
 73.5996 28.7998 81.5996 31.2002 81.5996 97.5996 c 2
 81.5996 253.6 l 2
 81.5996 299.2 73.5996 304.8 30.4004 308.8 c 1
 28.7998 313.6 27.2002 325.6 28.7998 330.4 c 1
 83.2002 337.6 115.2 344.8 137.6 353.6 c 1
 144 353.6 148.8 351.2 148.8 348 c 2
 148.8 348 145.6 296.8 145.6 256.8 c 2
 145.6 97.5996 l 2xe8
EndSplineSet
Validated: 1
Layer: 2
SplineSet
72 479 m 0,0,1
 72 493 72 493 85.5 505.5 c 128,-1,2
 99 518 99 518 114 518 c 0,3,4
 130 518 130 518 141 504.5 c 128,-1,5
 152 491 152 491 152 476 c 0,6,7
 152 462 152 462 139 450 c 128,-1,8
 126 438 126 438 110 438 c 0,9,10
 96 438 96 438 84 451 c 128,-1,11
 72 464 72 464 72 479 c 0,0,1
146 98 m 2,12,13
 146 50 146 50 155.5 38.5 c 128,-1,14
 165 27 165 27 203 25 c 1,15,16
 206 20 206 20 206 11 c 0,17,18
 206 3 206 3 203 -2 c 1,19,20
 149 0 149 0 113.5 0 c 128,-1,21
 78 0 78 0 24 -2 c 1,22,23
 21 3 21 3 21 11 c 0,24,25
 21 20 21 20 24 25 c 1,26,27
 62 28 62 28 72 39 c 128,-1,28
 82 50 82 50 82 98 c 2,29,-1
 82 254 l 2,30,31
 82 288 82 288 72.5 297 c 128,-1,32
 63 306 63 306 30 309 c 1,33,34
 25 322 25 322 29 330 c 1,35,36
 104 340 104 340 138 354 c 1,37,38
 149 354 149 354 149 348 c 0,39,40
 146 297 146 297 146 257 c 2,41,-1
 146 98 l 2,12,13
EndSplineSet
Validated: 19457
EndChar

StartChar: j
Encoding: 106 106 31
Width: 197
VWidth: 800
Flags: W
HStem: -159 35<-7 66> 327 22<31 73> 457 80<82 145>
VStem: 74 80<465 528> 85 63<-62 315>
LayerCount: 3
Fore
SplineSet
73.5996 498.4 m 0xf0
 73.5996 517.6 96 536.8 115.2 536.8 c 0
 136.8 536.8 153.6 514.4 153.6 495.2 c 0
 153.6 478.4 134.4 456.8 112 456.8 c 0
 92.7998 456.8 73.5996 477.6 73.5996 498.4 c 0xf0
84.7998 272 m 2xe8
 84.7998 317.6 76 323.2 32.7998 327.2 c 1
 31.2002 332 29.5996 344.8 31.2002 349.6 c 1
 86.4004 356.8 118.4 364 140.8 372.8 c 1
 147.2 372.8 151.2 370.4 151.2 367.2 c 2
 151.2 367.2 148 316 148 276 c 2
 148 107.2 l 2
 148 -44 125.6 -101.6 88 -132 c 0
 58.4004 -156.8 16.7998 -159.2 0 -159.2 c 0
 -15.2002 -159.2 -44 -148 -44 -124.8 c 0
 -44 -110.4 -27.2002 -94.4004 -18.4004 -94.4004 c 0
 -0.799805 -94.4004 8.7998 -107.2 16.7998 -115.2 c 0
 22.4004 -120.8 32.7998 -124 41.5996 -124 c 0
 81.5996 -124 84.7998 -25.5996 84.7998 80 c 2
 84.7998 272 l 2xe8
EndSplineSet
Validated: 1
Layer: 2
SplineSet
74 498 m 0,0,1
 74 512 74 512 87.5 524.5 c 128,-1,2
 101 537 101 537 115 537 c 0,3,4
 130 537 130 537 142 523.5 c 128,-1,5
 154 510 154 510 154 495 c 0,6,7
 154 481 154 481 141 469 c 128,-1,8
 128 457 128 457 112 457 c 0,9,10
 98 457 98 457 86 470 c 128,-1,11
 74 483 74 483 74 498 c 0,0,1
85 272 m 2,12,13
 85 306 85 306 75.5 315 c 128,-1,14
 66 324 66 324 33 327 c 1,15,16
 28 341 28 341 31 350 c 1,17,18
 107 360 107 360 141 373 c 1,19,20
 151 373 151 373 151 367 c 0,21,22
 148 316 148 316 148 276 c 2,23,-1
 148 107 l 2,24,25
 148 -1 148 -1 133 -54 c 128,-1,26
 118 -107 118 -107 88 -132 c 0,27,28
 55 -159 55 -159 0 -159 c 0,29,30
 -14 -159 -14 -159 -29 -150 c 128,-1,31
 -44 -141 -44 -141 -44 -125 c 0,32,33
 -44 -115 -44 -115 -35 -104.5 c 128,-1,34
 -26 -94 -26 -94 -18 -94 c 0,35,36
 -14 -94 -14 -94 -10 -95.5 c 128,-1,37
 -6 -97 -6 -97 -3.5 -98 c 128,-1,38
 -1 -99 -1 -99 2.5 -102 c 128,-1,39
 6 -105 6 -105 8 -106 c 128,-1,40
 10 -107 10 -107 13 -110.5 c 128,-1,41
 16 -114 16 -114 17 -115 c 0,42,43
 26 -124 26 -124 42 -124 c 0,44,45
 69 -124 69 -124 77 -71 c 128,-1,46
 85 -18 85 -18 85 80 c 2,47,-1
 85 272 l 2,12,13
EndSplineSet
Validated: 19457
EndChar

StartChar: k
Encoding: 107 107 32
Width: 420
VWidth: 800
Flags: W
HStem: -2 26<13 61 142 179 357 408> 318 26<230 262 326 386> 513 24<14 62>
VStem: 70 63<39 167 187 502>
DStem2: 230 191 194 137 0.622392 -0.782705<-12.1138 187.689>
LayerCount: 3
Fore
SplineSet
70.4004 97.5996 m 2
 70.4004 447.2 l 2
 70.4004 511.2 61.5996 512.8 24.7998 512.8 c 2
 19.2002 512.8 l 1
 16 516 13.5996 524 13.5996 530.4 c 0
 13.5996 532.8 14.4004 535.2 14.4004 536.8 c 1
 46.4004 536.8 106.4 550.4 126.4 558.4 c 1
 133.6 558.4 136.8 556 136.8 550.4 c 2
 136.8 550.4 133.6 518.4 133.6 466.4 c 2
 133.6 187.2 l 1
 148.8 188.8 170.4 198.4 188 212 c 0
 208.8 227.2 233.6 254.4 252 277.6 c 0
 256 282.4 262.4 291.2 262.4 300 c 0
 262.4 308.8 256 318.4 233.6 318.4 c 1
 231.2 320.8 230.4 325.6 230.4 331.2 c 0
 230.4 336.8 231.2 342.4 233.6 344.8 c 1
 252 344.8 281.6 343.2 312 343.2 c 0
 340.8 343.2 363.2 344.8 381.6 344.8 c 1
 384 342.4 385.6 336.8 385.6 331.2 c 0
 385.6 325.6 384 320.8 381.6 318.4 c 1
 349.6 318.4 321.6 308.8 297.6 283.2 c 2
 227.2 210.4 l 2
 224 207.2 224 205.6 224 202.4 c 0
 224 198.4 226.4 194.4 229.6 191.2 c 2
 335.2 58.4004 l 2
 356.8 31.2002 376.8 28 404 24.7998 c 1
 406.4 22.4004 408 16.7998 408 11.2002 c 0
 408 5.59961 406.4 0.799805 404 -1.59961 c 1
 388 -1.59961 363.2 0 338.4 0 c 0
 322.4 0 304.8 -1.59961 288.8 -1.59961 c 0
 286.4 -1.59961 285.6 0 285.6 2.40039 c 0
 285.6 11.2002 275.2 26.4004 252 58.4004 c 2
 193.6 136.8 l 2
 184 149.6 176.8 156.8 168 162.4 c 1
 160 165.6 148.8 167.2 133.6 167.2 c 1
 133.6 97.5996 l 2
 133.6 31.2002 142.4 28 175.2 24.7998 c 1
 177.6 22.4004 179.2 16.7998 179.2 11.2002 c 0
 179.2 5.59961 177.6 0.799805 175.2 -1.59961 c 1
 156.8 -0.799805 130.4 0 102.4 0 c 0
 70.4004 0 43.2002 -0.799805 16.7998 -1.59961 c 1
 14.4004 0.799805 12.7998 5.59961 12.7998 11.2002 c 0
 12.7998 16.7998 14.4004 22.4004 16.7998 24.7998 c 1
 61.5996 28 70.4004 31.2002 70.4004 97.5996 c 2
EndSplineSet
Validated: 1
Layer: 2
SplineSet
70 98 m 2,0,-1
 70 447 l 2,1,2
 70 493 70 493 62 503 c 128,-1,3
 54 513 54 513 25 513 c 2,4,-1
 19 513 l 1,5,6
 13 519 13 519 14 530 c 0,7,8
 14 532 14 532 14 534 c 128,-1,9
 14 536 14 536 14 537 c 1,10,11
 36 537 36 537 73 544.5 c 128,-1,12
 110 552 110 552 126 558 c 1,13,14
 136 558 136 558 137 550 c 0,15,16
 134 518 134 518 134 466 c 2,17,-1
 134 187 l 1,18,19
 160 189 160 189 188 212 c 1,20,21
 217 233 217 233 252 278 c 0,22,23
 262 291 262 291 262 300 c 0,24,25
 262 318 262 318 234 318 c 1,26,27
 231 321 231 321 230 331 c 0,28,29
 230 341 230 341 234 345 c 1,30,31
 242 345 242 345 268.5 344 c 128,-1,32
 295 343 295 343 312 343 c 0,33,34
 328 343 328 343 351 344 c 128,-1,35
 374 345 374 345 382 345 c 1,36,37
 386 341 386 341 386 331 c 0,38,39
 386 322 386 322 382 318 c 1,40,41
 331 318 331 318 298 283 c 1,42,-1
 227 210 l 2,43,44
 224 207 224 207 224 202 c 0,45,46
 224 196 224 196 230 191 c 1,47,-1
 335 58 l 2,48,49
 349 40 349 40 364 34 c 128,-1,50
 379 28 379 28 404 25 c 1,51,52
 408 21 408 21 408 11 c 0,53,54
 408 2 408 2 404 -2 c 1,55,56
 397 -2 397 -2 374.5 -1 c 128,-1,57
 352 0 352 0 338 0 c 0,58,59
 330 0 330 0 313.5 -1 c 128,-1,60
 297 -2 297 -2 289 -2 c 0,61,62
 286 -2 286 -2 286 2 c 0,63,64
 286 12 286 12 252 58 c 2,65,-1
 194 137 l 2,66,67
 180 155 180 155 168 162 c 1,68,69
 156 167 156 167 134 167 c 1,70,-1
 134 98 l 2,71,72
 134 51 134 51 141.5 39 c 128,-1,73
 149 27 149 27 175 25 c 1,74,75
 179 21 179 21 179 11 c 0,76,77
 179 2 179 2 175 -2 c 1,78,79
 138 0 138 0 102 0 c 0,80,81
 69 0 69 0 17 -2 c 1,82,83
 13 2 13 2 13 11 c 0,84,85
 13 21 13 21 17 25 c 1,86,87
 52 27 52 27 61 38.5 c 128,-1,88
 70 50 70 50 70 98 c 2,0,-1
EndSplineSet
Validated: 19457
EndChar

StartChar: l
Encoding: 108 108 33
Width: 212
VWidth: 800
Flags: W
HStem: -2 26<14 65 148 199> 513 24<19 66>
VStem: 75 62<38 500>
LayerCount: 3
Fore
SplineSet
75.2002 97.5996 m 2
 75.2002 447.2 l 2
 75.2002 507.2 70.4004 509.6 24 512.8 c 1
 20 516 18.4004 524 18.4004 530.4 c 0
 18.4004 532.8 18.4004 535.2 19.2002 536.8 c 1
 51.2002 539.2 110.4 550.4 131.2 558.4 c 1
 137.6 558.4 140.8 556 140.8 550.4 c 2
 140.8 550.4 137.6 518.4 137.6 466.4 c 2
 137.6 97.5996 l 2
 137.6 31.2002 147.2 27.2002 195.2 24.7998 c 1
 198.4 22.4004 199.2 16.7998 199.2 11.2002 c 0
 199.2 5.59961 198.4 0.799805 195.2 -1.59961 c 1
 169.6 -0.799805 139.2 0 107.2 0 c 0
 75.2002 0 44.7998 -0.799805 17.5996 -1.59961 c 1
 14.4004 0.799805 13.5996 5.59961 13.5996 11.2002 c 0
 13.5996 16.7998 14.4004 22.4004 17.5996 24.7998 c 1
 65.5996 27.2002 75.2002 31.2002 75.2002 97.5996 c 2
EndSplineSet
Validated: 1
Layer: 2
SplineSet
75 98 m 2,0,-1
 75 447 l 2,1,2
 75 491 75 491 67 500.5 c 128,-1,3
 59 510 59 510 24 513 c 1,4,5
 18 518 18 518 18 530 c 0,6,7
 18 535 18 535 19 537 c 1,8,9
 89 543 89 543 131 558 c 1,10,11
 141 558 141 558 141 550 c 0,12,13
 138 518 138 518 138 466 c 2,14,-1
 138 98 l 2,15,16
 138 50 138 50 148 38 c 128,-1,17
 158 26 158 26 195 25 c 1,18,19
 199 22 199 22 199 11 c 0,20,21
 199 1 199 1 195 -2 c 1,22,23
 144 0 144 0 107 0 c 0,24,25
 72 0 72 0 18 -2 c 1,26,27
 14 1 14 1 14 11 c 128,-1,28
 14 21 14 21 18 25 c 1,29,30
 56 27 56 27 65.5 38.5 c 128,-1,31
 75 50 75 50 75 98 c 2,0,-1
EndSplineSet
Validated: 19457
EndChar

StartChar: n
Encoding: 110 110 34
Width: 452
VWidth: 800
Flags: W
HStem: -2 26<24 73 156 198 257 300 383 430> 308 43<212 293> 308 22<30 73>
VStem: 83 63<40 265> 310 63<40 280>
LayerCount: 3
Fore
SplineSet
153.6 286.4 m 0xb8
 200.8 340.8 245.6 351.2 284.8 351.2 c 0
 312.8 351.2 337.6 341.6 351.2 324 c 0
 369.6 299.2 372.8 260.8 372.8 216.8 c 2
 372.8 97.5996 l 2
 372.8 32 381.6 28.7998 426.4 24.7998 c 1
 428.8 22.4004 429.6 16.7998 429.6 11.2002 c 0
 429.6 5.59961 428.8 0.799805 426.4 -1.59961 c 1
 402.4 -0.799805 373.6 0 341.6 0 c 0
 309.6 0 284 -0.799805 260 -1.59961 c 1
 257.6 0.799805 256.8 5.59961 256.8 11.2002 c 0
 256.8 16.7998 257.6 22.4004 260 24.7998 c 1
 301.6 28.7998 309.6 32 309.6 97.5996 c 2
 309.6 219.2 l 2
 309.6 243.2 308 264.8 300 280.8 c 0
 290.4 299.2 273.6 308 257.6 308 c 0xd8
 226.4 308 190.4 292 160 262.4 c 0
 153.6 255.2 146.4 245.6 146.4 228.8 c 2
 146.4 97.5996 l 2
 146.4 32 154.4 28.7998 195.2 24.7998 c 1
 197.6 22.4004 198.4 16.7998 198.4 11.2002 c 0
 198.4 5.59961 197.6 0.799805 195.2 -1.59961 c 1
 171.2 -0.799805 147.2 0 115.2 0 c 0
 83.2002 0 51.2002 -0.799805 27.2002 -1.59961 c 1
 24.7998 0.799805 24 5.59961 24 11.2002 c 0
 24 16.7998 24.7998 22.4004 27.2002 24.7998 c 1
 75.2002 28.7998 83.2002 32 83.2002 97.5996 c 2
 83.2002 253.6 l 2
 83.2002 300 74.4004 304 31.2002 308 c 1
 29.5996 312.8 28 325.6 29.5996 330.4 c 1
 84.7998 337.6 105.6 344.8 128 353.6 c 1
 134.4 353.6 136 350.4 137.6 347.2 c 0
 141.6 338.4 143.2 308 144 286.4 c 0
 144 278.4 148.8 280.8 153.6 286.4 c 0xb8
EndSplineSet
Validated: 1
Layer: 2
SplineSet
154 286 m 0,0,1
 210 351 210 351 285 351 c 0,2,3
 331 351 331 351 351 324 c 0,4,5
 373 295 373 295 373 217 c 2,6,-1
 373 98 l 2,7,8
 373 51 373 51 382 39.5 c 128,-1,9
 391 28 391 28 426 25 c 1,10,11
 429 22 429 22 430 11 c 0,12,13
 430 1 430 1 426 -2 c 1,14,15
 378 0 378 0 342 0 c 0,16,17
 308 0 308 0 260 -2 c 1,18,19
 257 1 257 1 257 11 c 128,-1,20
 257 21 257 21 260 25 c 1,21,22
 293 28 293 28 301.5 39 c 128,-1,23
 310 50 310 50 310 98 c 2,24,-1
 310 219 l 2,25,26
 310 261 310 261 300 281 c 0,27,28
 286 308 286 308 258 308 c 0,29,30
 208 308 208 308 160 262 c 1,31,32
 146 247 146 247 146 229 c 2,33,-1
 146 98 l 2,34,35
 146 51 146 51 154.5 39.5 c 128,-1,36
 163 28 163 28 195 25 c 1,37,38
 198 22 198 22 198 11 c 0,39,40
 198 1 198 1 195 -2 c 1,41,42
 147 0 147 0 115 0 c 0,43,44
 75 0 75 0 27 -2 c 1,45,46
 24 1 24 1 24 11 c 128,-1,47
 24 21 24 21 27 25 c 1,48,49
 65 28 65 28 74 39 c 128,-1,50
 83 50 83 50 83 98 c 2,51,-1
 83 254 l 2,52,53
 83 288 83 288 74 296.5 c 128,-1,54
 65 305 65 305 31 308 c 1,55,56
 26 322 26 322 30 330 c 1,57,58
 89 338 89 338 128 354 c 1,59,60
 134 354 134 354 138 347 c 0,61,62
 143 337 143 337 144 286 c 0,63,64
 144 275 144 275 154 286 c 0,0,1
EndSplineSet
Validated: 19457
EndChar

StartChar: r
Encoding: 114 114 35
Width: 300
VWidth: 800
Flags: W
HStem: -2 26<18 70 156 213> 302 50<193 251> 308 22<27 71>
VStem: 81 63<37 260 281 298>
LayerCount: 3
Fore
SplineSet
141.6 286.4 m 0xb0
 141.6 282.4 145.6 276 150.4 284.8 c 0
 168.8 316 201.6 351.2 239.2 351.2 c 0
 272.8 351.2 287.2 328 287.2 312.8 c 0
 287.2 292.8 268.8 272.8 249.6 272.8 c 0
 235.2 272.8 226.4 283.2 220.8 291.2 c 0
 214.4 299.2 207.2 301.6 200 301.6 c 0xd0
 190.4 301.6 172 275.2 163.2 262.4 c 0
 153.6 248 144 229.6 144 208.8 c 2
 144 97.5996 l 2
 144 31.2002 153.6 24.7998 209.6 24.7998 c 1
 212 22.4004 212.8 16.7998 212.8 11.2002 c 0
 212.8 5.59961 212 0.799805 209.6 -1.59961 c 1
 181.6 -1.59961 144.8 0 112.8 0 c 0
 80.7998 0 49.5996 -1.59961 21.5996 -1.59961 c 1
 19.2002 0.799805 17.5996 5.59961 17.5996 11.2002 c 0
 17.5996 16.7998 19.2002 22.4004 21.5996 24.7998 c 1
 71.2002 24.7998 80.7998 31.2002 80.7998 97.5996 c 2
 80.7998 253.6 l 2
 80.7998 300 72 308 28.7998 308 c 1
 27.2002 312.8 25.5996 325.6 27.2002 330.4 c 1
 82.4004 337.6 103.2 344.8 125.6 353.6 c 1
 132 353.6 133.6 350.4 135.2 347.2 c 0
 138.4 338.4 141.6 318.4 141.6 286.4 c 0xb0
EndSplineSet
Validated: 1
Layer: 2
SplineSet
142 286 m 0,0,1
 142 282 142 282 144.5 280.5 c 128,-1,2
 147 279 147 279 150 285 c 0,3,4
 166 312 166 312 190 331.5 c 128,-1,5
 214 351 214 351 239 351 c 0,6,7
 262 351 262 351 274.5 338.5 c 128,-1,8
 287 326 287 326 287 313 c 0,9,10
 287 298 287 298 275.5 285.5 c 128,-1,11
 264 273 264 273 250 273 c 0,12,13
 234 273 234 273 221 291 c 0,14,15
 213 301 213 301 200 302 c 0,16,17
 190 302 190 302 163 262 c 0,18,19
 144 233 144 233 144 209 c 2,20,-1
 144 98 l 2,21,22
 144 49 144 49 155 37 c 128,-1,23
 166 25 166 25 210 25 c 1,24,25
 213 22 213 22 213 11 c 0,26,27
 213 1 213 1 210 -2 c 1,28,29
 196 -2 196 -2 163 -1 c 128,-1,30
 130 0 130 0 113 0 c 128,-1,31
 96 0 96 0 65.5 -1 c 128,-1,32
 35 -2 35 -2 22 -2 c 1,33,34
 18 2 18 2 18 11 c 0,35,36
 18 21 18 21 22 25 c 1,37,38
 60 25 60 25 70.5 37 c 128,-1,39
 81 49 81 49 81 98 c 2,40,-1
 81 254 l 2,41,42
 81 288 81 288 71.5 298 c 128,-1,43
 62 308 62 308 29 308 c 1,44,45
 24 322 24 322 27 330 c 1,46,47
 86 338 86 338 126 354 c 1,48,49
 132 354 132 354 135 347 c 1,50,51
 142 329 142 329 142 286 c 0,0,1
EndSplineSet
Validated: 19457
EndChar

StartChar: s
Encoding: 115 115 36
Width: 294
VWidth: 800
Flags: W
HStem: 0 26<95 189> 333 26<118 197>
VStem: 31 25<78 122> 42 57<238 318> 212 61<46 124> 230 26<255 297>
LayerCount: 3
Fore
SplineSet
31.2002 118.4 m 1xe8
 33.5996 120.8 39.2002 122.4 44.7998 122.4 c 0
 49.5996 122.4 53.5996 120.8 56 119.2 c 1
 66.4004 74.4004 76.7998 26.4004 144 26.4004 c 0
 173.6 26.4004 212 43.2002 212 82.4004 c 0xe8
 212 116.8 196.8 133.6 130.4 160.8 c 0
 68.7998 186.4 42.4004 211.2 42.4004 269.6 c 0
 42.4004 320.8 96 359.2 155.2 359.2 c 0
 196.8 359.2 235.2 348 260 344 c 1
 260 317.6 255.2 288 255.2 259.2 c 1
 252.8 256 246.4 255.2 240.8 255.2 c 0
 236 255.2 232 256 229.6 258.4 c 1
 219.2 326.4 172.8 332.8 155.2 332.8 c 0
 128 332.8 99.2002 314.4 99.2002 281.6 c 0xd4
 99.2002 237.6 131.2 224.8 179.2 207.2 c 0
 233.6 187.2 272.8 155.2 272.8 100.8 c 0
 272.8 21.5996 190.4 0 145.6 0 c 0
 116 0 94.4004 3.2002 72.7998 8.7998 c 0
 67.2002 10.4004 62.4004 10.4004 56.7998 10.4004 c 0
 52.7998 10.4004 44.7998 9.59961 36.7998 8 c 1
 36.7998 41.5996 31.2002 79.2002 31.2002 118.4 c 1xe8
EndSplineSet
Validated: 1
Layer: 2
SplineSet
31 118 m 1,0,1
 35 122 35 122 45 122 c 0,2,3
 51 122 51 122 56 119 c 1,4,5
 60 101 60 101 63 92 c 128,-1,6
 66 83 66 83 72.5 68 c 128,-1,7
 79 53 79 53 87 45.5 c 128,-1,8
 95 38 95 38 110 32 c 128,-1,9
 125 26 125 26 144 26 c 0,10,11
 170 26 170 26 191 40.5 c 128,-1,12
 212 55 212 55 212 82 c 0,13,14
 212 108 212 108 195.5 124.5 c 128,-1,15
 179 141 179 141 130 161 c 0,16,17
 82 181 82 181 62 204 c 128,-1,18
 42 227 42 227 42 270 c 0,19,20
 42 308 42 308 76 333.5 c 128,-1,21
 110 359 110 359 155 359 c 0,22,23
 173 359 173 359 192.5 356.5 c 128,-1,24
 212 354 212 354 233 349.5 c 128,-1,25
 254 345 254 345 260 344 c 1,26,27
 260 331 260 331 257.5 302.5 c 128,-1,28
 255 274 255 274 255 259 c 1,29,30
 252 255 252 255 241 255 c 0,31,32
 233 255 233 255 230 258 c 1,33,34
 226 282 226 282 216.5 298 c 128,-1,35
 207 314 207 314 194.5 321 c 128,-1,36
 182 328 182 328 173 330.5 c 128,-1,37
 164 333 164 333 155 333 c 0,38,39
 133 333 133 333 116 319 c 128,-1,40
 99 305 99 305 99 282 c 0,41,42
 99 252 99 252 117.5 237.5 c 128,-1,43
 136 223 136 223 179 207 c 0,44,45
 273 173 273 173 273 101 c 0,46,47
 273 73 273 73 259.5 52 c 128,-1,48
 246 31 246 31 225.5 20.5 c 128,-1,49
 205 10 205 10 185 5 c 128,-1,50
 165 0 165 0 146 0 c 0,51,52
 107 0 107 0 73 9 c 0,53,54
 67 11 67 11 57 10 c 0,55,56
 49 10 49 10 37 8 c 1,57,58
 37 24 37 24 34 61 c 128,-1,59
 31 98 31 98 31 118 c 1,0,1
EndSplineSet
Validated: 19457
EndChar

StartChar: uniA64C
Encoding: 42572 42572 38
Width: 829
VWidth: 800
GlyphClass: 2
Flags: W
HStem: -22 6<260 299 531 569> -9 112<251 296 531 578> -3 5<226 242 316 346 482 512 586 602> 9 38<322 381 450 509> 110 6<263 295 533 565> 276 6<320 381 449 510> 282 23<107 112 696 723> 303 4<408 423> 366 33<58 163 668 772> 409 96<59 169 658 769> 513 23<108 114> 585 4<233 249 579 595> 621 6<238 251> 635 35<219 262 565 608> 678 6<211 234 594 617> 730 5<210 234 594 618> 743 26<191 249 575 636> 765 30<225 330 501 603> 775 19<247 290 327 330> 782 16G<339 352> 803 6<292 342 485 536> 813 6<198 259 568 630>
VStem: 22 6<358 397 450 499> 43 5<286 329 524 577> 55 53<207 254 536 662> 114 53<174 254 536 695> 174 6<254 330 524 656> 196 6<355 397> 199 6<446 493 658 679> 215 14<55 58> 220 4<598 614> 238 58<9 86> 245 6<695 720> 260 26<679 734> 270 39<598 637> 286 5<241 254> 294 20<680 722> 305 17<34 53> 319 43<605 730> 341 6<119 168 542 570> 354 58<95 206> 364 5<754 787> 369 6<635 689> 394 4<278 294> 419 55<94 207> 432 4<278 294> 454 5<639 687> 459 5<756 788> 465 46<598 730> 481 6<118 166 542 571> 509 14<46 54> 516 20<680 722> 521 37<597 636> 530 58<8 83> 537 5<241 255> 544 23<679 734> 578 6<695 720> 604 4<598 614> 622 6<448 492 660 678> 648 5<255 329 524 665> 660 56<184 254 536 692> 722 50<205 254 536 662> 779 6<283 330 523 581> 799 6<356 400 447 502>
AnchorPoint: "Diacritic" 416 891 basechar 0
LayerCount: 3
Fore
SplineSet
648.8 596.8 m 0xadfe381408a04d10
 648.8 669.6 645.6 730.4 604.8 730.4 c 0
 591.2 730.4 583.2 719.2 583.2 704 c 0
 583.2 695.2 592.8 684 606.4 684 c 0
 610.4 684 615.2 685.6 620 688 c 1
 624.8 683.2 626.4 676.8 626.4 670.4 c 0
 626.4 652.8 613.6 632.8 596 624.8 c 1
 603.2 620.8 608 613.6 608 605.6 c 0
 608 595.2 598.4 584.8 587.2 584.8 c 0
 579.2 584.8 572 590.4 568 597.6 c 1
 554.4 564 525.6 536 484.8 536 c 0
 483.2 536 482.4 536.8 482.4 539.2 c 0
 482.4 541.6 482.4 544 482.4 546.4 c 0
 482.4 590.4 453.6 610.4 453.6 659.2 c 0
 453.6 678.4 457.6 702.4 470.4 734.4 c 1
 463.2 746.4 459.2 759.2 459.2 772 c 0
 459.2 788 464.8 803.2 476.8 814.4 c 1
 487.2 810.4 498.4 808.8 508.8 808.8 c 0
 537.6 808.8 568 818.4 602.4 818.4 c 0
 605.6 818.4 609.6 818.4 612.8 818.4 c 0
 745.6 818.4 784.8 660.8 784.8 525.6 c 1
 800 513.6 807.2 493.6 807.2 473.6 c 0
 807.2 456 801.6 439.2 792 425.6 c 1
 800.8 410.4 805.6 393.6 805.6 378.4 c 0
 805.6 359.2 799.2 341.6 784.8 327.2 c 1
 784.8 179.2 697.6 -3.2002 587.2 -3.2002 c 1
 580.8 -16 565.6 -22.4004 550.4 -22.4004 c 0
 534.4 -22.4004 518.4 -15.2002 510.4 -3.2002 c 1
 469.6 -3.2002 438.4 4 414.4 26.4004 c 1
 389.6 4 359.2 -3.2002 317.6 -3.2002 c 1
 310.4 -15.2002 294.4 -22.4004 278.4 -22.4004 c 0
 263.2 -22.4004 248 -16 240.8 -3.2002 c 1
 131.2 -3.2002 43.2002 179.2 43.2002 327.2 c 1
 29.5996 341.6 22.4004 359.2 22.4004 377.6 c 0
 22.4004 393.6 27.2002 409.6 36.7998 425.6 c 1
 26.4004 439.2 21.5996 456.8 21.5996 474.4 c 0
 21.5996 494.4 28.7998 513.6 43.2002 525.6 c 1
 43.2002 660.8 82.4004 818.4 215.2 818.4 c 0
 218.4 818.4 222.4 818.4 225.6 818.4 c 0
 260 818.4 289.6 808.8 318.4 808.8 c 0
 329.6 808.8 340 810.4 350.4 814.4 c 1
 362.4 803.2 368.8 786.4 368.8 770.4 c 0
 368.8 757.6 365.6 745.6 358.4 734.4 c 1
 370.4 703.2 375.2 679.2 375.2 660 c 0
 375.2 610.4 346.4 590.4 346.4 546.4 c 0
 346.4 544 346.4 541.6 346.4 539.2 c 0
 346.4 536.8 345.6 536 343.2 536 c 0
 303.2 536 273.6 564 260 597.6 c 1
 256.8 590.4 248.8 584.8 240.8 584.8 c 0
 230.4 584.8 220 595.2 220 605.6 c 0
 220 613.6 225.6 620.8 232 624 c 1
 214.4 632 200.8 652 200.8 669.6 c 0
 200.8 676 203.2 683.2 208 688 c 1
 212.8 685.6 217.6 684 221.6 684 c 0
 235.2 684 244.8 695.2 244.8 704 c 0
 244.8 719.2 236.8 730.4 223.2 730.4 c 0
 182.4 730.4 180 667.2 180 591.2 c 0
 180 570.4 180 548 180 525.6 c 1
 196.8 512 205.6 488.8 205.6 466.4 c 0xadfe392d0bba5d30
 205.6 450.4 201.6 435.2 191.2 423.2 c 1
 197.6 406.4 202.4 390.4 202.4 376 c 0
 202.4 357.6 196 341.6 180 327.2 c 1
 180 235.2 188.8 112.8 242.4 97.5996 c 1
 250.4 110.4 264.8 116 278.4 116 c 0
 293.6 116 308.8 108.8 316.8 96 c 1
 333.6 99.2002 340.8 118.4 340.8 141.6 c 0
 340.8 180 320.8 229.6 286.4 239.2 c 1
 286.4 272 315.2 282.4 348 282.4 c 0
 365.6 282.4 383.2 279.2 396.8 276 c 1
 395.2 279.2 394.4 282.4 394.4 286.4 c 0
 394.4 297.6 403.2 307.2 415.2 307.2 c 0
 427.2 307.2 436 297.6 436 286.4 c 0
 436 282.4 435.2 279.2 433.6 276 c 1
 447.2 279.2 464.8 282.4 481.6 282.4 c 0
 512.8 282.4 541.6 273.6 541.6 244 c 0
 541.6 242.4 541.6 240.8 541.6 239.2 c 1
 508 229.6 486.4 180 486.4 141.6 c 0
 486.4 118.4 494.4 99.2002 511.2 96 c 1
 519.2 108.8 535.2 116 550.4 116 c 0
 564 116 578.4 110.4 586.4 97.5996 c 1
 639.2 112.8 648 235.2 648 327.2 c 1
 632 341.6 625.6 357.6 625.6 375.2 c 0
 625.6 390.4 630.4 406.4 637.6 423.2 c 1
 627.2 435.2 622.4 450.4 622.4 466.4 c 0
 622.4 488.8 632 512 648 525.6 c 1
 648 549.6 648.8 573.6 648.8 596.8 c 0xadfe381408a04d10
415.2 303.2 m 0
 406.4 303.2 398.4 295.2 398.4 286.4 c 0
 398.4 281.6 400.8 276.8 404.8 273.6 c 1
 408.8 272 412 271.2 415.2 269.6 c 1
 418.4 271.2 421.6 272.8 425.6 273.6 c 1
 429.6 276.8 432 281.6 432 286.4 c 0
 432 295.2 424 303.2 415.2 303.2 c 0
415.2 116.8 m 1
 424 81.5996 453.6 46.4004 504.8 46.4004 c 0
 509.6 46.4004 509.6 53.5996 504.8 53.5996 c 0
 447.2 53.5996 419.2 104.8 419.2 149.6 c 0
 419.2 184 436 217.6 468 231.2 c 1
 474.4 232.8 471.2 235.2 466.4 232.8 c 0
 440 219.2 422.4 194.4 415.2 167.2 c 1
 408 194.4 390.4 219.2 364 232.8 c 0
 359.2 235.2 356.8 233.6 362.4 231.2 c 0
 394.4 216.8 411.2 182.4 411.2 148 c 0
 411.2 104 384 53.5996 325.6 53.5996 c 0
 320.8 53.5996 320.8 46.4004 325.6 46.4004 c 0x9cfe180404400c10
 376.8 46.4004 406.4 80.7998 415.2 116.8 c 1
212.8 57.5996 m 0
 180.8 63.2002 119.2 156 119.2 250.4 c 0
 119.2 256 111.2 256 111.2 250.4 c 0x8cfe188400000c10
 111.2 152 179.2 55.2002 210.4 50.4004 c 1
 215.2 48.7998 217.6 56.7998 212.8 57.5996 c 0
161.6 373.6 m 1
 163.2 376 162.4 378.4 158.4 376.8 c 0
 145.6 369.6 128 365.6 109.6 365.6 c 0
 90.4004 365.6 72 369.6 60.7998 376.8 c 0
 57.5996 379.2 55.2002 377.6 59.2002 373.6 c 0
 70.4004 364 85.5996 356.8 103.2 356.8 c 1
 104 340 107.2 318.4 108 308.8 c 0
 108 304 113.6 304 113.6 308.8 c 0
 113.6 311.2 112.8 314.4 112.8 317.6 c 0
 112.8 328.8 114.4 344 114.4 356.8 c 1x8efe1a4400000c10
 132 357.6 149.6 364 161.6 373.6 c 1
287.2 744 m 1
 305.6 729.6 314.4 696 314.4 671.2 c 0x8cff5844b0000c10
 314.4 648 308.8 628.8 308.8 610.4 c 0
 308.8 607.2 308.8 603.2 309.6 600 c 1
 311.2 596 312.8 596 312 600 c 0
 311.2 603.2 311.2 605.6 311.2 608.8 c 0
 311.2 628.8 319.2 651.2 319.2 677.6 c 0
 319.2 716 302.4 744.8 273.6 763.2 c 1
 281.6 761.6 289.6 761.6 296.8 761.6 c 0
 312 761.6 324.8 764 330.4 772 c 0
 333.6 776 331.2 776 328.8 772 c 0
 324.8 766.4 315.2 764.8 304 764.8 c 0x8cfe980450000c10
 290.4 764.8 274.4 767.2 260 769.6 c 1
 249.6 774.4 238.4 776.8 226.4 776.8 c 0
 120.8 776.8 108 646.4 108 557.6 c 0
 108 551.2 108 544.8 108 539.2 c 0
 108 535.2 114.4 535.2 114.4 539.2 c 0
 114.4 624 117.6 760.8 216.8 769.6 c 0
 219.2 769.6 221.6 769.6 223.2 769.6 c 0
 242.4 769.6 258.4 764 272.8 755.2 c 1
 281.6 744.8 285.6 728.8 285.6 713.6 c 0
 285.6 691.2 276.8 669.6 261.6 665.6 c 0
 257.6 664.8 257.6 661.6 261.6 662.4 c 0
 281.6 667.2 294.4 690.4 294.4 715.2 c 0x8cff5844b0000c10
 294.4 724.8 292 735.2 287.2 744 c 1
719.2 250.4 m 0
 719.2 256 711.2 256 711.2 250.4 c 0
 702.4 156 649.6 63.2002 617.6 57.5996 c 0
 612.8 56.7998 614.4 48.7998 620 50.4004 c 0
 651.2 55.2002 710.4 152 719.2 250.4 c 0
771.2 373.6 m 0
 775.2 377.6 772.8 379.2 768.8 376.8 c 0
 757.6 369.6 739.2 365.6 720 365.6 c 0
 702.4 365.6 684.8 369.6 672 376.8 c 0
 668 378.4 667.2 376 668.8 373.6 c 1
 680.8 364 698.4 357.6 716 356.8 c 1
 716 343.2 716.8 327.2 716.8 316 c 0
 716.8 312.8 716.8 310.4 716.8 308.8 c 0
 716.8 304 721.6 304 721.6 308.8 c 0
 723.2 318.4 725.6 340 727.2 356.8 c 1x8efe180400000c90
 744.8 357.6 760 364 771.2 373.6 c 0
556.8 763.2 m 1
 528 744.8 511.2 716 511.2 677.6 c 0
 511.2 651.2 519.2 628.8 519.2 608.8 c 0
 519.2 605.6 519.2 603.2 518.4 600 c 0
 517.6 596 519.2 596 520 600 c 0
 520.8 604 520.8 608 520.8 612 c 0
 520.8 629.6 516 648.8 516 671.2 c 0
 516 696 524.8 729.6 543.2 744 c 1
 538.4 735.2 536 724.8 536 715.2 c 0
 536 690.4 548.8 667.2 568.8 662.4 c 0
 572 661.6 572 664.8 568.8 665.6 c 0
 552.8 669.6 544 691.2 544 712.8 c 0
 544 728.8 548.8 744.8 557.6 755.2 c 1
 572 764 588 769.6 607.2 769.6 c 0
 608.8 769.6 611.2 769.6 613.6 769.6 c 0
 712.8 760.8 716 624 716 539.2 c 0
 716 535.2 721.6 535.2 721.6 539.2 c 0
 721.6 547.2 721.6 555.2 721.6 564 c 0
 721.6 652 707.2 776.8 604 776.8 c 0x8cff580400052c50
 592 776.8 580.8 774.4 570.4 769.6 c 1
 555.2 767.2 539.2 764.8 526.4 764.8 c 0x8cfe980400052c50
 514.4 764.8 505.6 766.4 501.6 772 c 0
 498.4 776 496.8 776 500 772 c 0
 504.8 764 517.6 761.6 533.6 761.6 c 0
 540.8 761.6 548.8 761.6 556.8 763.2 c 1
240 8.7998 m 1
 140 14.4004 56 191.2 55.2002 314.4 c 1x8cfe188400000c10
 68.7998 287.2 89.5996 274.4 110.4 274.4 c 0
 132 274.4 154.4 288.8 167.2 316 c 1
 167.2 224.8 179.2 97.5996 239.2 83.2002 c 1
 232.8 72.7998 229.6 59.2002 229.6 45.5996 c 0
 229.6 30.4004 233.6 16 240 8.7998 c 1
238.4 49.5996 m 0xccfe180600000c10
 238.4 79.2002 256 103.2 280.8 103.2 c 0
 292 103.2 302.4 97.5996 308 85.5996 c 1
 300 75.2002 296.8 60.7998 296.8 47.2002 c 0
 296.8 32.7998 300.8 17.5996 308 8.7998 c 1
 303.2 -2.40039 291.2 -8.7998 278.4 -8.7998 c 0
 250.4 -8.7998 238.4 19.2002 238.4 49.5996 c 0xccfe180600000c10
177.6 416.8 m 1
 184 405.6 188 392.8 188 379.2 c 0
 188 362.4 181.6 345.6 165.6 330.4 c 1
 156 298.4 133.6 283.2 111.2 283.2 c 0
 88.7998 283.2 67.2002 299.2 58.4004 328.8 c 1
 44 342.4 36.7998 360.8 36.7998 378.4 c 0x8efe1c0400000c10
 36.7998 393.6 41.5996 408 51.2002 419.2 c 1
 68 404.8 92.7998 398.4 116 398.4 c 0
 140.8 398.4 164 404.8 177.6 416.8 c 1
528 245.6 m 1
 500.8 232.8 474.4 188.8 474.4 144.8 c 0
 474.4 111.2 488 90.4004 510.4 82.4004 c 1
 517.6 75.2002 522.4 60.7998 522.4 45.5996 c 0
 522.4 32.7998 519.2 20 510.4 9.59961 c 1
 505.6 8.7998 500 8.7998 495.2 8.7998 c 0
 464.8 8.7998 435.2 20.7998 414.4 47.2002 c 1
 392.8 20.7998 364.8 8.7998 332.8 8.7998 c 0
 328 8.7998 322.4 8.7998 316.8 9.59961 c 1
 308 18.4004 304.8 32 304.8 44.7998 c 0
 304.8 61.5996 309.6 77.5996 315.2 84.7998 c 1
 343.2 90.4004 353.6 112 353.6 142.4 c 0x9cfe180404400c10
 353.6 185.6 333.6 230.4 298.4 245.6 c 1
 300 264 318.4 270.4 340 270.4 c 0
 366.4 270.4 397.6 260.8 415.2 248 c 1
 432.8 260.8 464 272 488.8 272 c 0
 509.6 272 526.4 264.8 528 245.6 c 1
116.8 408.8 m 0
 69.5996 408.8 34.4004 435.2 34.4004 474.4 c 0
 34.4004 494.4 40.7998 507.2 55.2002 516.8 c 1x8cfe188400000c10
 68 508 88.7998 504.8 109.6 504.8 c 0
 132 504.8 154.4 508.8 168 516.8 c 1
 184.8 505.6 192 491.2 192 467.2 c 0
 192 428.8 160 408.8 116.8 408.8 c 0
588.8 48.7998 m 0x8cfe180400008c10
 588.8 18.4004 576.8 -9.59961 548.8 -9.59961 c 0
 536 -9.59961 524 -3.2002 519.2 8 c 1
 526.4 16.7998 530.4 32 530.4 46.4004 c 0
 530.4 60 527.2 74.4004 519.2 84.7998 c 1
 524.8 96 535.2 101.6 547.2 101.6 c 0
 559.2 101.6 573.6 95.2002 581.6 81.5996 c 0
 586.4 73.5996 588.8 61.5996 588.8 48.7998 c 0x8cfe180400008c10
772 313.6 m 1x8cfe180400000cd0
 771.2 189.6 687.2 13.5996 587.2 8 c 1
 593.6 15.2002 597.6 29.5996 597.6 44.7998 c 0
 597.6 58.4004 594.4 72 588 82.4004 c 1
 648 96 660 224 660 314.4 c 1
 672.8 288 694.4 273.6 716.8 273.6 c 0
 737.6 273.6 758.4 286.4 772 313.6 c 1x8cfe180400000cd0
55.2002 525.6 m 1x8cff18c480000c10
 55.2002 683.2 111.2 805.6 221.6 805.6 c 0x8cff58c480000c10
 260.8 805.6 288 794.4 318.4 794.4 c 0
 328 794.4 337.6 796 348 798.4 c 1
 353.6 791.2 356 782.4 356 772.8 c 0
 356 760 351.2 747.2 341.6 737.6 c 1
 356.8 706.4 362.4 682.4 362.4 663.2 c 0
 362.4 618.4 334.4 594.4 333.6 549.6 c 1
 288 559.2 272.8 601.6 269.6 636.8 c 1x8cfe98c450000c10
 265.6 636 260.8 635.2 256.8 635.2 c 0
 233.6 635.2 214.4 648.8 214.4 668.8 c 0
 214.4 669.6 214.4 670.4 214.4 671.2 c 1
 217.6 670.4 220.8 670.4 224 670.4 c 0
 246.4 670.4 260 688.8 260 704.8 c 0
 260 732 242.4 743.2 223.2 743.2 c 0
 172 743.2 166.4 674.4 166.4 608.8 c 0
 166.4 583.2 167.2 558.4 167.2 539.2 c 0
 167.2 534.4 167.2 529.6 167.2 525.6 c 1
 152.8 517.6 133.6 512.8 112.8 512.8 c 0
 93.5996 512.8 73.5996 516.8 55.2002 525.6 c 1x8cff18c480000c10
776 417.6 m 1
 785.6 406.4 790.4 392 790.4 376.8 c 0
 790.4 359.2 783.2 340.8 768.8 327.2 c 1
 760 297.6 738.4 282.4 716 282.4 c 0
 693.6 282.4 671.2 297.6 661.6 329.6 c 1
 645.6 344 639.2 361.6 639.2 378.4 c 0x8cfe180400000e10
 639.2 391.2 643.2 404 650.4 416 c 1
 663.2 404 687.2 396.8 711.2 396.8 c 0
 735.2 396.8 759.2 403.2 776 417.6 c 1
792.8 473.6 m 0
 792.8 434.4 757.6 408 710.4 408 c 0
 667.2 408 635.2 428 635.2 466.4 c 0
 635.2 489.6 642.4 504.8 659.2 516 c 1
 672.8 508 695.2 504 717.6 504 c 0
 738.4 504 759.2 507.2 772 516 c 1x8cfe180400000c50
 786.4 506.4 792.8 493.6 792.8 473.6 c 0
660.8 608 m 0
 660.8 672.8 655.2 742.4 605.6 742.4 c 0
 585.6 742.4 567.2 732 567.2 704 c 0
 567.2 688 580.8 669.6 603.2 669.6 c 0
 606.4 669.6 609.6 669.6 612.8 670.4 c 1
 612.8 669.6 612.8 668.8 612.8 668 c 0
 612.8 648 593.6 634.4 570.4 634.4 c 0
 566.4 634.4 561.6 635.2 557.6 636 c 1
 554.4 600.8 539.2 558.4 493.6 548.8 c 1
 492.8 593.6 464.8 617.6 464.8 662.4 c 0
 464.8 681.6 470.4 705.6 485.6 736.8 c 1
 476 745.6 471.2 759.2 471.2 772 c 0
 471.2 781.6 473.6 790.4 479.2 797.6 c 1
 489.6 795.2 499.2 793.6 508.8 793.6 c 0
 538.4 793.6 565.6 804 603.2 804 c 0
 716 804 772 684.8 772 524.8 c 1
 753.6 516 733.6 512 715.2 512 c 0
 694.4 512 675.2 516.8 660 524.8 c 1x8cfe180400042cd0
 660 528 660 530.4 660 533.6 c 0
 660 553.6 660.8 580.8 660.8 608 c 0
228.8 812.8 m 0
 88 812.8 48 659.2 48 524 c 1
 33.5996 512.8 27.2002 493.6 27.2002 474.4 c 0
 27.2002 457.6 32 440.8 42.4004 428 c 0
 43.2002 426.4 44.7998 424.8 43.2002 424 c 1
 33.5996 409.6 28 392.8 28 377.6 c 0
 28 360 35.2002 342.4 48 329.6 c 1
 48 184 135.2 5.59961 244 1.59961 c 1
 249.6 -9.59961 264.8 -16 279.2 -16 c 0
 294.4 -16 308.8 -9.59961 313.6 1.59961 c 1
 355.2 1.59961 387.2 9.59961 412 32.7998 c 0
 413.6 33.5996 415.2 33.5996 416 32.7998 c 0
 440.8 9.59961 472 1.59961 513.6 1.59961 c 1
 519.2 -10.4004 534.4 -16.7998 548.8 -16.7998 c 0
 563.2 -16.7998 577.6 -11.2002 583.2 1.59961 c 1
 692 5.59961 779.2 184 779.2 329.6 c 1
 792 342.4 799.2 360 799.2 378.4 c 0
 799.2 393.6 794.4 409.6 784.8 424 c 0
 784 424.8 784.8 426.4 785.6 428 c 0
 796 440 800.8 456.8 800.8 473.6 c 0
 800.8 492.8 793.6 512.8 779.2 524 c 1
 779.2 659.2 740 812.8 599.2 812.8 c 0
 564.8 812.8 535.2 803.2 507.2 803.2 c 0
 496.8 803.2 488 804 478.4 807.2 c 1
 468.8 797.6 464 784 464 770.4 c 0
 464 757.6 468 745.6 475.2 735.2 c 1
 462.4 704 458.4 680 458.4 660 c 0
 458.4 609.6 488 588.8 488 546.4 c 0
 488 544.8 488 543.2 488 541.6 c 1
 532 548 561.6 580.8 569.6 625.6 c 0
 569.6 628.8 578.4 626.4 581.6 626.4 c 0
 603.2 626.4 620.8 650.4 620.8 669.6 c 0
 620.8 674.4 620 678.4 618.4 681.6 c 1
 613.6 679.2 608.8 677.6 604 677.6 c 0
 588.8 677.6 577.6 692.8 577.6 704 c 0
 577.6 722.4 587.2 736 604.8 736 c 0
 649.6 736 653.6 671.2 653.6 596.8 c 0
 653.6 573.6 652.8 548.8 652.8 524 c 1
 636.8 511.2 628 488.8 628 467.2 c 0
 628 451.2 632.8 435.2 643.2 424 c 1
 636 408.8 631.2 392.8 631.2 377.6 c 0
 631.2 359.2 637.6 342.4 652.8 329.6 c 1
 652.8 233.6 646.4 108.8 586.4 90.4004 c 0
 584 89.5996 583.2 90.4004 582.4 92.7998 c 0
 576 104.8 562.4 110.4 548.8 110.4 c 0
 535.2 110.4 520.8 103.2 514.4 91.2002 c 1
 490.4 92.7998 480.8 115.2 480.8 141.6 c 0
 480.8 181.6 502.4 230.4 536.8 241.6 c 1
 536.8 242.4 l 0
 536.8 268 511.2 276 483.2 276 c 0
 456.8 276 428 268.8 416.8 262.4 c 0
 416 261.6 414.4 261.6 413.6 262.4 c 0
 402.4 268.8 372.8 276 346.4 276 c 0
 317.6 276 291.2 268 291.2 242.4 c 0
 291.2 241.6 l 1
 325.6 230.4 347.2 180.8 347.2 141.6 c 0
 347.2 114.4 336.8 92 312.8 91.2002 c 1
 306.4 103.2 292.8 110.4 279.2 110.4 c 0
 265.6 110.4 252.8 104.8 246.4 92.7998 c 0
 244.8 90.4004 244 89.5996 242.4 90.4004 c 0
 182.4 106.4 174.4 233.6 174.4 329.6 c 1
 189.6 342.4 196 359.2 196 377.6 c 0xacfe39350b1a5d30
 196 392.8 191.2 408.8 184 424 c 1
 194.4 435.2 199.2 451.2 199.2 467.2 c 0
 199.2 488.8 190.4 511.2 174.4 524 c 1
 174.4 544.8 174.4 566.4 174.4 586.4 c 0
 174.4 666.4 176.8 735.2 222.4 735.2 c 0
 240.8 735.2 251.2 723.2 251.2 704 c 0
 251.2 692.8 240 677.6 224 677.6 c 0
 220 677.6 214.4 679.2 209.6 681.6 c 1
 208 678.4 207.2 674.4 207.2 669.6 c 0
 207.2 650.4 224.8 626.4 247.2 626.4 c 0
 250.4 626.4 258.4 628.8 258.4 625.6 c 0
 266.4 580.8 296 548 340 541.6 c 1
 340 542.4 340 544 340 544.8 c 0
 340 588 368.8 608.8 368.8 659.2 c 0
 368.8 678.4 364.8 703.2 352 735.2 c 1
 360 745.6 364 758.4 364 771.2 c 0
 364 784.8 359.2 797.6 350.4 807.2 c 1
 340.8 804 331.2 803.2 321.6 803.2 c 0xacfe382d03000c10
 293.6 803.2 264 812.8 228.8 812.8 c 0
589.6 622.4 m 1
 582.4 620 578.4 620.8 574.4 616 c 1
 572.8 611.2 572 607.2 570.4 603.2 c 1
 572 595.2 579.2 588.8 587.2 588.8 c 0
 596 588.8 604 596.8 604 605.6 c 0
 604 613.6 597.6 620.8 589.6 622.4 c 1
237.6 622.4 m 1
 230.4 620.8 224 613.6 224 605.6 c 0
 224 596.8 232 588.8 240.8 588.8 c 0
 248.8 588.8 256 595.2 257.6 603.2 c 1
 256 607.2 255.2 611.2 253.6 616 c 1
 252 617.6 250.4 619.2 248 620.8 c 1
 244.8 620.8 241.6 620.8 237.6 622.4 c 1
EndSplineSet
Validated: 1
Layer: 2
SplineSet
238 622 m 1,0,1
 224 619 224 619 224 606 c 0,2,3
 224 600 224 600 229 594.5 c 128,-1,4
 234 589 234 589 241 589 c 0,5,6
 255 589 255 589 258 603 c 1,7,8
 257 605 257 605 255.5 611 c 128,-1,9
 254 617 254 617 248 621 c 1,10,11
 242 620 242 620 238 622 c 1,0,1
590 622 m 1,12,13
 576 617 576 617 574 616 c 1,14,15
 573 614 573 614 572 610 c 128,-1,16
 571 606 571 606 570 603 c 1,17,18
 573 589 573 589 587 589 c 0,19,20
 593 589 593 589 598.5 594 c 128,-1,21
 604 599 604 599 604 606 c 0,22,23
 604 619 604 619 590 622 c 1,12,13
654 597 m 2,24,-1
 653 524 l 1,25,26
 628 504 628 504 628 472 c 128,-1,27
 628 440 628 440 643 424 c 1,28,29
 631 398 631 398 631 373 c 128,-1,30
 631 348 631 348 653 330 c 1,31,32
 653 112 653 112 586 90 c 0,33,34
 583 89 583 89 582 93 c 1,35,36
 572 111 572 111 550 111 c 0,37,38
 549 111 549 111 548 110 c 0,39,40
 525 110 525 110 514 91 c 1,41,42
 481 93 481 93 481 139 c 0,43,44
 481 141 481 141 481 142 c 0,45,46
 481 174 481 174 496.5 204 c 128,-1,47
 512 234 512 234 537 242 c 1,48,49
 537 276 537 276 483 276 c 0,50,51
 441 276 441 276 417 262 c 0,52,53
 415 260 415 260 414 262 c 1,54,55
 390 276 390 276 346 276 c 0,56,57
 291 276 291 276 291 242 c 1,58,59
 316 234 316 234 331.5 203.5 c 128,-1,60
 347 173 347 173 347 146 c 0,61,62
 347 92 347 92 313 91 c 1,63,64
 303 110 303 110 279.5 110 c 128,-1,65
 256 110 256 110 246 93 c 0,66,67
 244 90 244 90 242 90 c 0,68,69
 174 108 174 108 174 330 c 1,70,71
 196 348 196 348 196 373 c 128,-1,72
 196 398 196 398 184 424 c 1,73,74
 199 440 199 440 199 472 c 128,-1,75
 199 504 199 504 174 524 c 1,76,-1
 174 586 l 2,77,78
 174 701 174 701 196 725 c 0,79,80
 206 735 206 735 222 735 c 0,81,82
 251 735 251 735 251 704 c 0,83,84
 251 695 251 695 243 686.5 c 128,-1,85
 235 678 235 678 226.5 678 c 128,-1,86
 218 678 218 678 210 682 c 1,87,88
 208 677 208 677 207.5 665.5 c 128,-1,89
 207 654 207 654 219 640 c 128,-1,90
 231 626 231 626 244 626 c 2,91,-1
 258 626 l 1,92,93
 264 592 264 592 285.5 569 c 128,-1,94
 307 546 307 546 340 542 c 1,95,-1
 340 545 l 2,96,97
 340 566 340 566 354.5 599.5 c 128,-1,98
 369 633 369 633 369 663 c 128,-1,99
 369 693 369 693 352 735 c 1,100,101
 364 750 364 750 364 771 c 128,-1,102
 364 792 364 792 350 807 c 1,103,104
 338 803 338 803 323.5 803 c 128,-1,105
 309 803 309 803 278 808 c 128,-1,106
 247 813 247 813 229 813 c 0,107,108
 179 813 179 813 142 787.5 c 128,-1,109
 105 762 105 762 85 718 c 0,110,111
 48 636 48 636 48 524 c 1,112,113
 27 508 27 508 27 477 c 128,-1,114
 27 446 27 446 42 428 c 0,115,116
 44 425 44 425 43 424 c 0,117,118
 28 402 28 402 28 376 c 128,-1,119
 28 350 28 350 48 330 c 1,120,121
 48 257 48 257 73.5 182 c 128,-1,122
 99 107 99 107 145.5 55 c 128,-1,123
 192 3 192 3 244 2 c 1,124,125
 253 -16 253 -16 279.5 -16 c 128,-1,126
 306 -16 306 -16 314 2 c 1,127,128
 379 2 379 2 412 33 c 0,129,130
 414 35 414 35 416 33 c 0,131,132
 450 2 450 2 514 2 c 1,133,134
 523 -16 523 -16 549 -16 c 0,135,136
 550 -17 550 -17 550 -17 c 0,137,138
 575 -17 575 -17 583 2 c 1,139,140
 635 4 635 4 681.5 55.5 c 128,-1,141
 728 107 728 107 753.5 182 c 128,-1,142
 779 257 779 257 779 330 c 1,143,144
 799 350 799 350 799 376 c 128,-1,145
 799 402 799 402 785 424 c 0,146,147
 784 425 784 425 786 428 c 0,148,149
 801 446 801 446 801 476.5 c 128,-1,150
 801 507 801 507 779 524 c 1,151,152
 779 635 779 635 742 718 c 0,153,154
 723 761 723 761 686.5 787 c 128,-1,155
 650 813 650 813 599 813 c 0,156,157
 581 813 581 813 550.5 808 c 128,-1,158
 520 803 520 803 505 803 c 128,-1,159
 490 803 490 803 478 807 c 1,160,161
 464 793 464 793 464 772 c 128,-1,162
 464 751 464 751 475 735 c 1,163,164
 458 694 458 694 458 664 c 128,-1,165
 458 634 458 634 473 600 c 128,-1,166
 488 566 488 566 488 546 c 2,167,-1
 488 542 l 1,168,169
 521 547 521 547 542 569 c 128,-1,170
 563 591 563 591 570 626 c 0,171,172
 570 627 570 627 583.5 626.5 c 128,-1,173
 597 626 597 626 609 640 c 128,-1,174
 621 654 621 654 621 665.5 c 128,-1,175
 621 677 621 677 618 682 c 1,176,177
 610 678 610 678 602 678 c 128,-1,178
 594 678 594 678 586 686.5 c 128,-1,179
 578 695 578 695 578 706.5 c 128,-1,180
 578 718 578 718 585 727 c 128,-1,181
 592 736 592 736 605 736 c 0,182,183
 635 736 635 736 644.5 700.5 c 128,-1,184
 654 665 654 665 654 597 c 2,24,-1
660 534 m 1,185,-1
 661 608 l 1,186,187
 661 707 661 707 635 731 c 0,188,189
 623 742 623 742 606 742 c 0,190,191
 567 742 567 742 567 704 c 0,192,193
 567 691 567 691 577 680.5 c 128,-1,194
 587 670 587 670 598.5 670 c 128,-1,195
 610 670 610 670 613 670 c 1,196,-1
 613 668 l 2,197,198
 613 654 613 654 600.5 644 c 128,-1,199
 588 634 588 634 577 634 c 128,-1,200
 566 634 566 634 558 636 c 1,201,202
 551 561 551 561 494 549 c 1,203,204
 494 571 494 571 479.5 605.5 c 128,-1,205
 465 640 465 640 465 667 c 128,-1,206
 465 694 465 694 486 737 c 1,207,208
 472 751 472 751 471.5 769 c 128,-1,209
 471 787 471 787 479 798 c 1,210,211
 497 794 497 794 509.5 794 c 128,-1,212
 522 794 522 794 552.5 799 c 128,-1,213
 583 804 583 804 603 804 c 0,214,215
 685 804 685 804 728.5 727 c 128,-1,216
 772 650 772 650 772 525 c 1,217,218
 746 512 746 512 715 512 c 128,-1,219
 684 512 684 512 660 525 c 1,220,-1
 660 534 l 1,185,-1
793 473.5 m 128,-1,222
 793 445 793 445 769.5 426.5 c 128,-1,223
 746 408 746 408 711.5 408 c 128,-1,224
 677 408 677 408 656 423 c 128,-1,225
 635 438 635 438 635 469 c 128,-1,226
 635 500 635 500 659 516 c 1,227,228
 680 504 680 504 717 504 c 128,-1,229
 754 504 754 504 772 516 c 1,230,221
 793 502 793 502 793 473.5 c 128,-1,222
776 418 m 1,231,232
 790 401 790 401 790 374 c 128,-1,233
 790 347 790 347 769 327 c 1,234,235
 755 282 755 282 715.5 282 c 128,-1,236
 676 282 676 282 662 330 c 1,237,238
 640 350 640 350 640 374 c 0,239,240
 639 375 639 375 639 376 c 0,241,242
 639 399 639 399 650 416 c 1,243,244
 671 397 671 397 711.5 397 c 128,-1,245
 752 397 752 397 776 418 c 1,231,232
166 609 m 2,246,-1
 167 539 l 1,247,-1
 167 526 l 1,248,249
 144 513 144 513 113 513 c 128,-1,250
 82 513 82 513 55 526 c 1,251,252
 55 649 55 649 98.5 727.5 c 128,-1,253
 142 806 142 806 222 806 c 0,254,255
 243 806 243 806 273.5 800 c 128,-1,256
 304 794 304 794 317 794 c 128,-1,257
 330 794 330 794 348 798 c 1,258,259
 356 788 356 788 356 770 c 128,-1,260
 356 752 356 752 342 738 c 1,261,262
 363 697 363 697 363 670 c 0,263,264
 363 669 363 669 362 668 c 0,265,266
 362 641 362 641 348 606.5 c 128,-1,267
 334 572 334 572 334 550 c 1,268,269
 277 562 277 562 270 637 c 1,270,271
 262 635 262 635 250.5 635 c 128,-1,272
 239 635 239 635 226.5 644.5 c 128,-1,273
 214 654 214 654 214 669 c 2,274,-1
 214 671 l 1,275,276
 217 670 217 670 228.5 670 c 128,-1,277
 240 670 240 670 250 681 c 128,-1,278
 260 692 260 692 260 708 c 128,-1,279
 260 724 260 724 249.5 733.5 c 128,-1,280
 239 743 239 743 222 743 c 0,281,282
 186 743 186 743 176 699 c 1,283,284
 166 663 166 663 166 609 c 2,246,-1
772 314 m 1,285,286
 771 252 771 252 746.5 182 c 128,-1,287
 722 112 722 112 678 61 c 128,-1,288
 634 10 634 10 587 8 c 1,289,290
 598 21 598 21 598 44 c 0,291,292
 598 45 598 45 598 46 c 0,293,294
 598 68 598 68 588 82 c 1,295,296
 616 88 616 88 633 129 c 128,-1,297
 650 170 650 170 655 215.5 c 128,-1,298
 660 261 660 261 660 314 c 1,299,300
 680 273 680 273 715 273 c 0,301,302
 716 273 716 273 716 274 c 0,303,304
 752 274 752 274 772 314 c 1,285,286
582 82 m 0,305,306
 589 70 589 70 589 47 c 128,-1,307
 589 24 589 24 579 7 c 128,-1,308
 569 -10 569 -10 547.5 -10 c 128,-1,309
 526 -10 526 -10 519 8 c 1,310,311
 530 22 530 22 530 46 c 128,-1,312
 530 70 530 70 519 85 c 1,313,314
 528 102 528 102 549 102 c 128,-1,315
 570 102 570 102 582 82 c 0,305,306
171 424 m 128,-1,317
 150 409 150 409 115.5 409 c 128,-1,318
 81 409 81 409 57.5 427.5 c 128,-1,319
 34 446 34 446 34 474.5 c 128,-1,320
 34 503 34 503 55 517 c 1,321,322
 73 505 73 505 110 505 c 128,-1,323
 147 505 147 505 168 517 c 1,324,325
 192 501 192 501 192 470 c 128,-1,316
 192 439 192 439 171 424 c 128,-1,317
528 246 m 1,326,327
 507 236 507 236 490.5 206.5 c 128,-1,328
 474 177 474 177 474 145 c 0,329,330
 474 95 474 95 510 82 c 1,331,332
 522 70 522 70 522 47 c 128,-1,333
 522 24 522 24 510 10 c 1,334,335
 505 9 505 9 495 9 c 0,336,337
 445 9 445 9 414 47 c 1,338,339
 383 9 383 9 333 9 c 0,340,341
 323 9 323 9 317 10 c 1,342,343
 305 22 305 22 305 46.5 c 128,-1,344
 305 71 305 71 315 85 c 1,345,346
 353 93 353 93 354 142 c 0,347,348
 354 176 354 176 339 205 c 128,-1,349
 324 234 324 234 298 246 c 1,350,351
 300 271 300 271 340 271 c 0,352,353
 341 271 341 271 342 270 c 0,354,355
 384 270 384 270 415 248 c 1,356,357
 448 272 448 272 487 272 c 128,-1,358
 526 272 526 272 528 246 c 1,326,327
178 417 m 1,359,360
 188 399 188 399 188 375.5 c 128,-1,361
 188 352 188 352 166 330 c 1,362,363
 152 283 152 283 111 283 c 0,364,365
 93 283 93 283 79 295 c 128,-1,366
 65 307 65 307 58 329 c 1,367,368
 36 349 36 349 36 374 c 0,369,370
 36 376 36 376 36 376 c 0,371,372
 37 402 37 402 51 419 c 1,373,374
 74 398 74 398 114 398 c 0,375,376
 115 398 115 398 116 398 c 0,377,378
 157 399 157 399 178 417 c 1,359,360
248 8 m 128,-1,380
 238 25 238 25 238 48.5 c 128,-1,381
 238 72 238 72 250 87.5 c 128,-1,382
 262 103 262 103 281 103 c 128,-1,383
 300 103 300 103 308 86 c 1,384,385
 297 72 297 72 297 47 c 128,-1,386
 297 22 297 22 308 9 c 1,387,388
 301 -9 301 -9 279.5 -9 c 128,-1,379
 258 -9 258 -9 248 8 c 128,-1,380
240 9 m 1,389,390
 193 11 193 11 149 62 c 128,-1,391
 105 113 105 113 80.5 182.5 c 128,-1,392
 56 252 56 252 55 314 c 1,393,394
 75 274 75 274 111.5 274 c 128,-1,395
 148 274 148 274 167 316 c 1,396,397
 167 101 167 101 239 83 c 1,398,399
 229 68 229 68 229 46 c 0,400,401
 229 45 229 45 230 44 c 0,402,403
 230 21 230 21 240 9 c 1,389,390
521 612 m 1,404,-1
 516 671 l 1,405,406
 516 722 516 722 543 744 c 1,407,408
 536 731 536 731 536 713.5 c 128,-1,409
 536 696 536 696 546 681 c 1,410,411
 553 668 553 668 569 662 c 0,412,413
 571 661 571 661 571 663 c 128,-1,414
 571 665 571 665 569 666 c 0,415,416
 556 671 556 671 550 682 c 1,417,418
 544 696 544 696 544 717.5 c 128,-1,419
 544 739 544 739 558 755 c 1,420,421
 581 769 581 769 607 770 c 1,422,-1
 614 770 l 1,423,424
 663 765 663 765 685 723 c 0,425,426
 708 680 708 680 712 635 c 0,427,428
 716 588 716 588 716 539 c 0,429,430
 716 535 716 535 718 536 c 0,431,432
 721 537 721 537 722 539 c 1,433,-1
 722 564 l 2,434,435
 722 777 722 777 604 777 c 0,436,437
 586 777 586 777 570 770 c 1,438,439
 541 765 541 765 523 765 c 0,440,441
 507 765 507 765 503 770 c 0,442,443
 498 776 498 776 498 775 c 128,-1,444
 498 774 498 774 500 772 c 0,445,446
 506 762 506 762 527 762 c 0,447,448
 549 762 549 762 557 763 c 1,449,450
 511 734 511 734 511 678 c 0,451,452
 511 663 511 663 515 641 c 128,-1,453
 519 619 519 619 519 611 c 2,454,-1
 519 609 l 1,455,-1
 518 597 l 1,456,457
 521 597 521 597 521 612 c 1,404,-1
716 357 m 1,458,-1
 717 316 l 1,459,-1
 717 309 l 2,460,461
 717 306 717 306 719.5 306 c 128,-1,462
 722 306 722 306 723 314.5 c 128,-1,463
 724 323 724 323 727 357 c 1,464,465
 753 358 753 358 771 374 c 0,466,467
 774 377 774 377 773 377.5 c 128,-1,468
 772 378 772 378 769 377 c 0,469,470
 751 366 751 366 722 366 c 0,471,472
 717 366 717 366 672 377 c 0,473,474
 669 378 669 378 668 377 c 0,475,476
 667 375 667 375 669 374 c 0,477,478
 684 359 684 359 716 357 c 1,458,-1
719 250 m 0,479,480
 719 252 719 252 717 253.5 c 128,-1,481
 715 255 715 255 713 254 c 128,-1,482
 711 253 711 253 711 250 c 0,483,484
 705 182 705 182 674 122 c 128,-1,485
 643 62 643 62 618 58 c 0,486,487
 614 57 614 57 615 53 c 1,488,489
 617 50 617 50 620 50 c 0,490,491
 647 56 647 56 679 118 c 1,492,493
 713 180 713 180 719 250 c 0,479,480
314 671 m 1,494,-1
 309 610 l 2,495,496
 309 600 309 600 310.5 598 c 128,-1,497
 312 596 312 596 312 597.5 c 128,-1,498
 312 599 312 599 311.5 601 c 128,-1,499
 311 603 311 603 311 610.5 c 128,-1,500
 311 618 311 618 315 641 c 128,-1,501
 319 664 319 664 319 678 c 0,502,503
 319 735 319 735 274 763 c 1,504,505
 282 761 282 761 302 762 c 0,506,507
 322 762 322 762 330 772 c 1,508,-1
 332 775 l 1,509,510
 330 775 330 775 327 770 c 128,-1,511
 324 765 324 765 306.5 765 c 128,-1,512
 289 765 289 765 260 770 c 1,513,514
 245 777 245 777 226 777 c 0,515,516
 108 777 108 777 108 558 c 2,517,-1
 108 539 l 2,518,519
 108 536 108 536 111 536 c 128,-1,520
 114 536 114 536 114 539 c 0,521,522
 114 642 114 642 130 690 c 128,-1,523
 146 738 146 738 174 756 c 0,524,525
 192 767 192 767 217 770 c 1,526,-1
 223 770 l 2,527,528
 249 770 249 770 273 755 c 1,529,530
 286 740 286 740 286 718 c 0,531,532
 286 672 286 672 262 666 c 0,533,534
 259 665 259 665 258 663 c 1,535,536
 259 661 259 661 262 662 c 0,537,538
 278 668 278 668 285 681 c 1,539,540
 295 695 295 695 295 712 c 0,541,542
 295 713 295 713 294 714 c 0,543,544
 294 731 294 731 287 744 c 1,545,546
 314 722 314 722 314 671 c 1,494,-1
113 318 m 1,547,-1
 114 357 l 1,548,549
 142 359 142 359 162 374 c 0,550,551
 164 376 164 376 163 377 c 128,-1,552
 162 378 162 378 158 377 c 1,553,554
 138 366 138 366 109 366 c 0,555,556
 78 366 78 366 61 377 c 0,557,558
 59 379 59 379 58 378 c 0,559,560
 56 377 56 377 59 374 c 0,561,562
 76 357 76 357 103 357 c 1,563,-1
 108 309 l 2,564,565
 108 306 108 306 110 306 c 0,566,567
 112 307 112 307 114 309 c 1,568,-1
 113 318 l 1,547,-1
213 58 m 0,569,570
 186 63 186 63 152.5 124 c 128,-1,571
 119 185 119 185 119 250 c 0,572,573
 119 252 119 252 117 253.5 c 128,-1,574
 115 255 115 255 113 254 c 128,-1,575
 111 253 111 253 111 250 c 0,576,577
 111 204 111 204 129.5 157 c 128,-1,578
 148 110 148 110 171 81.5 c 128,-1,579
 194 53 194 53 210 50 c 1,580,581
 214 48 214 48 215 52.5 c 128,-1,582
 216 57 216 57 213 58 c 0,569,570
415 117 m 1,583,584
 422 87 422 87 445.5 66.5 c 128,-1,585
 469 46 469 46 505 46 c 0,586,587
 509 46 509 46 509 50 c 128,-1,588
 509 54 509 54 505 54 c 0,589,590
 465 54 465 54 442 83 c 128,-1,591
 419 112 419 112 419 144 c 0,592,593
 419 211 419 211 468 231 c 1,594,-1
 471 234 l 1,595,596
 470 235 470 235 466 233 c 0,597,598
 428 218 428 218 415 167 c 1,599,600
 401 217 401 217 364 233 c 0,601,602
 360 235 360 235 359 234 c 1,603,-1
 362 231 l 1,604,605
 411 209 411 209 411 143 c 0,606,607
 411 111 411 111 388.5 82.5 c 128,-1,608
 366 54 366 54 326 54 c 0,609,610
 322 54 322 54 322 50 c 128,-1,611
 322 46 322 46 326 46 c 0,612,613
 362 46 362 46 385 66.5 c 128,-1,614
 408 87 408 87 415 117 c 1,583,584
415.5 303 m 128,-1,616
 409 303 409 303 403.5 298 c 128,-1,617
 398 293 398 293 398 285.5 c 128,-1,618
 398 278 398 278 402 275.5 c 128,-1,619
 406 273 406 273 410 271.5 c 128,-1,620
 414 270 414 270 415 270 c 0,621,622
 421 273 421 273 426 274 c 1,623,624
 432 279 432 279 432 286 c 128,-1,625
 432 293 432 293 427 298 c 128,-1,615
 422 303 422 303 415.5 303 c 128,-1,616
648 526 m 1,626,-1
 649 597 l 2,627,628
 649 663 649 663 641 696.5 c 128,-1,629
 633 730 633 730 605 730 c 0,630,631
 583 730 583 730 583 704 c 0,632,633
 583 697 583 697 590 690.5 c 128,-1,634
 597 684 597 684 604.5 684 c 128,-1,635
 612 684 612 684 620 688 c 1,636,637
 626 682 626 682 626 669.5 c 128,-1,638
 626 657 626 657 617.5 643.5 c 128,-1,639
 609 630 609 630 596 625 c 1,640,641
 608 619 608 619 608 608.5 c 128,-1,642
 608 598 608 598 601.5 591.5 c 128,-1,643
 595 585 595 585 585 585 c 128,-1,644
 575 585 575 585 568 598 c 1,645,646
 557 571 557 571 535.5 553.5 c 128,-1,647
 514 536 514 536 485 536 c 0,648,649
 483 536 483 536 482 539 c 1,650,-1
 482 546 l 2,651,652
 482 568 482 568 468 601 c 128,-1,653
 454 634 454 634 454 663.5 c 128,-1,654
 454 693 454 693 470 734 c 1,655,656
 459 752 459 752 459 775 c 128,-1,657
 459 798 459 798 477 814 c 1,658,659
 491 808 491 808 506.5 808.5 c 128,-1,660
 522 809 522 809 553.5 813.5 c 128,-1,661
 585 818 585 818 602 818 c 2,662,-1
 613 818 l 2,663,664
 660 818 660 818 695 792 c 128,-1,665
 730 766 730 766 749 722 c 0,666,667
 785 638 785 638 785 526 c 1,668,669
 807 508 807 508 807 477.5 c 128,-1,670
 807 447 807 447 792 426 c 1,671,672
 806 403 806 403 806 375.5 c 128,-1,673
 806 348 806 348 785 327 c 1,674,675
 785 253 785 253 759.5 177 c 128,-1,676
 734 101 734 101 687 49 c 128,-1,677
 640 -3 640 -3 587 -3 c 1,678,679
 577 -22 577 -22 550 -22 c 128,-1,680
 523 -22 523 -22 510 -3 c 1,681,682
 446 -3 446 -3 414 26 c 1,683,684
 382 -3 382 -3 322 -3 c 0,685,686
 320 -3 320 -3 318 -3 c 1,687,688
 307 -22 307 -22 279.5 -22 c 128,-1,689
 252 -22 252 -22 241 -3 c 1,690,691
 188 -3 188 -3 141.5 49 c 128,-1,692
 95 101 95 101 69 177 c 128,-1,693
 43 253 43 253 43 327 c 1,694,695
 22 349 22 349 22 375.5 c 128,-1,696
 22 402 22 402 37 426 c 1,697,698
 22 446 22 446 22 476.5 c 128,-1,699
 22 507 22 507 43 526 c 1,700,701
 43 638 43 638 78 722 c 0,702,703
 97 767 97 767 132.5 792.5 c 128,-1,704
 168 818 168 818 215 818 c 2,705,-1
 226 818 l 2,706,707
 244 818 244 818 274.5 813.5 c 128,-1,708
 305 809 305 809 320.5 809 c 128,-1,709
 336 809 336 809 350 814 c 1,710,711
 368 797 368 797 368 774 c 0,712,713
 369 772 369 772 369 771 c 0,714,715
 369 749 369 749 358 734 c 1,716,717
 375 690 375 690 375 662 c 128,-1,718
 375 634 375 634 360.5 601 c 128,-1,719
 346 568 346 568 346 546 c 2,720,-1
 346 539 l 2,721,722
 346 536 346 536 343 536 c 0,723,724
 314 536 314 536 292.5 553 c 128,-1,725
 271 570 271 570 260 598 c 1,726,727
 254 585 254 585 243.5 585 c 128,-1,728
 233 585 233 585 226.5 591.5 c 128,-1,729
 220 598 220 598 220 608 c 128,-1,730
 220 618 220 618 232 624 c 1,731,732
 219 630 219 630 210 643 c 128,-1,733
 201 656 201 656 201 668.5 c 128,-1,734
 201 681 201 681 208 688 c 1,735,736
 216 684 216 684 223.5 684 c 128,-1,737
 231 684 231 684 238 690.5 c 128,-1,738
 245 697 245 697 245 704 c 0,739,740
 245 730 245 730 223 730 c 0,741,742
 194 730 194 730 187 692 c 0,743,744
 180 653 180 653 180 591 c 2,745,-1
 180 526 l 1,746,747
 206 505 206 505 206 472.5 c 128,-1,748
 206 440 206 440 191 423 c 1,749,750
 202 393 202 393 202 370 c 128,-1,751
 202 347 202 347 180 327 c 1,752,753
 180 115 180 115 242 98 c 1,754,755
 253 116 253 116 278.5 116 c 128,-1,756
 304 116 304 116 317 96 c 1,757,758
 341 101 341 101 341 137 c 128,-1,759
 341 173 341 173 325.5 203 c 128,-1,760
 310 233 310 233 286 239 c 1,761,762
 286 282 286 282 348 282 c 0,763,764
 370 282 370 282 397 276 c 1,765,766
 395 281 395 281 394.5 288 c 128,-1,767
 394 295 394 295 400 301 c 128,-1,768
 406 307 406 307 415 307 c 128,-1,769
 424 307 424 307 430 301 c 128,-1,770
 436 295 436 295 436 288 c 128,-1,771
 436 281 436 281 434 276 c 1,772,773
 461 282 461 282 482 282 c 0,774,775
 542 282 542 282 542 244 c 2,776,-1
 542 239 l 1,777,778
 518 232 518 232 502 202.5 c 128,-1,779
 486 173 486 173 486 137 c 128,-1,780
 486 101 486 101 511 96 c 1,781,782
 524 116 524 116 549.5 116 c 128,-1,783
 575 116 575 116 586 98 c 1,784,785
 648 116 648 116 648 327 c 1,786,787
 626 347 626 347 626 371 c 128,-1,788
 626 395 626 395 638 423 c 1,789,790
 623 441 623 441 622 472 c 0,791,-1
 622 474 l 0,792,793
 622 504 622 504 648 526 c 1,626,-1
EndSplineSet
Validated: 3073
EndChar

StartChar: y
Encoding: 121 121 39
Width: 426
VWidth: 800
Flags: W
HStem: -176 64<56 128> 328 26<6 44 130 168 266 309 360 402>
DStem2: 138 276 72 268 0.397705 -0.917513<-33.2174 195.022> 174 -18 192 -50 0.39682 0.917897<-79.0497 16.8095 124.315 350.833>
LayerCount: 3
Fore
SplineSet
160 -118.4 m 0
 131.2 -169.6 99.2002 -176 81.5996 -176 c 0
 60.7998 -176 44.7998 -163.2 44.7998 -146.4 c 0
 44.7998 -136 56 -112 80 -112 c 0
 88 -112 91.2002 -114.4 102.4 -114.4 c 0
 123.2 -114.4 134.4 -107.2 142.4 -91.2002 c 1
 155.2 -66.4004 164.8 -44 174.4 -17.5996 c 0
 176 -12.7998 176.8 -6.40039 176.8 0 c 0
 176.8 20.7998 168 45.5996 163.2 57.5996 c 2
 72 268 l 2
 51.2002 316.8 40.7998 324 9.59961 328 c 1
 6.40039 330.4 5.59961 336 5.59961 341.6 c 0
 5.59961 346.4 6.40039 352 9.59961 354.4 c 1
 25.5996 354.4 46.4004 352.8 73.5996 352.8 c 0
 102.4 352.8 134.4 354.4 164.8 354.4 c 1
 166.4 352 168 346.4 168 341.6 c 0
 168 336 166.4 330.4 164.8 328 c 1
 137.6 328 128 320 128 308 c 0
 128 300 132 289.6 138.4 276 c 2
 208.8 109.6 l 2
 212.8 101.6 216 98.4004 219.2 98.4004 c 0
 222.4 98.4004 225.6 102.4 228 108.8 c 2
 307.2 292 l 2
 309.6 297.6 311.2 301.6 311.2 305.6 c 0
 311.2 322.4 289.6 328 268.8 328 c 1
 267.2 330.4 265.6 336 265.6 341.6 c 0
 265.6 346.4 267.2 352 268.8 354.4 c 1
 292.8 354.4 318.4 352.8 342.4 352.8 c 0
 364.8 352.8 382.4 354.4 398.4 354.4 c 1
 401.6 352 402.4 346.4 402.4 341.6 c 0
 402.4 336 401.6 330.4 398.4 328 c 1
 361.6 323.2 349.6 310.4 334.4 276.8 c 0
 292 187.2 256 104.8 192 -49.5996 c 0
 182.4 -73.5996 172 -96 160 -118.4 c 0
EndSplineSet
Validated: 1
Layer: 2
SplineSet
160 -118 m 0,0,1
 128 -176 128 -176 82 -176 c 0,2,3
 66 -176 66 -176 55.5 -167.5 c 128,-1,4
 45 -159 45 -159 45 -146 c 0,5,6
 45 -136 45 -136 54.5 -124 c 128,-1,7
 64 -112 64 -112 80 -112 c 0,8,9
 83 -112 83 -112 89.5 -113 c 128,-1,10
 96 -114 96 -114 102 -114 c 0,11,12
 131 -114 131 -114 142 -91 c 0,13,14
 160 -57 160 -57 174 -18 c 0,15,16
 176 -11 176 -11 177 0 c 0,17,18
 177 24 177 24 163 58 c 1,19,-1
 72 268 l 2,20,21
 57 304 57 304 45.5 314.5 c 128,-1,22
 34 325 34 325 10 328 c 1,23,24
 6 331 6 331 6 342 c 0,25,26
 6 352 6 352 10 354 c 1,27,28
 16 354 16 354 37 353.5 c 128,-1,29
 58 353 58 353 74 353 c 0,30,31
 88 353 88 353 119 353.5 c 128,-1,32
 150 354 150 354 165 354 c 1,33,34
 168 349 168 349 168 342 c 0,35,36
 168 333 168 333 165 328 c 1,37,38
 128 328 128 328 128 308 c 0,39,40
 128 298 128 298 138 276 c 1,41,-1
 209 110 l 2,42,43
 215 99 215 99 219.5 98.5 c 128,-1,44
 224 98 224 98 228 109 c 2,45,-1
 307 292 l 2,46,47
 311 302 311 302 311 306 c 0,48,49
 311 328 311 328 269 328 c 1,50,51
 266 333 266 333 266 342 c 0,52,53
 266 350 266 350 269 354 c 1,54,55
 281 354 281 354 305.5 353.5 c 128,-1,56
 330 353 330 353 342 353 c 128,-1,57
 354 353 354 353 372.5 353.5 c 128,-1,58
 391 354 391 354 398 354 c 1,59,60
 402 351 402 351 402 342 c 0,61,62
 402 332 402 332 398 328 c 1,63,64
 372 325 372 325 359 314 c 128,-1,65
 346 303 346 303 334 277 c 0,66,67
 276 156 276 156 192 -50 c 0,68,69
 178 -85 178 -85 160 -118 c 0,0,1
EndSplineSet
Validated: 19457
EndChar

StartChar: braceleft
Encoding: 123 123 40
Width: 256
VWidth: 800
Flags: W
HStem: -194 16<203 237> 274 16<12 40> 746 16<207 237>
VStem: 92 52<-91 202 360 657>
LayerCount: 3
Fore
SplineSet
92 44.7998 m 0
 92 197.6 67.2002 274.4 16.7998 274.4 c 0
 15.2002 274.4 13.5996 274.4 12 274.4 c 1
 12 290.4 l 1
 13.5996 290.4 15.2002 290.4 16.7998 290.4 c 0
 67.2002 290.4 92 367.2 92 521.6 c 0
 92 681.6 140 761.6 236.8 761.6 c 1
 236.8 745.6 l 1
 175.2 745.6 144 680 144 548.8 c 2
 144 516.8 l 2
 144 387.2 122.4 309.6 79.2002 282.4 c 1
 122.4 249.6 144 170.4 144 44.7998 c 2
 144 13.5996 l 2
 144 -113.6 175.2 -177.6 236.8 -177.6 c 1
 236.8 -193.6 l 1
 140 -193.6 92 -114.4 92 44.7998 c 0
EndSplineSet
Validated: 1
Layer: 2
SplineSet
92 45 m 0,0,1
 92 274 92 274 18 274 c 0,2,3
 17 274 17 274 17 274 c 2,4,-1
 12 274 l 1,5,-1
 12 290 l 1,6,-1
 17 290 l 2,7,8
 92 290 92 290 92 522 c 0,9,10
 92 762 92 762 237 762 c 1,11,-1
 237 746 l 1,12,13
 144 746 144 746 144 549 c 2,14,-1
 144 517 l 2,15,16
 144 323 144 323 79 282 c 1,17,18
 144 233 144 233 144 45 c 2,19,-1
 144 14 l 2,20,21
 144 -177 144 -177 237 -178 c 1,22,-1
 237 -194 l 1,23,24
 92 -193 92 -193 92 45 c 0,0,1
EndSplineSet
Validated: 3073
EndChar

StartChar: bar
Encoding: 124 124 41
Width: 128
VWidth: 800
Flags: W
VStem: 43 45<-245 826>
LayerCount: 3
Fore
SplineSet
88 -244.8 m 1
 43.2002 -259.2 l 1
 43.2002 825.6 l 1
 88 840.8 l 1
 88 -244.8 l 1
EndSplineSet
Validated: 1
Layer: 2
SplineSet
88 -245 m 1,0,-1
 43 -259 l 1,1,-1
 43 826 l 1,2,-1
 88 841 l 1,3,-1
 88 -245 l 1,0,-1
EndSplineSet
Validated: 19457
EndChar

StartChar: braceright
Encoding: 125 125 42
Width: 241
VWidth: 800
Flags: W
HStem: -194 16<5 39> 274 16<201 230> 746 16<5 35>
VStem: 98 52<-91 202 360 657>
LayerCount: 3
Fore
SplineSet
4.7998 -193.6 m 1
 4.7998 -177.6 l 1
 66.4004 -177.6 97.5996 -113.6 97.5996 13.5996 c 2
 97.5996 44.7998 l 2
 97.5996 170.4 119.2 249.6 162.4 282.4 c 1
 119.2 309.6 97.5996 387.2 97.5996 516.8 c 2
 97.5996 548.8 l 2
 97.5996 680 66.4004 745.6 4.7998 745.6 c 1
 4.7998 761.6 l 1
 101.6 761.6 149.6 681.6 149.6 521.6 c 0
 149.6 367.2 174.4 290.4 224.8 290.4 c 0
 226.4 290.4 228 290.4 229.6 290.4 c 1
 229.6 274.4 l 1
 228 274.4 226.4 274.4 224.8 274.4 c 0
 174.4 274.4 149.6 197.6 149.6 44.7998 c 0
 149.6 -114.4 101.6 -193.6 4.7998 -193.6 c 1
EndSplineSet
Validated: 1
Layer: 2
SplineSet
5 -194 m 1,0,-1
 5 -178 l 1,1,2
 98 -178 98 -178 98 14 c 2,3,-1
 98 45 l 2,4,5
 98 234 98 234 162 282 c 1,6,7
 98 322 98 322 98 511 c 0,8,9
 98 514 98 514 98 517 c 2,10,-1
 98 549 l 2,11,12
 98 746 98 746 5 746 c 1,13,-1
 5 762 l 1,14,15
 150 762 150 762 150 522 c 0,16,17
 150 291 150 291 225 290 c 2,18,-1
 230 290 l 1,19,-1
 230 274 l 1,20,-1
 225 274 l 2,21,22
 150 274 150 274 150 45 c 0,23,24
 150 -194 150 -194 5 -194 c 1,0,-1
EndSplineSet
Validated: 3073
EndChar

StartChar: asciitilde
Encoding: 126 126 43
Width: 983
VWidth: 800
Flags: W
HStem: 48 50<374 609> 886 47<377 608>
VStem: 49 50<372 608> 887 47<376 608>
DStem2: 196 233 230 198 0.706089 0.708123<0 785.667>
LayerCount: 3
Fore
SplineSet
934.4 490.4 m 0
 934.4 247.2 736 48 491.2 48 c 0
 248 48 48.7998 246.4 48.7998 491.2 c 0
 48.7998 734.4 248 932.8 490.4 932.8 c 1
 493.6 932.8 l 2
 736 932.8 934.4 733.6 934.4 490.4 c 0
751.2 788.8 m 1
 682.4 848.8 591.2 885.6 492.8 885.6 c 0
 275.2 885.6 98.4004 708.8 98.4004 492 c 0
 98.4004 392 134.4 301.6 196 232.8 c 1
 751.2 788.8 l 1
887.2 492 m 0
 887.2 592.8 848.8 684 785.6 754.4 c 1
 771.2 739.2 494.4 469.6 230.4 197.6 c 1
 299.2 134.4 392 97.5996 492.8 97.5996 c 0
 709.6 97.5996 887.2 274.4 887.2 492 c 0
EndSplineSet
Validated: 1
Layer: 2
SplineSet
875 712 m 132,-1,1
 934 610 934 610 934 490 c 132,-1,2
 934 370 934 370 875 268.5 c 132,-1,3
 816 167 816 167 713.5 107.5 c 132,-1,4
 611 48 611 48 491 48 c 132,-1,5
 371 48 371 48 269.5 107 c 132,-1,6
 168 166 168 166 108.5 268.5 c 132,-1,7
 49 371 49 371 49 490.5 c 132,-1,8
 49 610 49 610 108.5 712 c 132,-1,9
 168 814 168 814 269.5 873.5 c 132,-1,10
 371 933 371 933 490 933 c 6,11,-1
 494 933 l 6,12,13
 613 933 613 933 714.5 873.5 c 132,-1,0
 816 814 816 814 875 712 c 132,-1,1
751 789 m 5,14,15
 640 886 640 886 493 886 c 4,16,17
 386 886 386 886 295 833 c 132,-1,18
 204 780 204 780 151 689 c 132,-1,19
 98 598 98 598 98 492 c 4,20,21
 98 342 98 342 196 233 c 5,22,-1
 751 789 l 5,14,15
887 492 m 4,23,24
 887 642 887 642 786 754 c 5,25,26
 784 752 784 752 701 670 c 4,27,28
 459 432 459 432 230 198 c 5,29,30
 339 98 339 98 493 98 c 4,31,32
 599 98 599 98 690 150.5 c 132,-1,33
 781 203 781 203 834 294 c 132,-1,34
 887 385 887 385 887 492 c 4,23,24
EndSplineSet
Validated: 19457
EndChar

StartChar: uni0410
Encoding: 1040 1040 44
Width: 541
VWidth: 800
Flags: W
HStem: -10 4<305.121 335.625 392.569 405.372> -7 4<135.403 147.597 445.711 494.105> -6 4<45 89.7941 196.292 243.37> 6 28<98 123.033 179 197.5> 6 11<207.125 221.758 452.125 465.901> 184 16<389.008 397.905> 207 21<389.044 397.723> 240 18<181.033 225.936> 266 73<155.601 257.366> 281 29<348.806 440.863> 318 47<331.908 449.732> 374 28<387.19 395.612> 582 4<222.845 257.195> 596 28<370 395.915> 632 49<335.932 454.046> 670 4<275.396 297.602> 682 21<269.564 303.779 371.084 371.555> 686 1<227.278 231> 694 30<188.473 272.538 361.603 447.174> 711 27<242.258 303.933> 730 4<218.179 246.738> 746 4<284.19 310.239> 763 27<403.753 409.167> 788 2.5<458.629 469.342> 792 2<343.79 355.244> 797 5<392.83 420.025>
VStem: 90 6<245.187 288.552> 102 6<319.023 348.912> 129 4<-0.248901 7.95837> 133 3<164.508 172> 138 4<377.707 390.562> 143 5<687.011 718.948> 150 4<-0.536743 8> 157 24.5<709.155 714.5> 159 34<75.1562 117.484> 174 4<625.758 648.451> 189 24<618.501 659.291> 192 1<171.129 175> 198 5<151.302 187.675> 219 20<618.331 665.215> 248 6<619.327 650.528> 254 5<234.106 257.843> 304 18<703 710.453> 311 5<276.052 308.745> 318 5<612.407 646.677> 328 140<298.078 309.707 341.439 364.942 632.363 671.729> 328 4<164.872 248.622> 332 3<771.125 783.87> 336 51<63.8309 183.999 402.001 595.999> 386 4<-3.44873 5.95502> 396 47<80.5322 183.999 228.001 232 402.001 595.999> 408 4<-3.42822 5.94141> 410 68<725.379 748.907> 442 3<229.07 232> 452 6<157.943 252.21 389.473 612.027> 478 3<342.75 362.251 765.548 778.705> 486 4<701.123 728.482>
DStem2: 222 237 190 194 0.926947 0.375193<-29.506 4.69655 176.811 231.506>
AnchorPoint: "Diacritic" 408 891 basechar 0
LayerCount: 3
Fore
SplineSet
399.2 11.2002 m 1x00007f38380348
 396 9.59961 390.4 8.7998 390.4 3.2002 c 0
 390.4 -1.59961 394.4 -5.59961 399.2 -5.59961 c 0
 404 -5.59961 408 -1.59961 408 3.2002 c 0
 408 4.7998 407.2 6.40039 407.2 7.2002 c 1
 404 8.7998 401.6 9.59961 399.2 11.2002 c 1x00007f38380348
141.6 14.4004 m 1
 137.6 12 132.8 11.2002 132.8 5.59961 c 0
 132.8 0.799805 136.8 -3.2002 141.6 -3.2002 c 0x40007fb8380048
 146.4 -3.2002 150.4 0.799805 150.4 5.59961 c 0
 150.4 7.2002 150.4 8.7998 149.6 10.4004 c 1
 146.4 11.2002 144 12.7998 141.6 14.4004 c 1
464 788 m 0
 455.2 788 449.6 780 449.6 773.6 c 0
 449.6 768 452 763.2 456.8 760 c 1
 460.8 758.4 464 756.8 470.4 759.2 c 1
 476 762.4 478.4 767.2 478.4 772 c 0x00007f38380068
 478.4 780 472 788 464 788 c 0
463.2 790.4 m 0
 471.2 790.4 480.8 785.6 480.8 774.4 c 0x40a0ffb9391368
 480.8 765.6 476.8 756.8 467.2 755.2 c 1
 482.4 746.4 490.4 732 490.4 715.2 c 0
 490.4 701.6 485.6 687.2 472.8 673.6 c 1
 479.2 665.6 482.4 656.8 482.4 648.8 c 0
 482.4 634.4 473.6 620 457.6 610.4 c 1
 457.6 391.2 l 1
 471.2 384.8 482.4 369.6 482.4 353.6 c 0
 482.4 347.2 480.8 340.8 476.8 334.4 c 1
 481.6 324 484 313.6 484 303.2 c 0
 484 280.8 472.8 260.8 456 248.8 c 1
 456 153.6 461.6 60.7998 517.6 8 c 0
 518.4 8 518.4 7.2002 518.4 6.40039 c 0
 518.4 5.59961 517.6 4.7998 516 4 c 0
 504 -4 488.8 -8 472 -8 c 0
 453.6 -8 432.8 -4 411.2 5.59961 c 1
 412 4 412 3.2002 412 1.59961 c 0
 412 -4.7998 406.4 -9.59961 399.2 -9.59961 c 0
 392.8 -9.59961 386.4 -4.7998 386.4 1.59961 c 0
 386.4 3.2002 386.4 4 387.2 5.59961 c 1
 364.8 -4 340.8 -9.59961 318.4 -9.59961 c 0x80a0ff38380358
 298.4 -9.59961 280.8 -4.7998 269.6 5.59961 c 0
 269.6 5.59961 269.6 6.40039 268.8 6.40039 c 1
 268.8 5.59961 l 0
 258.4 -2.40039 241.6 -6.40039 222.4 -6.40039 c 0
 200 -6.40039 174.4 -1.59961 154.4 8 c 1
 154.4 7.2002 154.4 5.59961 154.4 4.7998 c 0
 154.4 -1.59961 148.8 -7.2002 141.6 -7.2002 c 0
 134.4 -7.2002 128.8 -1.59961 128.8 4.7998 c 0
 128.8 5.59961 128.8 7.2002 129.6 8 c 1
 110.4 -0.799805 88.7998 -5.59961 69.5996 -5.59961 c 0
 52 -5.59961 36 -1.59961 24.7998 8 c 0
 24 8 23.2002 9.59961 23.2002 9.59961 c 0
 23.2002 11.2002 24 11.2002 24.7998 12 c 0
 87.2002 61.5996 120 129.6 124 201.6 c 1
 102.4 216.8 89.5996 244 89.5996 268.8 c 0
 89.5996 285.6 96 302.4 108 312.8 c 1
 104 319.2 102.4 326.4 102.4 333.6 c 0
 102.4 353.6 115.2 375.2 138.4 378.4 c 1
 138.4 379.2 138.4 380 138.4 380.8 c 0
 138.4 434.4 201.6 501.6 252.8 540.8 c 0
 285.6 567.2 317.6 589.6 317.6 634.4 c 0
 317.6 651.2 306.4 669.6 286.4 669.6 c 0
 269.6 669.6 253.6 657.6 253.6 635.2 c 0
 253.6 618.4 264.8 604 280 596 c 0
 282.4 595.2 282.4 592.8 280 592 c 0
 267.2 584.8 252.8 581.6 240 581.6 c 0
 204.8 581.6 174.4 604.8 174.4 636 c 0
 174.4 639.2 174.4 642.4 175.2 645.6 c 1
 152 664.8 143.2 685.6 143.2 704 c 0
 143.2 733.6 166.4 758.4 192 760 c 1
 196 744 213.6 734.4 230.4 734.4 c 0
 257.6 734.4 273.6 750.4 296 750.4 c 0
 304 750.4 313.6 748.8 325.6 742.4 c 1
 328.8 750.4 335.2 756.8 344 760 c 1
 336.8 763.2 332 770.4 332 778.4 c 0x40a0ffb9391358
 332 788 341.6 794.4 350.4 794.4 c 0
 358.4 794.4 365.6 789.6 366.4 780 c 1
 375.2 793.6 390.4 801.6 406.4 801.6 c 0
 421.6 801.6 436.8 793.6 446.4 777.6 c 1
 447.2 786.4 455.2 790.4 463.2 790.4 c 0
87.2002 17.5996 m 0
 89.5996 20 90.4004 22.4004 90.4004 24.7998 c 0
 90.4004 28.7998 87.2002 33.5996 83.2002 33.5996 c 0
 81.5996 33.5996 79.2002 32.7998 77.5996 31.2002 c 0
 68.7998 25.5996 80.7998 12.7998 87.2002 17.5996 c 0
207.2 20 m 1
 212.8 14.4004 221.6 16.7998 221.6 24 c 0
 221.6 28.7998 218.4 32.7998 213.6 32.7998 c 0
 207.2 32.7998 203.2 26.4004 207.2 20 c 1
194.4 38.4004 m 0
 176 54.4004 160.8 82.4004 159.2 112.8 c 0x00007f3c380048
 159.2 117.6 153.6 119.2 151.2 113.6 c 0
 141.6 84.7998 124 52 101.6 37.5996 c 0
 95.2002 33.5996 98.4004 32.7998 103.2 35.2002 c 0
 120 44 132.8 55.2002 144.8 76.7998 c 0
 148.8 83.2002 151.2 88.7998 153.6 94.4004 c 1
 159.2 65.5996 174.4 48.7998 192.8 35.2002 c 0
 198.4 31.2002 199.2 33.5996 194.4 38.4004 c 0
323.2 20 m 1x00007f38388048
 328.8 14.4004 337.6 16 337.6 24 c 0
 337.6 28 333.6 33.5996 329.6 33.5996 c 0
 324 33.5996 319.2 26.4004 323.2 20 c 1x00007f38388048
222.4 236.8 m 0
 227.2 237.6 225.6 243.2 220 241.6 c 0
 213.6 240.8 207.2 240 201.6 240 c 0
 166.4 240 147.2 254.4 128 271.2 c 0
 124 275.2 120 272 124 268.8 c 0
 136 256 148.8 244 165.6 236.8 c 1
 160.8 218.4 160 206.4 160 188 c 0
 160 183.2 160 178.4 160 172.8 c 0
 160 167.2 165.6 167.2 165.6 172.8 c 0x10007f3a380048
 167.2 200.8 168 212 172.8 235.2 c 1
 179.2 232.8 185.6 232 192.8 232 c 0
 202.4 232 212 234.4 222.4 236.8 c 0
452 20 m 1
 457.6 14.4004 466.4 16.7998 466.4 24 c 0
 466.4 28.7998 463.2 32.7998 458.4 32.7998 c 0
 452 32.7998 448 26.4004 452 20 c 1
441.6 41.5996 m 0
 415.2 71.2002 404 129.6 398.4 180.8 c 0
 397.6 185.6 388.8 184.8 388.8 180 c 0x00007f38384048
 384.8 129.6 375.2 72 350.4 44 c 0
 346.4 40 346.4 36 350.4 40 c 0
 372 61.5996 388.8 104.8 394.4 147.2 c 1
 402.4 104.8 416.8 64 439.2 38.4004 c 0
 443.2 34.4004 445.6 37.5996 441.6 41.5996 c 0
445.6 292.8 m 0
 449.6 296.8 446.4 299.2 442.4 296 c 0
 429.6 284.8 411.2 280.8 393.6 280.8 c 1
 376.8 282.4 360.8 284.8 348.8 295.2 c 0
 344.8 299.2 342.4 296.8 346.4 292.8 c 0
 356.8 280.8 372 275.2 388.8 273.6 c 1
 388.8 232 l 2
 388.8 226.4 397.6 226.4 397.6 232 c 2
 397.6 273.6 l 1
 399.2 273.6 400.8 273.6 402.4 273.6 c 0x24007f383840c8
 419.2 273.6 433.6 280.8 445.6 292.8 c 0
323.2 480.8 m 1x00007f38388048
 323.2 510.4 l 1
 296 462.4 234.4 421.6 223.2 352 c 1
 262.4 377.6 306.4 433.6 323.2 480.8 c 1x00007f38388048
304.8 532.8 m 0x00007f383c0048
 308.8 537.6 301.6 544 297.6 539.2 c 0
 252 479.2 212.8 468.8 181.6 383.2 c 0
 180 377.6 188 373.6 189.6 379.2 c 0
 220 464.8 258.4 475.2 304.8 532.8 c 0x00007f383c0048
396 407.2 m 2
 396 592 l 2
 396 597.6 387.2 597.6 387.2 592 c 2
 387.2 407.2 l 2
 387.2 400.8 396 400.8 396 407.2 c 2
219.2 637.6 m 0
 219.2 676 252.8 703.2 288.8 703.2 c 0
 293.6 703.2 297.6 702.4 300.8 701.6 c 0
 305.6 700 304 708 299.2 709.6 c 0
 296 711.2 292 711.2 287.2 711.2 c 0x01117f38b80048
 258.4 711.2 252 694.4 220.8 694.4 c 0
 207.2 694.4 194.4 698.4 184.8 712 c 0
 180.8 716.8 180 715.2 183.2 708.8 c 0
 189.6 692.8 208 687.2 227.2 687.2 c 0
 228.8 687.2 229.6 687.2 231.2 687.2 c 0
 232 687.2 232 687.2 232.8 687.2 c 1
 232 687.2 232 686.4 231.2 686.4 c 0
 219.2 677.6 212.8 661.6 212.8 646.4 c 0
 212.8 636 216 626.4 222.4 620.8 c 0
 227.2 615.2 226.4 618.4 222.4 624 c 0x010a7f38b80048
 220 627.2 219.2 632 219.2 637.6 c 0
454.4 711.2 m 0
 445.6 720 426.4 728.8 410.4 729.6 c 1
 408.8 760 l 2
 408.8 764.8 404 764.8 404 760 c 2
 402.4 729.6 l 1
 382.4 728.8 365.6 722.4 354.4 711.2 c 0
 350.4 707.2 350.4 703.2 355.2 705.6 c 0
 372.8 716.8 386.4 720.8 406.4 720.8 c 0x00047f38380048
 421.6 720.8 440.8 713.6 452 705.6 c 1
 457.6 703.2 458.4 707.2 454.4 711.2 c 0
249.6 9.59961 m 1
 240 7.2002 229.6 5.59961 220 5.59961 c 0
 189.6 5.59961 160.8 16.7998 141.6 30.4004 c 1
 121.6 17.5996 93.5996 6.40039 68 6.40039 c 0
 59.2002 6.40039 51.2002 8 43.2002 11.2002 c 1
 85.5996 43.2002 124 102.4 132.8 173.6 c 0
 133.6 173.6 134.4 172 136 172 c 1
 136.8 154.4 146.4 138.4 156.8 131.2 c 1
 175.2 140 185.6 152 192 172 c 0
 192.8 172 192 175.2 192.8 175.2 c 1
 192.8 172 192.8 168.8 192.8 166.4 c 0x00007f7c380048
 192.8 105.6 215.2 47.2002 249.6 9.59961 c 1
244 237.6 m 0
 236.8 214.4 217.6 204.8 190.4 194.4 c 1
 189.6 177.6 176 148.8 157.6 140 c 1
 143.2 153.6 138.4 181.6 136.8 207.2 c 1x20007f3a380048
 119.2 223.2 105.6 243.2 105.6 270.4 c 0
 105.6 272 105.6 273.6 105.6 275.2 c 0
 105.6 286.4 114.4 300 123.2 300 c 0
 125.6 300 127.2 299.2 129.6 296.8 c 0
 141.6 284.8 154.4 275.2 176 267.2 c 0
 201.6 258.4 224 257.6 241.6 257.6 c 1x10007f3a380048
 246.4 249.6 246.4 247.2 244 237.6 c 0
496.8 8 m 1
 487.2 4.7998 477.6 3.2002 468 3.2002 c 0
 443.2 3.2002 418.4 13.5996 399.2 25.5996 c 1
 375.2 13.5996 350.4 2.40039 323.2 2.40039 c 0
 312 2.40039 300 4 288 8.7998 c 1
 337.6 72.7998 340 144.8 340 209.6 c 0
 340 215.2 340 220.8 340 226.4 c 1
 341.6 226.4 342.4 227.2 343.2 227.2 c 0
 348.8 212 369.6 200 391.2 200 c 0
 415.2 200 432.8 208.8 442.4 232 c 0
 443.2 232 443.2 232 444.8 232 c 1x00007f383804c8
 444.8 155.2 446.4 78.4004 496.8 8 c 1
326.4 383.2 m 2
 326.4 367.2 325.6 355.2 317.6 340 c 0
 303.2 312 285.6 292 262.4 276 c 0
 252 268.8 239.2 265.6 225.6 265.6 c 0
 180 265.6 137.6 293.6 120.8 320.8 c 0
 117.6 325.6 116 330.4 116 335.2 c 0
 116 352.8 132.8 367.2 145.6 367.2 c 0
 146.4 367.2 146.4 367.2 147.2 367.2 c 0
 159.2 357.6 185.6 339.2 212 339.2 c 0x08007f38380048
 220 339.2 228 340 232.8 343.2 c 0
 272.8 365.6 305.6 416.8 326.4 456.8 c 1
 326.4 383.2 l 2
470.4 304 m 0
 468.8 283.2 461.6 266.4 442.4 253.6 c 1
 436.8 224.8 417.6 207.2 391.2 207.2 c 0
 364.8 207.2 347.2 226.4 341.6 253.6 c 1
 332.8 261.6 324.8 280 324.8 300 c 0
 324.8 309.6 326.4 319.2 331.2 328.8 c 1
 342.4 318.4 370.4 310.4 397.6 310.4 c 0x24007f383840c8
 424 310.4 447.2 316 464 327.2 c 1
 468.8 319.2 470.4 312.8 470.4 304 c 0
328.8 519.2 m 2
 327.2 480 l 1
 309.6 432 258.4 359.2 219.2 347.2 c 1
 226.4 426.4 299.2 467.2 323.2 520 c 0x00007f38388048
 324.8 523.2 328.8 522.4 328.8 519.2 c 2
327.2 533.6 m 1x01007f383c0048
 287.2 462.4 226.4 441.6 211.2 346.4 c 1
 189.6 349.6 165.6 361.6 150.4 374.4 c 1
 150.4 434.4 213.6 492.8 260.8 529.6 c 0
 290.4 553.6 313.6 573.6 327.2 610.4 c 1x01007f38388048
 327.2 533.6 l 1x01007f383c0048
468.8 356 m 1
 468 340 463.2 335.2 454.4 331.2 c 0
 437.6 323.2 416.8 318.4 397.6 318.4 c 0
 368.8 318.4 344.8 328.8 327.2 340.8 c 1
 331.2 348.8 334.4 362.4 334.4 373.6 c 0
 334.4 374.4 334.4 376 334.4 376.8 c 1
 352 368 369.6 364.8 393.6 364.8 c 0x02007f38388048
 415.2 364.8 430.4 368.8 447.2 380.8 c 1
 459.2 378.4 468.8 368.8 468.8 358.4 c 0
 468.8 357.6 468.8 356.8 468.8 356 c 1
443.2 387.2 m 1x01007f38380848
 424.8 377.6 412.8 374.4 392.8 374.4 c 0
 369.6 374.4 356.8 376.8 336 387.2 c 1
 336 605.6 l 1
 348 617.6 369.6 624 392.8 624 c 0
 412.8 624 426.4 618.4 443.2 606.4 c 1
 443.2 387.2 l 1x01007f38380848
228 724 m 0x00027f38b80048
 255.2 724 276.8 738.4 299.2 738.4 c 0
 308 738.4 316.8 736 325.6 729.6 c 1
 323.2 723.2 322.4 716 322.4 708.8 c 0
 322.4 696.8 325.6 684 333.6 673.6 c 1
 330.4 670.4 326.4 665.6 324.8 660.8 c 1
 318.4 670.4 304 681.6 287.2 681.6 c 0x00117f38b80048
 262.4 681.6 239.2 664.8 239.2 636 c 0
 239.2 620 248 605.6 258.4 596.8 c 1
 252 594.4 245.6 592.8 240 592.8 c 0
 212.8 592.8 188.8 615.2 188.8 639.2 c 0
 188.8 644.8 190.4 650.4 192.8 656 c 1
 167.2 664 156.8 683.2 156.8 702.4 c 0
 156.8 721.6 167.2 740 184 746.4 c 1
 189.6 733.6 207.2 724 228 724 c 0x00027f38b80048
395.2 680.8 m 0x00407f38380848
 424.8 680.8 468 676 468 649.6 c 0
 468 632.8 457.6 622.4 443.2 616.8 c 1
 432 624 412.8 632 391.2 632 c 0
 369.6 632 350.4 625.6 336 617.6 c 1
 331.2 624 328 633.6 328 641.6 c 0
 328 644 328.8 646.4 329.6 648.8 c 0
 338.4 673.6 367.2 680.8 395.2 680.8 c 0x00407f38380848
458.4 677.6 m 1
 440.8 684 418.4 688 396 688 c 0
 376 688 356 684.8 340 678.4 c 1x00047f38380448
 333.6 686.4 330.4 698.4 330.4 710.4 c 0
 330.4 731.2 340.8 752.8 367.2 752.8 c 0
 367.2 752.8 368 752.8 368.8 752.8 c 0
 376 778.4 391.2 789.6 405.6 789.6 c 0
 421.6 789.6 437.6 776 441.6 754.4 c 1
 468 747.2 477.6 731.2 477.6 715.2 c 0
 477.6 700.8 469.6 685.6 458.4 677.6 c 1
286.4 673.6 m 0x84a0ffb97aa058
 310.4 673.6 323.2 656.8 323.2 636 c 0x84a0ff39390048
 323.2 592 292 564.8 256.8 536.8 c 0
 204.8 496.8 142.4 434.4 142.4 373.6 c 1
 120.8 371.2 108 351.2 108 333.6 c 0
 108 326.4 110.4 319.2 114.4 314.4 c 0
 115.2 313.6 115.2 312 114.4 310.4 c 0
 101.6 300.8 96 284.8 96 268.8 c 0
 96 244 108 217.6 128.8 203.2 c 1
 124.8 131.2 92.7998 61.5996 30.4004 9.59961 c 1
 40.7998 2.40039 53.5996 -0.799805 68.7998 -0.799805 c 0
 92 -0.799805 120 7.2002 141.6 20 c 1
 163.2 6.40039 196 -1.59961 223.2 -1.59961 c 0
 239.2 -1.59961 253.6 1.59961 262.4 8 c 1
 214.4 56.7998 199.2 125.6 198.4 189.6 c 1
 226.4 197.6 254.4 220.8 254.4 248 c 0
 254.4 252 253.6 256 252.8 260 c 1
 275.2 272 309.6 305.6 317.6 328.8 c 0
 318.4 331.2 322.4 329.6 321.6 326.4 c 0
 318.4 313.6 316 303.2 316 293.6 c 0
 316 277.6 320.8 264.8 331.2 250.4 c 1
 332 236 332 220.8 332 207.2 c 0
 332 126.4 319.2 52.7998 275.2 8 c 1
 285.6 -0.799805 300.8 -4.7998 318.4 -4.7998 c 0
 341.6 -4.7998 367.2 1.59961 390.4 10.4004 c 1
 392.8 12.7998 396 14.4004 399.2 14.4004 c 0
 403.2 14.4004 406.4 12.7998 408.8 10.4004 c 1
 431.2 1.59961 452.8 -4 472.8 -4 c 0
 487.2 -4 500 -0.799805 511.2 5.59961 c 1
 457.6 60.7998 451.2 153.6 451.2 250.4 c 1
 467.2 260.8 479.2 281.6 479.2 304.8 c 0
 479.2 314.4 476.8 324.8 472 334.4 c 1
 476 340 477.6 346.4 477.6 352.8 c 0
 477.6 368 465.6 384 452 389.6 c 1
 452 612.8 l 1
 468 621.6 476.8 635.2 476.8 648.8 c 0
 476.8 656.8 473.6 664.8 467.2 671.2 c 0
 466.4 672.8 466.4 674.4 467.2 675.2 c 0
 480 688 486.4 702.4 486.4 715.2 c 0
 486.4 736 472 753.6 448.8 759.2 c 1
 443.2 784.8 424.8 796.8 406.4 796.8 c 0
 388 796.8 369.6 784 363.2 759.2 c 1
 348 759.2 331.2 751.2 327.2 736.8 c 1
 315.2 743.2 305.6 745.6 296.8 745.6 c 0
 274.4 745.6 258.4 730.4 232.8 730.4 c 0
 214.4 730.4 193.6 738.4 188.8 756 c 1
 168 751.2 148 729.6 148 703.2 c 0
 148 685.6 156.8 666.4 179.2 648.8 c 1
 178.4 645.6 178.4 642.4 178.4 639.2 c 0
 178.4 608.8 208 586.4 241.6 586.4 c 0
 252.8 586.4 264 588.8 274.4 593.6 c 1
 260 603.2 248 617.6 248 635.2 c 0
 248 659.2 266.4 673.6 286.4 673.6 c 0x84a0ffb97aa058
349.6 792 m 0
 340 792 335.2 784 335.2 776.8 c 0x00007f38381048
 335.2 769.6 340.8 762.4 349.6 762.4 c 1
 354.4 763.2 357.6 764 360.8 766.4 c 1
 361.6 770.4 363.2 773.6 364.8 776.8 c 1
 364.8 784 357.6 792 349.6 792 c 0
268.8 8.7998 m 1
 269.6 9.59961 l 0
 316.8 54.4004 328 129.6 328 212.8 c 0
 328 224.8 328 236.8 327.2 248.8 c 1
 316.8 264 311.2 276 311.2 292 c 0
 311.2 296.8 312 302.4 312.8 308.8 c 1
 300 288.8 276 268.8 257.6 257.6 c 1
 259.2 252.8 259.2 248.8 259.2 244.8 c 0
 259.2 216 232 195.2 203.2 187.2 c 1x10007f387aa048
 204.8 124.8 218.4 56.7998 268.8 9.59961 c 0
 268.8 9.59961 268.8 9.59961 268.8 8.7998 c 1
EndSplineSet
Validated: 1
Layer: 2
SplineSet
269 9 m 1,0,-1
 270 10 l 1,1,2
 328 65 328 65 328 213 c 0,3,4
 328 237 328 237 327 249 c 1,5,6
 311 272 311 272 311 292 c 0,7,8
 311 296 311 296 313 309 c 1,9,10
 295 280 295 280 258 258 c 1,11,12
 260 253 260 253 259 245 c 1,13,14
 259 225 259 225 242.5 209.5 c 128,-1,15
 226 194 226 194 203 187 c 1,16,17
 206 68 206 68 269 10 c 1,18,-1
 269 9 l 1,0,-1
350 792 m 0,19,20
 336 792 336 792 335 777 c 0,21,22
 335 771 335 771 341 765 c 128,-1,23
 347 759 347 759 361 766 c 1,24,25
 362 770 362 770 365 777 c 1,26,27
 365 783 365 783 360.5 787.5 c 128,-1,28
 356 792 356 792 350 792 c 0,19,20
287 674 m 0,29,30
 323 674 323 674 323 629 c 0,31,32
 323 607 323 607 306.5 585 c 128,-1,33
 290 563 290 563 257 537 c 0,34,35
 143 449 143 449 142 374 c 1,36,37
 127 372 127 372 117.5 360 c 128,-1,38
 108 348 108 348 108 335 c 128,-1,39
 108 322 108 322 112 317.5 c 128,-1,40
 116 313 116 313 114 310 c 1,41,42
 96 296 96 296 96 269 c 0,43,44
 96 226 96 226 129 203 c 1,45,46
 123 86 123 86 30 10 c 1,47,48
 45 0 45 0 76 -0 c 1,49,50
 76 -1 76 -1 77 -1 c 0,51,52
 107 -1 107 -1 142 20 c 1,53,54
 176 -2 176 -2 223 -2 c 0,55,56
 249 -2 249 -2 262 8 c 1,57,58
 200 71 200 71 198 190 c 1,59,60
 220 196 220 196 237 212.5 c 128,-1,61
 254 229 254 229 254 248 c 0,62,63
 254 252 254 252 253 260 c 1,64,65
 271 270 271 270 291.5 291 c 128,-1,66
 312 312 312 312 318 329 c 0,67,68
 319 331 319 331 320 330 c 0,69,70
 322 328 322 328 319 316 c 128,-1,71
 316 304 316 304 316 287.5 c 128,-1,72
 316 271 316 271 331 250 c 1,73,74
 332 236 332 236 332 207 c 0,75,76
 332 65 332 65 275 8 c 1,77,78
 290 -5 290 -5 320 -5 c 128,-1,79
 350 -5 350 -5 390 10 c 1,80,81
 394 14 394 14 399.5 14 c 128,-1,82
 405 14 405 14 409 10 c 1,83,84
 446 -4 446 -4 470 -4 c 128,-1,85
 494 -4 494 -4 511 6 c 1,86,87
 474 44 474 44 462.5 103 c 128,-1,88
 451 162 451 162 451 250 c 1,89,90
 479 268 479 268 479 305 c 0,91,92
 479 320 479 320 472 334 c 1,93,94
 478 342 478 342 478 353 c 128,-1,95
 478 364 478 364 470 375 c 128,-1,96
 462 386 462 386 452 390 c 1,97,-1
 452 613 l 1,98,99
 477 627 477 627 477 649 c 0,100,101
 477 662 477 662 467 671 c 0,102,103
 465 673 465 673 467 675 c 0,104,105
 486 694 486 694 486 713 c 0,106,107
 486 751 486 751 449 759 c 1,108,109
 445 777 445 777 433 787 c 128,-1,110
 421 797 421 797 406.5 797 c 128,-1,111
 392 797 392 797 380 787 c 128,-1,112
 368 777 368 777 363 759 c 1,113,114
 333 759 333 759 327 737 c 1,115,116
 310 746 310 746 298 746 c 128,-1,117
 286 746 286 746 266 738 c 128,-1,118
 246 730 246 730 233 730 c 0,119,120
 196 730 196 730 189 756 c 1,121,122
 173 752 173 752 160.5 737 c 128,-1,123
 148 722 148 722 148 703 c 0,124,125
 148 673 148 673 179 649 c 1,126,127
 178 646 178 646 178 639 c 0,128,129
 178 617 178 617 197 601.5 c 128,-1,130
 216 586 216 586 237.5 586 c 128,-1,131
 259 586 259 586 274 594 c 1,132,133
 248 612 248 612 248 632.5 c 128,-1,134
 248 653 248 653 259 663.5 c 128,-1,135
 270 674 270 674 287 674 c 0,29,30
458 678 m 1,136,137
 429 688 429 688 396.5 688 c 128,-1,138
 364 688 364 688 340 678 c 1,139,140
 330 690 330 690 330 709 c 128,-1,141
 330 728 330 728 339.5 740.5 c 128,-1,142
 349 753 349 753 367 753 c 2,143,-1
 369 753 l 1,144,145
 379 790 379 790 406 790 c 0,146,147
 418 790 418 790 428 780 c 128,-1,148
 438 770 438 770 442 754 c 1,149,150
 478 744 478 744 478 719 c 2,151,-1
 478 718 l 1,152,153
 477 692 477 692 458 678 c 1,136,137
395 681 m 0,154,155
 468 681 468 681 468 650 c 0,156,157
 468 627 468 627 443 617 c 1,158,159
 419 632 419 632 390.5 632 c 128,-1,160
 362 632 362 632 336 618 c 1,161,162
 328 628 328 628 328 636 c 128,-1,163
 328 644 328 644 330 649 c 0,164,165
 341 681 341 681 395 681 c 0,154,155
228 724 m 0,166,167
 242 724 242 724 265.5 731 c 128,-1,168
 289 738 289 738 301.5 738 c 128,-1,169
 314 738 314 738 326 730 c 1,170,171
 322 718 322 718 322 704 c 2,172,-1
 322 703 l 2,173,174
 322 687 322 687 334 674 c 1,175,176
 327 668 327 668 325 661 c 1,177,178
 311 682 311 682 289 682 c 128,-1,179
 267 682 267 682 253 669.5 c 128,-1,180
 239 657 239 657 239 635 c 128,-1,181
 239 613 239 613 258 597 c 1,182,183
 248 593 248 593 234 593 c 128,-1,184
 220 593 220 593 204.5 607 c 128,-1,185
 189 621 189 621 189 639 c 0,186,187
 189 646 189 646 193 656 c 1,188,189
 157 667 157 667 157 701.5 c 128,-1,190
 157 736 157 736 184 746 c 1,191,192
 194 724 194 724 228 724 c 0,166,167
443 387 m 1,193,194
 418 374 418 374 390 374 c 128,-1,195
 362 374 362 374 336 387 c 1,196,-1
 336 606 l 1,197,198
 354 624 354 624 386 624 c 128,-1,199
 418 624 418 624 443 606 c 1,200,-1
 443 387 l 1,193,194
469 356 m 1,201,202
 468 338 468 338 454 331 c 0,203,204
 427 318 427 318 393.5 318 c 128,-1,205
 360 318 360 318 327 341 c 1,206,207
 334 355 334 355 334 374 c 2,208,-1
 334 377 l 1,209,210
 358 365 358 365 391.5 365 c 128,-1,211
 425 365 425 365 447 381 c 1,212,213
 456 379 456 379 462.5 372.5 c 128,-1,214
 469 366 469 366 469 358 c 2,215,-1
 469 356 l 1,201,202
327 534 m 1,216,217
 313 508 313 508 285 478 c 128,-1,218
 257 448 257 448 237.5 418 c 128,-1,219
 218 388 218 388 211 346 c 1,220,221
 177 351 177 351 150 374 c 1,222,223
 150 443 150 443 261 530 c 0,224,225
 288 552 288 552 303 569 c 128,-1,226
 318 586 318 586 327 610 c 1,227,-1
 327 534 l 1,216,217
329 519 m 2,228,-1
 327 480 l 1,229,230
 313 441 313 441 280 398.5 c 128,-1,231
 247 356 247 356 219 347 c 1,232,233
 222 381 222 381 242.5 412 c 128,-1,234
 263 443 263 443 288.5 472 c 128,-1,235
 314 501 314 501 323 520 c 0,236,237
 325 522 325 522 327 521.5 c 128,-1,238
 329 521 329 521 329 519 c 2,228,-1
470 304 m 0,239,240
 468 270 468 270 442 254 c 1,241,242
 438 232 438 232 424.5 219.5 c 128,-1,243
 411 207 411 207 391.5 207 c 128,-1,244
 372 207 372 207 359 220 c 128,-1,245
 346 233 346 233 342 254 c 1,246,247
 325 269 325 269 325 300 c 0,248,249
 325 316 325 316 331 329 c 1,250,251
 352 310 352 310 394 310 c 0,252,253
 396 310 396 310 397 310 c 0,254,255
 439 310 439 310 464 327 c 1,256,257
 470 317 470 317 470 304 c 0,239,240
326 383 m 2,258,259
 326 357 326 357 318 340 c 0,260,261
 297 300 297 300 262 276 c 0,262,263
 247 266 247 266 220 266 c 128,-1,264
 193 266 193 266 163.5 282.5 c 128,-1,265
 134 299 134 299 121 321 c 0,266,267
 116 328 116 328 116 338 c 128,-1,268
 116 348 116 348 125.5 357.5 c 128,-1,269
 135 367 135 367 146 367 c 2,270,-1
 147 367 l 1,271,272
 182 339 182 339 212 339 c 0,273,274
 227 339 227 339 233 343 c 0,275,276
 282 370 282 370 326 457 c 1,277,-1
 326 383 l 2,258,259
340 226 m 1,278,279
 341 226 341 226 343 227 c 1,280,281
 347 216 347 216 361 208 c 128,-1,282
 375 200 375 200 391 200 c 0,283,284
 429 200 429 200 442 232 c 1,285,-1
 445 232 l 1,286,287
 445 183 445 183 447 153.5 c 128,-1,288
 449 124 449 124 461.5 82.5 c 128,-1,289
 474 41 474 41 497 8 c 1,290,291
 483 3 483 3 468 3 c 0,292,293
 435 3 435 3 399 26 c 1,294,295
 351 2 351 2 328 2 c 0,296,297
 327 2 327 2 325 2 c 0,298,299
 303 2 303 2 288 9 c 1,300,301
 311 39 311 39 323 76.5 c 128,-1,302
 335 114 335 114 337.5 141 c 128,-1,303
 340 168 340 168 340 210 c 2,304,-1
 340 226 l 1,278,279
242 258 m 1,305,306
 248 249 248 249 243.5 235.5 c 128,-1,307
 239 222 239 222 226.5 212.5 c 128,-1,308
 214 203 214 203 190 194 c 1,309,310
 189 180 189 180 179.5 163 c 128,-1,311
 170 146 170 146 158 140 c 1,312,313
 140 157 140 157 137 207 c 1,314,315
 106 235 106 235 106 270 c 2,316,-1
 106 275 l 2,317,318
 106 284 106 284 111.5 292 c 128,-1,319
 117 300 117 300 121.5 300 c 128,-1,320
 126 300 126 300 130 297 c 0,321,322
 169 258 169 258 242 258 c 1,305,306
133 174 m 1,323,324
 135 172 135 172 136 172 c 0,325,326
 138 145 138 145 157 131 c 1,327,328
 183 144 183 144 192 172 c 1,329,-1
 192 174 l 2,330,331
 192 176 192 176 193 175 c 1,332,-1
 193 166 l 2,333,334
 193 72 193 72 250 10 c 1,335,336
 234 6 234 6 220 6 c 0,337,338
 177 6 177 6 142 30 c 1,339,340
 104 6 104 6 68 6 c 0,341,342
 55 6 55 6 43 11 c 1,343,344
 77 37 77 37 102 80 c 128,-1,345
 127 123 127 123 133 174 c 1,323,324
454 711 m 0,346,347
 437 728 437 728 410 730 c 1,348,-1
 409 760 l 2,349,350
 409 763 409 763 406.5 763 c 128,-1,351
 404 763 404 763 404 760 c 2,352,-1
 402 730 l 1,353,354
 371 728 371 728 354 711 c 0,355,356
 349 706 349 706 351 706 c 0,357,358
 353 705 353 705 355 706 c 0,359,360
 385 721 385 721 405 721 c 0,361,362
 431 721 431 721 452 706 c 0,363,364
 456 704 456 704 456.5 706 c 128,-1,365
 457 708 457 708 454 711 c 0,346,347
219 638 m 0,366,367
 219 666 219 666 240 684.5 c 128,-1,368
 261 703 261 703 289 703 c 0,369,370
 291 703 291 703 299 702 c 0,371,372
 304 701 304 701 304 704 c 0,373,374
 305 711 305 711 289 711 c 128,-1,375
 273 711 273 711 255 702.5 c 128,-1,376
 237 694 237 694 217.5 694 c 128,-1,377
 198 694 198 694 185 712 c 0,378,379
 182 715 182 715 181.5 714.5 c 128,-1,380
 181 714 181 714 183 709 c 0,381,382
 192 687 192 687 227 687 c 2,383,-1
 231 687 l 1,384,-1
 232 686 l 1,385,-1
 231 686 l 2,386,387
 213 686 213 686 213 651 c 0,388,389
 213 629 213 629 222 621 c 0,390,391
 225 617 225 617 225.5 618.5 c 128,-1,392
 226 620 226 620 222.5 624 c 128,-1,393
 219 628 219 628 219 638 c 0,366,367
396 407 m 2,394,-1
 396 592 l 2,395,396
 396 596 396 596 391.5 596 c 128,-1,397
 387 596 387 596 387 592 c 2,398,-1
 387 407 l 2,399,400
 387 402 387 402 391.5 402 c 128,-1,401
 396 402 396 402 396 407 c 2,394,-1
241 466 m 0,402,403
 253 478 253 478 279 504 c 128,-1,404
 305 530 305 530 305.5 535 c 128,-1,405
 306 540 306 540 303 541 c 128,-1,406
 300 542 300 542 298 539 c 0,407,408
 283 518 283 518 257 494 c 128,-1,409
 231 470 231 470 213 446 c 0,410,411
 191 416 191 416 182 383 c 0,412,413
 180 377 180 377 184 377 c 0,414,415
 189 376 189 376 190 379 c 0,416,417
 202 427 202 427 241 466 c 0,402,403
323 481 m 1,418,-1
 323 510 l 1,419,420
 313 493 313 493 289 465.5 c 128,-1,421
 265 438 265 438 246.5 410 c 128,-1,422
 228 382 228 382 223 352 c 1,423,424
 253 371 253 371 281.5 408.5 c 128,-1,425
 310 446 310 446 323 481 c 1,418,-1
446 293 m 0,426,427
 449 296 449 296 447.5 297 c 128,-1,428
 446 298 446 298 442 296 c 1,429,430
 424 281 424 281 394 281 c 1,431,432
 362 284 362 284 349 295 c 0,433,434
 346 298 346 298 344.5 297 c 128,-1,435
 343 296 343 296 346 293 c 0,436,437
 360 276 360 276 389 274 c 1,438,-1
 389 232 l 2,439,440
 389 228 389 228 393.5 228 c 128,-1,441
 398 228 398 228 398 232 c 2,442,-1
 398 274 l 1,443,-1
 402 274 l 2,444,445
 427 274 427 274 446 293 c 0,426,427
442 42 m 0,446,447
 399 91 399 91 398 181 c 0,448,449
 398 184 398 184 393.5 184 c 128,-1,450
 389 184 389 184 389 180 c 0,451,452
 389 82 389 82 350 44 c 0,453,454
 346 40 346 40 347 39 c 0,455,456
 348 37 348 37 350 40 c 0,457,458
 384 74 384 74 394 147 c 1,459,460
 408 73 408 73 439 38 c 0,461,462
 442 35 442 35 443.5 37 c 128,-1,463
 445 39 445 39 442 42 c 0,446,447
452 20 m 1,464,465
 456 16 456 16 461 17 c 128,-1,466
 466 18 466 18 466 24 c 0,467,468
 466 33 466 33 458 33 c 0,469,470
 453 33 453 33 451 29 c 128,-1,471
 449 25 449 25 452 20 c 1,464,465
222 237 m 0,472,473
 226 238 226 238 226 240 c 1,474,475
 224 242 224 242 215.5 241 c 128,-1,476
 207 240 207 240 202 240 c 0,477,478
 160 240 160 240 128 271 c 0,479,480
 124 275 124 275 123 273 c 0,481,482
 121 271 121 271 124 269 c 0,483,484
 146 245 146 245 166 237 c 1,485,486
 160 215 160 215 160 188 c 2,487,-1
 160 173 l 2,488,489
 160 170 160 170 162 169 c 1,490,491
 164 170 164 170 166 173 c 1,492,493
 168 211 168 211 173 235 c 1,494,495
 182 232 182 232 192 232 c 0,496,497
 198 232 198 232 222 237 c 0,472,473
338 24 m 0,498,499
 338 34 338 34 329 34 c 0,500,501
 325 34 325 34 323 29.5 c 128,-1,502
 321 25 321 25 323 20 c 1,503,504
 329 14 329 14 333.5 17 c 128,-1,505
 338 20 338 20 338 24 c 0,498,499
194 38 m 0,506,507
 161 67 161 67 159 113 c 0,508,509
 159 117 159 117 156 117.5 c 128,-1,510
 153 118 153 118 151 114 c 0,511,512
 131 52 131 52 102 38 c 0,513,514
 99 36 99 36 98 34 c 1,515,-1
 102 34 l 1,516,517
 135 48 135 48 154 94 c 1,518,519
 161 59 161 59 193 35 c 0,520,521
 197 32 197 32 197.5 33 c 128,-1,522
 198 34 198 34 194 38 c 0,506,507
207 20 m 1,523,524
 211 16 211 16 216.5 17 c 128,-1,525
 222 18 222 18 222 24 c 0,526,527
 222 33 222 33 214 33 c 0,528,529
 209 33 209 33 206.5 29 c 128,-1,530
 204 25 204 25 207 20 c 1,523,524
80 17.5 m 128,-1,532
 84 15 84 15 87 18 c 128,-1,533
 90 21 90 21 90 25 c 0,534,535
 90 34 90 34 83 34 c 0,536,537
 80 34 80 34 77 31 c 128,-1,538
 74 28 74 28 75 24 c 128,-1,531
 76 20 76 20 80 17.5 c 128,-1,532
130 8 m 1,539,540
 100 -6 100 -6 69 -6 c 128,-1,541
 38 -6 38 -6 23 10 c 0,542,543
 23 11 23 11 25 12 c 0,544,545
 118 86 118 86 124 202 c 1,546,547
 90 226 90 226 90 269 c 0,548,549
 90 297 90 297 108 313 c 1,550,551
 102 322 102 322 102 336 c 128,-1,552
 102 350 102 350 112 363 c 128,-1,553
 122 376 122 376 138 378 c 1,554,-1
 138 381 l 2,555,556
 138 418 138 418 173 462 c 128,-1,557
 208 506 208 506 253 541 c 0,558,559
 293 573 293 573 306 591 c 0,560,561
 318 609 318 609 318 628.5 c 128,-1,562
 318 648 318 648 309.5 659 c 128,-1,563
 301 670 301 670 287 670 c 128,-1,564
 273 670 273 670 263.5 660.5 c 128,-1,565
 254 651 254 651 254 635 c 0,566,567
 254 609 254 609 280 596 c 0,568,569
 282 595 282 595 282 594 c 128,-1,570
 282 593 282 593 280 592 c 0,571,572
 262 582 262 582 237.5 582 c 128,-1,573
 213 582 213 582 193.5 597.5 c 128,-1,574
 174 613 174 613 174 636 c 0,575,576
 174 642 174 642 175 646 c 1,577,578
 143 672 143 672 143 704 c 0,579,580
 143 726 143 726 158 742 c 128,-1,581
 173 758 173 758 192 760 c 1,582,583
 195 749 195 749 206.5 741.5 c 128,-1,584
 218 734 218 734 231.5 734 c 128,-1,585
 245 734 245 734 265.5 742 c 128,-1,586
 286 750 286 750 298 750 c 128,-1,587
 310 750 310 750 326 742 c 1,588,589
 331 755 331 755 344 760 c 1,590,591
 332 766 332 766 332 776 c 128,-1,592
 332 786 332 786 337.5 790 c 128,-1,593
 343 794 343 794 350 794 c 0,594,595
 364 794 364 794 366 780 c 1,596,597
 380 802 380 802 406 802 c 128,-1,598
 432 802 432 802 446 778 c 1,599,600
 447 791 447 791 464 790.5 c 128,-1,601
 481 790 481 790 481 774 c 128,-1,602
 481 758 481 758 467 755 c 1,603,604
 490 741 490 741 490 716.5 c 128,-1,605
 490 692 490 692 473 674 c 1,606,607
 483 662 483 662 482 649 c 1,608,609
 482 626 482 626 458 610 c 1,610,-1
 458 391 l 1,611,612
 482 379 482 379 482 356 c 0,613,614
 482 355 482 355 482 354 c 0,615,616
 482 344 482 344 477 334 c 1,617,618
 484 318 484 318 484 303 c 0,619,620
 484 269 484 269 456 249 c 1,621,622
 456 153 456 153 468 102 c 0,623,624
 484 36 484 36 518 8 c 0,625,626
 519 8 519 8 518.5 6.5 c 128,-1,627
 518 5 518 5 516 4 c 0,628,629
 498 -8 498 -8 470 -8 c 128,-1,630
 442 -8 442 -8 411 6 c 1,631,632
 412 4 412 4 412 2 c 0,633,634
 412 -9 412 -9 399 -10 c 0,635,636
 394 -10 394 -10 390 -6.5 c 128,-1,637
 386 -3 386 -3 386 0.5 c 128,-1,638
 386 4 386 4 387 6 c 1,639,640
 350 -10 350 -10 319 -10 c 0,641,642
 318 -10 318 -10 317 -10 c 0,643,644
 286 -10 286 -10 270 6 c 1,645,-1
 269 6 l 1,646,647
 253 -6 253 -6 218.5 -6 c 128,-1,648
 184 -6 184 -6 154 8 c 1,649,-1
 154 5 l 2,650,651
 154 0 154 0 150.5 -3.5 c 128,-1,652
 147 -7 147 -7 141.5 -7 c 128,-1,653
 136 -7 136 -7 132.5 -3.5 c 128,-1,654
 129 0 129 0 129 3.5 c 128,-1,655
 129 7 129 7 130 8 c 1,539,540
474 783 m 128,-1,657
 470 788 470 788 464 788 c 128,-1,658
 458 788 458 788 454 783.5 c 128,-1,659
 450 779 450 779 450 772 c 128,-1,660
 450 765 450 765 457 760 c 1,661,662
 465 757 465 757 470 759 c 0,663,664
 478 764 478 764 478 771 c 128,-1,656
 478 778 478 778 474 783 c 128,-1,657
142 14 m 1,665,666
 141 13 141 13 137 11.5 c 128,-1,667
 133 10 133 10 133 6 c 0,668,669
 133 -3 133 -3 141.5 -3 c 128,-1,670
 150 -3 150 -3 150 6 c 0,671,672
 150 9 150 9 150 10 c 0,673,674
 147 11 147 11 142 14 c 1,665,666
399 11 m 1,675,676
 395 11 395 11 392.5 8 c 128,-1,677
 390 5 390 5 390 3 c 0,678,679
 390 -6 390 -6 399 -6 c 128,-1,680
 408 -6 408 -6 408 3 c 0,681,682
 408 4 408 4 407 7 c 1,683,-1
 399 11 l 1,675,676
EndSplineSet
Validated: 3073
EndChar

